<svg width="44" height="44" viewBox="0 0 44 44" fill="none" xmlns="http://www.w3.org/2000/svg">
<g clip-path="url(#clip0_87_416)">
<rect x="1.6665" y="1.3335" width="41.3333" height="41.3333" rx="20.6667" fill="#363A4D"/>
<g clip-path="url(#clip1_87_416)">
<rect x="1.6665" y="1.3335" width="41.3333" height="41.3333" rx="20.6667" fill="#363A4D"/>
<g clip-path="url(#clip2_87_416)">
<rect x="-0.813477" y="-2.7998" width="45.4667" height="45.4667" rx="22.7333" fill="#292C3A"/>
<g clip-path="url(#clip3_87_416)">
<path d="M44.6532 19.96C44.6545 23.8598 43.6532 27.6945 41.7454 31.0957C39.8376 34.497 37.0874 37.3507 33.7588 39.3827C33.9735 39.2385 34.1799 39.0823 34.3768 38.9148C34.3896 38.9065 34.3992 38.8941 34.404 38.8797C34.4088 38.8652 34.4086 38.8496 34.4033 38.8353C34.4023 38.8208 34.3978 38.8068 34.3901 38.7945C34.3824 38.7821 34.3718 38.7719 34.3592 38.7647C33.7235 38.4468 32.2757 37.9789 30.2186 37.7935H30.1921C29.5388 37.7229 28.4264 37.6964 28.347 37.6964C28.3282 37.6983 28.3101 37.7043 28.294 37.7141C27.6307 37.7129 26.9677 37.7453 26.3076 37.8112C26.1752 37.7935 24.7008 37.5463 24.6214 36.6723C24.5949 36.381 24.5772 35.8513 24.5772 35.2686C25.1069 35.4363 25.8485 35.2156 26.2458 35.0391C26.3344 34.9964 26.4174 34.943 26.493 34.8801C26.6784 34.7389 26.7932 34.6506 27.7378 35.0391C28.9208 35.5158 29.0444 35.4452 29.6271 34.7124C29.6801 34.6418 29.7419 34.5711 29.8037 34.4917C30.3599 33.8207 31.1721 34.2092 31.6047 34.4211C31.678 34.4606 31.7548 34.4931 31.8342 34.5182C32.1785 34.6153 33.3704 33.6353 33.7324 32.8408C33.75 32.8231 33.803 32.7966 33.856 32.7613C34.2268 32.5318 34.986 32.0462 34.986 31.5871C34.986 31.1016 35.0919 30.925 35.4981 30.7043C35.6067 30.6473 35.7187 30.5972 35.8335 30.5542C36.1778 30.4129 36.5751 30.2452 36.8576 29.7067C37.0342 29.3712 37.0077 29.2387 36.9548 29.0622C36.9106 28.9209 36.8576 28.7708 37.0607 28.2941C37.2991 27.7202 37.4138 27.6761 37.4491 27.6673C37.5374 27.632 37.5463 27.579 37.5463 27.4642C37.5463 27.1905 37.5463 26.6697 37.8288 25.5573C37.8879 25.2701 38.0084 24.9991 38.1819 24.7627C38.3497 24.5243 38.3585 24.4272 38.1025 24.0035C37.6787 23.3148 37.5109 21.2755 37.5551 20.8075C37.5816 20.5074 37.3785 20.269 37.1843 20.0483C37.0551 19.916 36.9478 19.7641 36.8665 19.598C36.7429 19.3332 36.7782 19.2537 36.893 19.0065C36.9626 18.8549 37.0216 18.6985 37.0695 18.5386C37.2373 18.0089 36.8753 17.7882 36.3721 17.488C36.1867 17.3733 35.9748 17.2408 35.7541 17.0819C35.5334 16.923 35.4186 16.7818 35.4009 16.667C35.3833 16.5257 35.5157 16.358 35.6923 16.1285C35.8545 15.9368 36.0021 15.7331 36.1337 15.5193C36.3191 15.2103 36.3632 14.9543 36.2661 14.7336C36.0719 14.3186 35.4098 14.1332 34.474 13.9831C34.1561 13.9302 34.0678 13.8595 34.0414 13.8154C34.006 13.7359 34.112 13.577 34.2179 13.4093C34.4033 13.1268 34.6417 12.7648 34.5446 12.3322C34.5161 12.1647 34.4495 12.006 34.35 11.8682C34.2506 11.7304 34.1208 11.6174 33.9707 11.5376C33.7942 11.4317 33.697 11.3787 33.75 11.1227C33.8471 10.6018 33.2645 10.0898 32.7524 9.63952C32.5885 9.50107 32.4322 9.35371 32.2845 9.1981C31.9402 8.81847 31.2692 9.03036 30.6777 9.20693C30.3864 9.29521 30.1127 9.3835 29.9361 9.36584C29.6977 9.34818 29.6624 9.16278 29.6448 8.69487C29.6418 8.46953 29.6181 8.24494 29.5741 8.02391C29.4152 7.37943 27.5348 7.44123 27.0757 7.46772C26.8461 6.5319 25.1952 6.42595 24.4801 6.42595C24.4146 6.42612 24.3503 6.40776 24.2947 6.37298C24.1607 6.30566 24.0121 6.27231 23.8621 6.27587C23.5597 6.28708 23.2599 6.33753 22.9704 6.42595C22.4054 6.56721 22.273 6.69081 22.1671 6.77909C22.0876 6.84972 22.0346 6.89386 21.7786 6.93801C21.5271 6.97601 21.2716 6.97898 21.0194 6.94684C20.7913 6.91257 20.5596 6.9096 20.3307 6.93801C20.1012 6.97332 19.8981 7.14106 19.7039 7.3088C19.3684 7.59131 19.1919 7.69726 19.0065 7.48537C18.9015 7.37109 18.7703 7.28405 18.6242 7.23175C18.478 7.17946 18.3214 7.16349 18.1678 7.1852C17.7528 7.23818 17.382 7.52951 17.1436 7.9886C16.8788 8.50065 16.6139 8.50948 16.1372 8.53596C15.8187 8.5417 15.5018 8.58316 15.1926 8.65956C14.707 8.78316 14.3892 9.06567 14.1067 9.31287C13.7447 9.63952 13.4798 9.86906 13.0031 9.66601C12.3586 9.3835 11.5111 9.56889 10.9902 9.86023C10.6635 10.0368 10.4693 10.2487 10.434 10.4606C10.3634 10.9108 10.0809 10.9903 9.51584 10.9903C9.20685 10.9903 9.09208 11.3346 8.97731 11.6789C8.84488 12.0762 8.70362 12.4911 8.27986 12.4735C8.17875 12.4655 8.0771 12.4787 7.98135 12.5121C7.88561 12.5456 7.79785 12.5985 7.72366 12.6677C7.34404 13.0385 7.34404 13.8066 7.34404 14.2215V14.2833C7.34404 14.4334 7.20278 14.4952 6.95558 14.61C6.63776 14.7424 6.24048 14.919 6.14336 15.431C6.08157 15.7665 6.15219 16.102 6.22282 16.4021C6.32876 16.8877 6.41705 17.2673 5.94914 17.541C5.30466 17.9118 5.23403 18.3885 5.15457 18.9447C5.12493 19.1681 5.08069 19.3893 5.02215 19.6069C4.89855 20.0483 5.01332 20.3661 5.09278 20.5957C5.18106 20.8429 5.21637 20.9488 5.04863 21.0812C4.84558 21.2401 4.80144 21.5933 4.79261 21.8581C4.77495 22.4673 4.978 23.3413 5.287 23.615C5.5342 23.8357 5.52537 23.9328 5.49006 24.4625C5.4724 24.7097 5.45474 25.0452 5.45474 25.5131C5.45474 26.6079 6.40822 27.014 6.98207 27.2523C7.13215 27.3141 7.32638 27.4024 7.34404 27.4377C7.34404 27.4819 7.33521 27.5348 7.33521 27.5878C7.30872 27.8262 7.27341 28.1175 7.63538 29.071C7.85609 29.6537 8.00617 29.742 8.14743 29.7773H8.16509C8.19157 29.8214 8.19157 30.1039 8.19157 30.1922C8.19157 30.7837 8.39463 30.872 8.67714 30.9338C8.82722 30.9691 8.97731 31.0044 9.08325 31.1987C9.25099 31.49 9.2245 31.543 9.17153 31.6489C9.10279 31.7793 9.06931 31.9254 9.07442 32.0727C9.0734 32.1251 9.08305 32.1772 9.10278 32.2257C9.12251 32.2743 9.15191 32.3183 9.18919 32.3552C9.46287 32.6201 10.1515 32.6201 10.7077 32.6112H10.9284C11.0873 32.6112 11.2021 32.6465 11.2727 32.726C11.414 32.8761 11.3875 33.2027 11.3698 33.547V33.5647C11.3588 33.6507 11.3701 33.7381 11.4025 33.8185C11.435 33.8989 11.4876 33.9696 11.5552 34.0238C11.8201 34.2268 12.3498 34.2268 13.0119 34.0149C13.1476 33.9643 13.2932 33.9459 13.4373 33.9613C13.5813 33.9766 13.7198 34.0252 13.8418 34.1032C14.0778 34.2611 14.2426 34.5051 14.3009 34.783C14.3005 34.8264 14.3107 34.8692 14.3307 34.9077C14.3507 34.9462 14.3799 34.9792 14.4156 35.0037C14.5481 35.1009 14.7688 35.0567 15.1749 34.9773C15.3603 34.9419 15.581 34.8978 15.8547 34.8537C16.4285 34.7654 16.4462 34.8183 16.4903 34.9419C16.5413 35.1054 16.6515 35.244 16.7993 35.3304C17.1613 35.5511 17.4173 35.3745 17.6822 35.1715C17.8566 35.0278 18.0576 34.9198 18.2737 34.8537C18.874 34.7036 19.4479 35.0126 19.6245 35.2951C19.6399 35.3175 19.6576 35.3382 19.6774 35.3569V36.6458C19.6068 36.9725 19.0594 37.6611 18.3973 37.7935C18.1766 37.8377 17.5762 37.8112 16.8082 37.7759C16.4197 37.7582 15.9871 37.7406 15.5369 37.7229C15.5285 37.7094 15.5168 37.6982 15.5029 37.6904C15.489 37.6827 15.4733 37.6787 15.4574 37.6788H13.6387C13.6249 37.6781 13.6112 37.681 13.5988 37.6871C13.5864 37.6933 13.5758 37.7026 13.5681 37.7141C11.8024 37.7582 10.0191 37.9701 9.03028 38.6764C3.08871 34.5711 -0.813477 27.7114 -0.813477 19.9424C-0.813477 7.37943 9.37459 -2.7998 21.9375 -2.7998C34.4651 -2.78215 44.6532 7.39709 44.6532 19.96Z" fill="#363A4D"/>
<path d="M38.0409 24.657C37.8573 24.9135 37.7281 25.205 37.6613 25.5133C37.3788 26.6434 37.3788 27.1731 37.3788 27.4556V27.4997C37.2993 27.5351 37.1581 27.6145 36.9021 28.2237C36.6814 28.7622 36.7432 28.9564 36.7873 29.1154C36.8226 29.239 36.8579 29.3272 36.699 29.6186C36.443 30.1042 36.1075 30.2366 35.7544 30.3867C35.6363 30.4323 35.5213 30.4854 35.4101 30.5456C34.9421 30.8016 34.8009 31.04 34.8009 31.5873C34.8009 31.9493 34.0328 32.426 33.7503 32.6114C33.609 32.6997 33.5649 32.7262 33.5649 32.7703C33.1853 33.5826 32.0641 34.4124 31.8698 34.3506C31.7993 34.3283 31.7312 34.2987 31.6668 34.2624C31.2254 34.0505 30.2895 33.6002 29.6539 34.3771C29.5921 34.4566 29.5303 34.5272 29.4773 34.5978C28.9388 35.2688 28.8946 35.3218 27.7911 34.8715C26.8023 34.4742 26.6257 34.5537 26.3697 34.7391C26.3029 34.7891 26.232 34.8334 26.1578 34.8715C25.8488 35.0128 25.0542 35.2688 24.5598 35.0746C24.5598 34.2447 24.5687 33.3442 24.5863 32.8321C25.787 32.2053 26.7052 31.1901 27.332 30.2807C28.6298 28.4091 29.2478 26.2196 29.0359 25.6546C28.9564 25.4427 28.8681 25.2308 28.7799 25.0366C28.4974 24.3656 28.2678 23.8448 28.568 23.5446C28.8681 23.2444 28.5503 22.8736 28.2943 22.5735C28.1177 22.3704 27.9323 22.1585 27.9853 22.0349C28.0118 21.9643 28.0559 21.8672 28.1089 21.7612C28.3031 21.3728 28.5591 20.8342 28.4356 20.4811C28.413 20.4184 28.3779 20.3611 28.3323 20.3125C28.2868 20.2639 28.2318 20.2251 28.1707 20.1986C27.8529 20.0485 27.6322 20.1545 27.4379 20.2339C27.2172 20.331 27.0318 20.4105 26.7052 20.1986C26.4294 20.0211 26.1922 19.7899 26.0077 19.5188C25.8707 19.3179 25.7005 19.1418 25.5045 18.9979C25.2396 18.8214 24.8688 18.839 24.4804 18.8655C24.1096 18.8832 23.73 18.9096 23.4563 18.7596C23.1826 18.6095 23.1473 18.3888 23.1031 18.1592C23.059 17.9297 23.0237 17.6736 22.7324 17.5147C22.5028 17.3911 22.2203 17.3647 21.9466 17.3382C21.567 17.3029 21.2139 17.2587 21.0903 16.9939C20.8431 16.4553 19.969 15.9698 19.9337 15.9521C19.9217 15.9465 19.9085 15.9437 19.8952 15.9439C19.882 15.9441 19.8689 15.9472 19.857 15.9532C19.8451 15.9591 19.8348 15.9677 19.8266 15.9782C19.8185 15.9887 19.8129 16.0009 19.8101 16.0139C19.7572 16.3317 19.457 17.0557 18.7242 17.5147C18.7079 17.5252 18.6955 17.5407 18.6889 17.5589C18.5035 18.0356 17.9297 18.9538 17.0821 18.9891H17.0645C16.5524 19.1215 15.6078 19.5629 15.7137 20.2869C15.7754 20.7068 15.9162 21.1113 16.1286 21.4787C15.9433 21.4964 15.6961 21.6112 15.4489 21.9466C15.3593 22.0704 15.262 22.1883 15.1575 22.2998C14.7602 22.7765 14.3541 23.2621 14.5925 23.9507C14.672 24.1802 14.7691 24.3921 14.8573 24.604C15.1045 25.1602 15.237 25.5045 15.0339 25.6105C14.9809 25.6369 14.8397 25.7076 15.0339 26.5286C15.3959 28.0471 16.8173 31.4726 19.6159 32.8498V35.1011C19.4744 34.96 19.3064 34.8484 19.1215 34.7726C18.9366 34.6969 18.7386 34.6585 18.5388 34.6596C18.4169 34.6613 18.2956 34.6761 18.1769 34.7038C17.938 34.773 17.7157 34.8902 17.5235 35.0481C17.241 35.2512 17.091 35.3483 16.8349 35.1982C16.7216 35.1345 16.6365 35.0305 16.5966 34.9068C16.5171 34.6685 16.3935 34.6067 15.7667 34.7038C15.493 34.7479 15.2635 34.7921 15.0869 34.8274C14.7691 34.8892 14.5395 34.9333 14.4689 34.8804C14.4552 34.8681 14.4441 34.8532 14.4365 34.8365C14.4289 34.8197 14.4249 34.8016 14.4248 34.7832C14.3983 34.536 14.204 34.1829 13.8862 33.971C13.7419 33.8794 13.5785 33.8223 13.4086 33.8039C13.2387 33.7855 13.0668 33.8065 12.9063 33.8651C12.3059 34.0593 11.8292 34.0681 11.6173 33.9004C11.5714 33.8646 11.5364 33.8167 11.5162 33.7621C11.4959 33.7076 11.4912 33.6485 11.5025 33.5914V33.5737C11.529 33.1941 11.5555 32.8321 11.3613 32.6203C11.2553 32.5055 11.1052 32.4525 10.8934 32.4525H10.6726C10.2047 32.4614 9.49846 32.4702 9.27775 32.2495C9.25719 32.2304 9.24101 32.2071 9.23034 32.1812C9.21967 32.1553 9.21476 32.1274 9.21595 32.0994C9.21115 31.9796 9.23859 31.8607 9.29541 31.7551C9.37486 31.605 9.41018 31.499 9.19829 31.1371C9.14419 31.0405 9.06798 30.9582 8.9759 30.8968C8.88382 30.8354 8.7785 30.7967 8.66858 30.7839C8.46553 30.7398 8.32427 30.7045 8.32427 30.2189C8.32427 29.7775 8.30662 29.6716 8.1477 29.6274C8.0859 29.6098 7.96231 29.5744 7.75042 29.0271C7.40611 28.1089 7.4326 27.8441 7.45908 27.6233C7.46979 27.568 7.47569 27.5119 7.47674 27.4556C7.47674 27.3144 7.30017 27.2349 7.00883 27.1113C6.44381 26.8729 5.59627 26.5021 5.59627 25.531C5.59627 25.0631 5.61393 24.7364 5.63159 24.4892C5.6669 23.9419 5.67573 23.7741 5.36673 23.5004C5.12836 23.2886 4.91648 22.494 4.93414 21.876C4.94296 21.5494 5.01359 21.3198 5.12836 21.2315C5.40205 21.0108 5.31376 20.7813 5.22548 20.5429C5.14602 20.3222 5.04008 20.0485 5.15485 19.6601C5.21772 19.4375 5.26201 19.2101 5.28728 18.9803C5.36673 18.4506 5.42853 18.0356 5.99355 17.709C6.57623 17.3735 6.46146 16.8703 6.35552 16.3847C6.29372 16.0934 6.22309 15.7844 6.27607 15.4842C6.35552 15.0604 6.691 14.9192 6.98234 14.7867C7.23837 14.672 7.47674 14.5749 7.47674 14.3012V14.2482C7.47674 13.8862 7.47674 13.1358 7.80339 12.818C7.85934 12.7643 7.92607 12.7232 7.99913 12.6973C8.07219 12.6715 8.14992 12.6614 8.22716 12.6679C8.78335 12.6944 8.95992 12.1735 9.10118 11.7497C9.21595 11.3966 9.30423 11.1847 9.47198 11.1847C9.9752 11.1847 10.4696 11.1317 10.5667 10.5049C10.5932 10.3637 10.7609 10.1871 11.0258 10.037C11.5114 9.77216 12.3059 9.59559 12.8886 9.85162C13.4713 10.1076 13.8156 9.79865 14.1776 9.47199C14.4424 9.23362 14.7426 8.96877 15.184 8.854C15.4819 8.78067 15.7867 8.73924 16.0933 8.7304C16.5789 8.70392 16.932 8.68626 17.2499 8.08592C17.4618 7.67981 17.7884 7.42379 18.1415 7.37964C18.2678 7.36065 18.3968 7.37329 18.517 7.41643C18.6372 7.45958 18.7448 7.53187 18.8302 7.62684C19.1568 7.97998 19.4835 7.7063 19.7748 7.4591C19.9514 7.30902 20.1368 7.15893 20.3133 7.13245C20.5275 7.10426 20.7446 7.10724 20.9578 7.14127C21.2243 7.18231 21.4957 7.17932 21.7612 7.13245C22.0614 7.07947 22.1408 7.00885 22.238 6.92939C22.3351 6.84993 22.4498 6.74399 22.9707 6.61157C23.8271 6.39085 24.0301 6.47914 24.1802 6.54977C24.2589 6.59196 24.347 6.61324 24.4362 6.61157C24.9748 6.61157 26.7317 6.68219 26.8729 7.5827C26.8772 7.60455 26.8896 7.62397 26.9076 7.63707C26.9256 7.65016 26.9479 7.65597 26.97 7.65333C28.0648 7.5827 29.2743 7.69747 29.3625 8.06826C29.4074 8.27724 29.431 8.4902 29.4332 8.70392C29.4508 9.11885 29.4597 9.50731 29.8834 9.54262C30.0865 9.56028 30.3602 9.47199 30.6868 9.37488C31.2254 9.20714 31.8345 9.02174 32.1082 9.31308C32.2621 9.47155 32.4242 9.62184 32.5938 9.76333C33.0705 10.1871 33.609 10.655 33.5296 11.0788C33.459 11.4496 33.6532 11.5643 33.8298 11.6791C34.0063 11.7939 34.2359 11.9263 34.3241 12.3589C34.4036 12.7209 34.1917 13.0475 34.024 13.3036C33.8827 13.5154 33.7591 13.7097 33.8298 13.8774C33.8916 14.0098 34.0681 14.0981 34.3948 14.1511C35.1629 14.2747 35.8868 14.4424 36.0545 14.8044C36.1252 14.9633 36.0898 15.1664 35.9398 15.4224C35.8109 15.6281 35.6694 15.8257 35.516 16.0139C35.3041 16.2699 35.154 16.4641 35.1893 16.6849C35.207 16.8526 35.3394 17.0203 35.6131 17.2234C35.8426 17.3911 36.0545 17.5236 36.2488 17.6383C36.7608 17.9473 36.9903 18.1062 36.8668 18.4859C36.8178 18.6396 36.7588 18.79 36.6902 18.9361C36.5754 19.1921 36.5136 19.3334 36.6637 19.6689C36.7579 19.8471 36.8735 20.0131 37.008 20.1633C37.1934 20.3752 37.3523 20.5606 37.3347 20.7901C37.2993 21.205 37.4406 23.3239 37.9085 24.092C38.1822 24.4628 38.1645 24.4892 38.0409 24.657Z" fill="#2D140F"/>
<path d="M28.2142 37.8908C26.9871 41.4222 23.9942 42.2256 21.5134 42.2256C20.8541 42.2224 20.196 42.1693 19.5447 42.0667C17.2493 41.7136 15.9603 39.2857 15.5542 37.9173C15.9868 37.935 16.4017 37.9526 16.7725 37.9615C17.5847 37.9968 18.1674 38.0233 18.4058 37.9791C19.165 37.8379 19.7566 37.061 19.8272 36.6902V32.9292C20.5736 33.2652 21.3835 33.4368 22.202 33.4325C22.9731 33.4345 23.7343 33.2593 24.4268 32.9204C24.4092 33.4236 24.4003 34.2182 24.4003 34.9686V35.1805C24.4003 35.7985 24.418 36.3635 24.4445 36.6725C24.5239 37.5554 25.8041 37.9085 26.2985 37.9791H26.3161C26.9783 37.9262 27.6139 37.8997 28.2142 37.8908Z" fill="#C06E3D"/>
<path d="M34.156 38.8706C33.7587 39.1796 32.2844 40.2831 29.8919 41.2101C29.7771 40.4155 30.2009 38.8176 30.4569 38.0054C32.2314 38.1819 33.5115 38.5704 34.156 38.8706Z" fill="#C06E3D"/>
<path d="M13.5154 37.9082C13.5007 38.8868 13.3247 39.8562 12.9945 40.7775C12.1515 40.4471 11.3263 40.0729 10.5225 39.6562C9.78973 39.2766 9.29534 38.9764 9.09229 38.844C9.11066 38.8264 9.13147 38.8115 9.15408 38.7999C10.1164 38.1554 11.8203 37.9523 13.5154 37.9082Z" fill="#C06E3D"/>
<path d="M29.7151 41.2631C29.7151 41.272 29.7239 41.272 29.7151 41.2631C29.4414 41.3956 28.5409 41.7664 26.9959 42.0754C25.654 42.349 23.8265 42.5874 21.5046 42.5874H21.3457C20.761 42.5768 20.1773 42.5326 19.5977 42.455H19.5712C16.7196 42.0842 13.7444 41.0689 13.144 40.8306C13.482 39.8897 13.661 38.8991 13.6738 37.8995C14.2476 37.8907 14.8126 37.8995 15.3512 37.9083C15.7484 39.3032 17.0815 41.8635 19.5005 42.2343C22.1403 42.6404 26.784 42.6139 28.3908 37.8818C29 37.8818 29.565 37.9083 30.0947 37.9525H30.1036C30.1565 37.9613 30.2095 37.9613 30.2625 37.9701C30.0064 38.8353 29.5915 40.4598 29.7151 41.2631Z" fill="#31D8BD"/>
<path d="M28.8855 25.7247C28.8061 25.5129 28.7178 25.3098 28.6383 25.1156C28.3382 24.4181 28.0821 23.809 28.4706 23.4293C28.6472 23.2528 28.4706 23.0232 28.1881 22.6966C27.9674 22.4405 27.7555 22.2022 27.8526 21.9726C27.8879 21.8932 27.932 21.7961 27.985 21.6901C28.1528 21.3458 28.4088 20.8338 28.3028 20.5424C28.2902 20.5021 28.2685 20.4653 28.2395 20.4347C28.2104 20.4041 28.1747 20.3805 28.1351 20.3659C27.8967 20.2511 27.729 20.3217 27.5436 20.41C27.3141 20.5159 27.0492 20.6307 26.6431 20.3659C26.3503 20.1761 26.0982 19.93 25.9015 19.6419C25.779 19.4562 25.6234 19.2946 25.4424 19.1652C25.2305 19.0239 24.8862 19.0416 24.5243 19.0592C24.1358 19.0769 23.7297 19.1034 23.403 18.9268C23.0499 18.7414 23.0058 18.4589 22.9616 18.2029C22.9263 17.9822 22.891 17.7968 22.6791 17.682C22.4849 17.5761 22.2112 17.5496 21.9552 17.5231C21.5491 17.4789 21.1165 17.4348 20.9575 17.0817C20.8075 16.755 20.3219 16.3842 19.9776 16.1812C19.798 16.7936 19.4029 17.3205 18.8652 17.6643C18.6533 18.1852 18.0353 19.1387 17.126 19.174C16.6669 19.2976 15.8282 19.6772 15.9165 20.2776C15.9738 20.7398 16.1468 21.1802 16.4197 21.5577C16.4326 21.574 16.4396 21.5943 16.4396 21.6151C16.4396 21.6359 16.4326 21.6561 16.4197 21.6725C16.4133 21.6812 16.4053 21.6885 16.3961 21.6941C16.3869 21.6997 16.3766 21.7034 16.366 21.7051C16.3553 21.7067 16.3444 21.7062 16.334 21.7037C16.3235 21.7011 16.3136 21.6965 16.3049 21.6901C16.2255 21.646 15.943 21.6195 15.6163 22.0697C15.528 22.1933 15.4221 22.3169 15.325 22.4405C14.9454 22.8996 14.5834 23.3234 14.7864 23.9149C14.864 24.1311 14.9524 24.3432 15.0513 24.5505C15.2985 25.1067 15.5104 25.5923 15.1572 25.7777C15.0689 25.9808 15.4044 27.5699 16.3667 29.265C16.9759 30.3332 18.1059 31.9223 19.8452 32.7434C19.907 32.7699 19.9599 32.7963 20.0217 32.8228L20.2071 32.9023C20.8425 33.152 21.5197 33.2778 22.2024 33.2731C22.9781 33.2736 23.7431 33.0922 24.436 32.7434C24.4625 32.7257 24.4978 32.7169 24.5243 32.6992C24.5518 32.681 24.5814 32.6662 24.6125 32.6551C25.7426 32.0371 26.6078 31.0748 27.2081 30.2008C28.5324 28.2673 29.0621 26.175 28.8855 25.7247ZM17.8234 21.7784C17.8059 21.796 17.7821 21.8058 17.7572 21.8058C17.7324 21.8058 17.7086 21.796 17.691 21.7784C17.6734 21.7608 17.6636 21.737 17.6636 21.7122C17.6636 21.6874 17.6734 21.6635 17.691 21.646C17.9823 21.3546 18.3796 21.2046 18.7504 21.1251C19.0609 21.0607 19.3788 21.0399 19.6951 21.0633C19.7078 21.0645 19.7202 21.0681 19.7316 21.0741C19.7429 21.08 19.753 21.0882 19.7612 21.098C19.7694 21.1078 19.7755 21.1192 19.7793 21.1314C19.7832 21.1436 19.7845 21.1565 19.7834 21.1692C19.7822 21.182 19.7785 21.1944 19.7726 21.2057C19.7666 21.2171 19.7585 21.2271 19.7487 21.2353C19.7388 21.2435 19.7275 21.2497 19.7153 21.2535C19.703 21.2573 19.6902 21.2587 19.6774 21.2575C19.3821 21.2347 19.085 21.2525 18.7946 21.3105C18.4414 21.3811 18.0795 21.5224 17.8234 21.7784ZM19.5273 24.63C19.2536 24.6388 19.0153 24.2504 19.0065 23.7648C18.9976 23.2792 19.2095 22.882 19.4832 22.882C19.7569 22.882 19.9952 23.2616 20.0041 23.7472C20.0129 24.2327 19.801 24.6212 19.5273 24.63ZM22.5996 26.0249C22.2288 25.4952 22.0788 24.577 22.0611 24.1621C22.061 24.1401 22.0691 24.1189 22.0838 24.1026C22.0985 24.0863 22.1187 24.076 22.1406 24.0738C22.1636 24.0732 22.186 24.081 22.2038 24.0955C22.2217 24.1101 22.2337 24.1306 22.2377 24.1533C22.2642 24.5505 22.3966 25.4334 22.7497 25.919C22.8112 25.9926 22.8538 26.0802 22.8738 26.174C22.8938 26.2679 22.8906 26.3652 22.8645 26.4575C22.7497 26.8371 22.273 27.0314 22.1847 27.0667C22.1759 27.0667 22.167 27.0755 22.1582 27.0755C22.1409 27.0769 22.1237 27.0725 22.1093 27.0629C22.0948 27.0532 22.0841 27.039 22.0788 27.0225C22.0746 27.0115 22.0726 26.9998 22.073 26.988C22.0734 26.9762 22.0761 26.9647 22.0811 26.954C22.086 26.9433 22.093 26.9337 22.1017 26.9257C22.1104 26.9178 22.1206 26.9117 22.1317 26.9078C22.3701 26.8195 22.6438 26.6252 22.7056 26.4134C22.7154 26.3448 22.711 26.275 22.6928 26.2082C22.6746 26.1414 22.6429 26.079 22.5996 26.0249ZM24.0299 28.4174C23.8978 28.7719 23.7001 29.0984 23.4472 29.3797C23.1647 29.6887 22.7939 29.9359 22.3436 29.9183C21.9139 29.8823 21.5063 29.7125 21.1783 29.4327C20.8693 29.1767 20.6397 28.8412 20.5779 28.5322C20.5751 28.5169 20.5769 28.5012 20.5833 28.487C20.5896 28.4728 20.6 28.4609 20.6132 28.4527C20.6247 28.4441 20.6386 28.4395 20.653 28.4395C20.6673 28.4395 20.6812 28.4441 20.6927 28.4527C21.0105 28.647 21.6197 28.7882 22.2642 28.7882C22.9086 28.7882 23.5443 28.6558 23.9063 28.3291C23.9175 28.3173 23.9326 28.31 23.9488 28.3083C23.965 28.3067 23.9812 28.311 23.9945 28.3203C24.009 28.3315 24.0199 28.3466 24.0262 28.3638C24.0324 28.381 24.0337 28.3996 24.0299 28.4174ZM25.3188 23.9237C25.2482 24.4005 24.9745 24.7536 24.7008 24.7183C24.4271 24.683 24.2682 24.2592 24.3389 23.7825C24.4095 23.3057 24.6832 22.9526 24.9568 22.9879C25.2305 23.0232 25.3894 23.447 25.3188 23.9237ZM26.6431 21.7343C26.6285 21.7546 26.6067 21.7687 26.5821 21.7736C26.5575 21.7786 26.532 21.7739 26.5107 21.7608C26.265 21.593 25.9977 21.4593 25.7161 21.3635C25.3747 21.2365 25.0043 21.209 24.6478 21.284C24.6236 21.2889 24.5984 21.2842 24.5776 21.2709C24.5568 21.2576 24.542 21.2367 24.5362 21.2126C24.5305 21.1886 24.5343 21.1633 24.5469 21.142C24.5595 21.1207 24.5799 21.1052 24.6037 21.0986C25.001 20.9927 25.4248 21.0633 25.7867 21.1781C26.0899 21.2736 26.376 21.4166 26.6343 21.6018C26.6526 21.6184 26.6638 21.6415 26.6655 21.6663C26.6671 21.691 26.6591 21.7154 26.6431 21.7343Z" fill="#C06E3D"/>
<path d="M25.3185 23.9236C25.2479 24.4003 24.9742 24.7535 24.7005 24.7182C24.4268 24.6829 24.2679 24.2591 24.3385 23.7823C24.4091 23.3056 24.6828 22.9525 24.9565 22.9878C25.2302 23.0231 25.3891 23.4469 25.3185 23.9236Z" fill="black"/>
<path d="M20.0042 23.7475C20.0131 24.2331 19.8012 24.6304 19.5275 24.6304C19.2538 24.6304 19.0154 24.2507 19.0066 23.7652C18.9978 23.2796 19.2097 22.8823 19.4834 22.8823C19.757 22.8823 19.9954 23.262 20.0042 23.7475Z" fill="black"/>
<path fill-rule="evenodd" clip-rule="evenodd" d="M19.7838 21.1612C19.7798 21.1862 19.7668 21.2089 19.7474 21.2251C19.7279 21.2413 19.7032 21.25 19.6779 21.2494C19.3826 21.2266 19.0855 21.2445 18.795 21.3024C18.434 21.3647 18.0976 21.5268 17.8239 21.7703C17.8064 21.7879 17.7825 21.7977 17.7577 21.7977C17.7329 21.7977 17.7091 21.7879 17.6915 21.7703C17.6739 21.7528 17.6641 21.7289 17.6641 21.7041C17.6641 21.6793 17.6739 21.6554 17.6915 21.6379C17.9828 21.3465 18.3801 21.1965 18.7509 21.117C19.0614 21.0526 19.3793 21.0318 19.6956 21.0552C19.7088 21.0549 19.7219 21.0577 19.734 21.0631C19.746 21.0686 19.7567 21.0768 19.7652 21.087C19.7736 21.0971 19.7797 21.1091 19.783 21.1219C19.7862 21.1348 19.7865 21.1482 19.7838 21.1612Z" fill="#2D140F"/>
<path fill-rule="evenodd" clip-rule="evenodd" d="M26.6431 21.7346C26.6285 21.7549 26.6067 21.769 26.5821 21.7739C26.5576 21.7789 26.532 21.7742 26.5107 21.7611C26.265 21.5933 25.9978 21.4596 25.7161 21.3638C25.3747 21.2368 25.0043 21.2093 24.6479 21.2843C24.6237 21.2892 24.5985 21.2845 24.5777 21.2712C24.5568 21.2579 24.542 21.237 24.5363 21.2129C24.5306 21.1889 24.5344 21.1636 24.547 21.1423C24.5596 21.121 24.5799 21.1055 24.6038 21.0989C25.001 20.993 25.4248 21.0636 25.7868 21.1784C26.0899 21.2739 26.376 21.4169 26.6343 21.6021C26.6527 21.6187 26.6639 21.6418 26.6655 21.6666C26.6672 21.6913 26.6592 21.7157 26.6431 21.7346Z" fill="#2D140F"/>
<path d="M22.8555 26.4579C22.7408 26.8376 22.264 27.0318 22.1757 27.0671C22.1669 27.0671 22.1581 27.0759 22.1493 27.0759C22.132 27.0774 22.1147 27.0729 22.1003 27.0633C22.0859 27.0537 22.0751 27.0395 22.0698 27.023C22.0656 27.012 22.0636 27.0002 22.064 26.9885C22.0644 26.9767 22.0672 26.9651 22.0721 26.9544C22.077 26.9437 22.0841 26.9341 22.0928 26.9262C22.1015 26.9182 22.1117 26.9121 22.1228 26.9082C22.3611 26.8199 22.6348 26.6257 22.6966 26.4138C22.7134 26.3467 22.7141 26.2765 22.6988 26.209C22.6834 26.1416 22.6525 26.0786 22.6083 26.0253C22.2375 25.4956 22.0875 24.5775 22.0698 24.1625C22.0697 24.1406 22.0778 24.1194 22.0925 24.103C22.1071 24.0867 22.1274 24.0764 22.1493 24.0742C22.1723 24.0737 22.1947 24.0814 22.2125 24.096C22.2304 24.1105 22.2424 24.131 22.2464 24.1537C22.2729 24.551 22.4053 25.4338 22.7584 25.9194C22.8135 25.9964 22.8507 26.0846 22.8675 26.1777C22.8843 26.2709 22.8802 26.3666 22.8555 26.4579Z" fill="black"/>
<path fill-rule="evenodd" clip-rule="evenodd" d="M23.783 28.6118C23.6662 28.8561 23.5145 29.0821 23.3327 29.2828C23.0679 29.5741 22.7324 29.786 22.3439 29.7683C21.947 29.7331 21.5708 29.5758 21.2669 29.3181C21.0478 29.1473 20.8773 28.922 20.7725 28.6648C21.1433 28.8325 21.6995 28.9385 22.2645 28.9385C22.8118 28.9473 23.3769 28.8502 23.783 28.6118Z" fill="#AE5646"/>
<path d="M38.1112 24.0037C37.6874 23.3151 37.5197 21.2757 37.5639 20.8078C37.5903 20.5076 37.3873 20.2693 37.1931 20.0486C37.0639 19.9163 36.9566 19.7643 36.8752 19.5983C36.7516 19.3335 36.7869 19.254 36.9017 19.0068C36.9714 18.8551 37.0304 18.6988 37.0783 18.5389C37.246 18.0092 36.8841 17.7885 36.3808 17.4883C36.1954 17.3735 35.9835 17.2411 35.7628 17.0822C35.5421 16.9233 35.4274 16.782 35.4097 16.6673C35.392 16.526 35.5245 16.3583 35.701 16.1287C35.8633 15.937 36.0108 15.7334 36.1425 15.5196C36.3279 15.2106 36.372 14.9545 36.2749 14.7338C36.0807 14.3189 35.4185 14.1335 34.4827 13.9834C34.1649 13.9304 34.0766 13.8598 34.0501 13.8157C34.0148 13.7362 34.1207 13.5773 34.2267 13.4095C34.4121 13.127 34.6504 12.7651 34.5533 12.3325C34.5248 12.165 34.4583 12.0062 34.3588 11.8685C34.2593 11.7307 34.1295 11.6176 33.9795 11.5379C33.8029 11.432 33.7058 11.379 33.7588 11.123C33.8559 10.6021 33.2732 10.09 32.7612 9.63979C32.5972 9.50134 32.441 9.35397 32.2932 9.19836C31.9489 8.81874 31.278 9.03062 30.6865 9.20719C30.3951 9.29548 30.1214 9.38376 29.9449 9.3661C29.7065 9.34845 29.6712 9.16305 29.6535 8.69514C29.6505 8.4698 29.6269 8.24521 29.5829 8.02418C29.424 7.3797 27.5435 7.4415 27.0844 7.46798C26.8549 6.53216 25.204 6.42622 24.4889 6.42622C24.4233 6.42639 24.359 6.40802 24.3035 6.37325C24.1694 6.30592 24.0209 6.27258 23.8709 6.27614C23.5684 6.28735 23.2687 6.33779 22.9792 6.42622C22.4142 6.56748 22.2817 6.69108 22.1758 6.77936C22.0964 6.84999 22.0434 6.89413 21.7874 6.93827C21.5359 6.97627 21.2804 6.97924 21.0281 6.9471C20.8 6.91283 20.5684 6.90986 20.3395 6.93827C20.1099 6.97359 19.9069 7.14133 19.7127 7.30907C19.3772 7.59158 19.2006 7.69752 19.0152 7.48564C18.9102 7.37135 18.779 7.28431 18.6329 7.23202C18.4868 7.17973 18.3302 7.16375 18.1765 7.18547C17.7616 7.23844 17.3908 7.52978 17.1524 7.98886C16.8875 8.50091 16.6227 8.50974 16.146 8.53623C15.8274 8.54197 15.5106 8.58343 15.2013 8.65983C14.7157 8.78342 14.3979 9.06594 14.1154 9.31313C13.7534 9.63979 13.4886 9.86933 13.0118 9.66627C12.3674 9.38376 11.5198 9.56916 10.999 9.8605C10.6723 10.0371 10.4781 10.249 10.4428 10.4608C10.3721 10.9111 10.0896 10.9905 9.5246 10.9905C9.2156 10.9905 9.10083 11.3349 8.98606 11.6792C8.85363 12.0764 8.71238 12.4914 8.28861 12.4737C8.1875 12.4658 8.08585 12.479 7.99011 12.5124C7.89436 12.5458 7.80661 12.5988 7.73242 12.668C7.35279 13.0388 7.35279 13.8068 7.35279 14.2218V14.2836C7.35279 14.4337 7.21153 14.4955 6.96434 14.6102C6.64651 14.7426 6.24923 14.9192 6.15212 15.4313C6.09032 15.7668 6.16095 16.1022 6.23157 16.4024C6.33752 16.888 6.4258 17.2676 5.95789 17.5413C5.31341 17.9121 5.24278 18.3888 5.16333 18.945C5.13368 19.1684 5.08945 19.3896 5.0309 19.6071C4.9073 20.0486 5.02207 20.3664 5.10153 20.5959C5.18981 20.8431 5.22513 20.9491 5.05739 21.0815C4.85433 21.2404 4.81019 21.5935 4.80136 21.8584C4.7837 22.4676 4.98676 23.3416 5.29575 23.6153C5.54295 23.836 5.53412 23.9331 5.49881 24.4628C5.48115 24.71 5.4635 25.0455 5.4635 25.5134C5.4635 26.6081 6.41697 27.0142 6.99082 27.2526C7.14091 27.3144 7.33513 27.4027 7.35279 27.438C7.35279 27.4821 7.34396 27.5351 7.34396 27.5881C7.31748 27.8265 7.28216 28.1178 7.64413 29.0713C7.86484 29.6539 8.01493 29.7422 8.15618 29.7775H8.17384C8.20033 29.8217 8.20032 30.1042 8.20032 30.1925C8.20032 30.784 8.40338 30.8723 8.68589 30.9341C8.83598 30.9694 8.98606 31.0047 9.092 31.1989C9.25974 31.4903 9.23326 31.5432 9.18029 31.6492C9.11154 31.7796 9.07807 31.9256 9.08317 32.073C9.08216 32.1254 9.0918 32.1774 9.11153 32.226C9.13126 32.2746 9.16066 32.3186 9.19794 32.3555C9.47163 32.6203 10.1602 32.6203 10.7164 32.6115H10.9372C11.0961 32.6115 11.2108 32.6468 11.2815 32.7263C11.4227 32.8763 11.3962 33.203 11.3786 33.5473V33.565C11.3676 33.651 11.3788 33.7383 11.4113 33.8187C11.4437 33.8991 11.4963 33.9698 11.564 34.024C11.8288 34.2271 12.3585 34.2271 13.0207 34.0152C13.1564 33.9646 13.302 33.9462 13.446 33.9615C13.59 33.9768 13.7285 34.0254 13.8506 34.1035C14.0866 34.2614 14.2514 34.5054 14.3096 34.7833C14.3092 34.8267 14.3195 34.8695 14.3395 34.908C14.3595 34.9464 14.3887 34.9794 14.4244 35.004C14.5568 35.1011 14.7775 35.057 15.1837 34.9775C15.3691 34.9422 15.5898 34.8981 15.8634 34.8539C16.4373 34.7656 16.455 34.8186 16.4991 34.9422C16.5501 35.1057 16.6603 35.2442 16.8081 35.3307C17.1701 35.5514 17.4261 35.3748 17.6909 35.1717C17.8654 35.0281 18.0664 34.9201 18.2824 34.8539C18.8828 34.7038 19.4566 35.0128 19.6332 35.2953C19.6486 35.3178 19.6664 35.3385 19.6862 35.3571V36.6461C19.6155 36.9728 19.0682 37.6614 18.406 37.7938C18.1853 37.8379 17.585 37.8115 16.8169 37.7761C16.4285 37.7585 15.9959 37.7408 15.5456 37.7232C15.5373 37.7096 15.5256 37.6984 15.5117 37.6907C15.4978 37.683 15.4821 37.679 15.4662 37.679H13.6475C13.6337 37.6783 13.6199 37.6812 13.6075 37.6874C13.5952 37.6936 13.5846 37.7029 13.5769 37.7143C11.8112 37.7585 10.0278 37.9704 9.03903 38.6767C8.99916 38.7039 8.96084 38.7334 8.92426 38.7649C8.91279 38.7727 8.90351 38.7832 8.89733 38.7956C8.89114 38.808 8.88825 38.8218 8.88895 38.8356C8.89144 38.8627 8.90404 38.8879 8.92426 38.9062C8.97723 38.9415 13.4091 41.9079 19.6332 42.6142C20.2129 42.6917 20.7965 42.7359 21.3812 42.7466H21.3901C21.6814 42.7554 21.9728 42.7642 22.2641 42.7642C23.8682 42.7694 25.4676 42.5917 27.0315 42.2345C27.0403 42.2345 27.058 42.2257 27.0668 42.2257C28.7795 41.8726 29.7153 41.4576 29.8742 41.3782C29.8831 41.3782 29.8831 41.3693 29.8919 41.3693C31.2614 40.8534 32.5652 40.1778 33.7764 39.3564C33.9911 39.2123 34.1975 39.0561 34.3944 38.8885C34.4072 38.8803 34.4168 38.8679 34.4216 38.8535C34.4264 38.839 34.4262 38.8234 34.4209 38.8091C34.4199 38.7946 34.4154 38.7806 34.4077 38.7682C34.4 38.7559 34.3894 38.7457 34.3768 38.7385C33.7411 38.4206 32.2932 37.9527 30.2362 37.7673H30.2097C29.5564 37.6967 28.444 37.6702 28.3646 37.6702C28.3458 37.672 28.3277 37.6781 28.3116 37.6879C27.6483 37.6867 26.9853 37.7191 26.3252 37.785C26.1928 37.7673 24.7184 37.5201 24.639 36.6461C24.6125 36.3548 24.5948 35.8251 24.5948 35.2424C25.1245 35.4101 25.8661 35.1894 26.2634 35.0128C26.352 34.9702 26.435 34.9168 26.5106 34.8539C26.696 34.7127 26.8108 34.6244 27.7554 35.0128C28.9384 35.4896 29.062 35.4189 29.6447 34.6862C29.6977 34.6156 29.7595 34.5449 29.8213 34.4655C30.3775 33.7945 31.1897 34.183 31.6223 34.3948C31.6956 34.4344 31.7724 34.4669 31.8518 34.492C32.1961 34.5891 33.388 33.6091 33.7499 32.8145C33.7676 32.7969 33.8206 32.7704 33.8735 32.7351C34.2443 32.5055 35.0036 32.02 35.0036 31.5609C35.0036 31.0753 35.1095 30.8988 35.5156 30.6781C35.6242 30.6211 35.7363 30.571 35.8511 30.528C36.1954 30.3867 36.5927 30.219 36.8752 29.6804C37.0518 29.345 37.0253 29.2125 36.9723 29.036C36.9282 28.8947 36.8752 28.7446 37.0783 28.2679C37.3167 27.694 37.4314 27.6499 37.4667 27.6411C37.555 27.6057 37.5639 27.5528 37.5639 27.438C37.5639 27.1643 37.5638 26.6434 37.8464 25.531C37.9055 25.2439 38.026 24.9728 38.1995 24.7365C38.3584 24.5246 38.3672 24.4275 38.1112 24.0037ZM10.5222 39.6566C9.78945 39.277 9.29506 38.9768 9.092 38.8444C9.11037 38.8268 9.13119 38.8119 9.1538 38.8003C10.1161 38.1558 11.82 37.9527 13.5151 37.9086C13.5004 38.8871 13.3244 39.8566 12.9942 40.7778C12.1512 40.4475 11.3261 40.0733 10.5222 39.6566ZM34.1561 38.8709C33.7588 39.1799 32.2844 40.2834 29.8919 41.2104C29.7771 40.4159 30.2009 38.8179 30.4569 38.0057C32.2314 38.1823 33.5116 38.5707 34.1561 38.8709ZM28.3999 37.8909C29.0091 37.8909 29.5741 37.9174 30.1038 37.9615H30.1126C30.1656 37.9704 30.2186 37.9704 30.2715 37.9792C29.9978 38.8356 29.5829 40.46 29.7153 41.2634V41.2722C29.4416 41.3958 28.5411 41.7666 26.9962 42.0756C25.6542 42.3493 23.8267 42.5877 21.5048 42.5877H21.3459C20.7612 42.577 20.1776 42.5328 19.5979 42.4552H19.5714C16.7198 42.0844 13.7446 41.0692 13.1443 40.8308C13.4822 39.8899 13.6612 38.8994 13.674 37.8997C14.2478 37.8909 14.8129 37.8997 15.3514 37.9086C15.7487 39.3035 17.0818 41.8637 19.5008 42.2345C22.1493 42.6495 26.7931 42.6142 28.3999 37.8909ZM26.2899 37.988H26.3075C26.9785 37.9262 27.6142 37.8997 28.2145 37.8909C26.9873 41.4223 23.9945 42.2257 21.5137 42.2257C20.8544 42.2225 20.1962 42.1693 19.5449 42.0668C17.2495 41.7137 15.9606 39.2858 15.5544 37.9174C15.987 37.9351 16.402 37.9527 16.7728 37.9615C17.585 37.9969 18.1677 38.0233 18.406 37.9792C19.1653 37.8379 19.7568 37.061 19.8274 36.6902V32.9293C20.5739 33.2653 21.3838 33.4369 22.2023 33.4325C22.9733 33.4345 23.7345 33.2594 24.4271 32.9205C24.4094 33.4237 24.4006 34.2183 24.4006 34.9687V35.1806C24.4006 35.7986 24.4182 36.3636 24.4447 36.6726C24.5242 37.5643 25.8043 37.9262 26.2899 37.988ZM15.0424 24.5334C14.9541 24.3304 14.857 24.1097 14.7775 23.8978C14.5745 23.3063 14.9365 22.8737 15.3161 22.4234C15.4132 22.2998 15.5191 22.1851 15.6074 22.0526C15.9341 21.6112 16.2166 21.6289 16.296 21.673C16.3149 21.6812 16.3357 21.6839 16.356 21.6808C16.3763 21.6777 16.3953 21.6689 16.4108 21.6553C16.4237 21.639 16.4307 21.6188 16.4307 21.598C16.4307 21.5771 16.4237 21.5569 16.4108 21.5406C16.2784 21.3817 16.0047 20.9049 15.9076 20.2604C15.8193 19.6601 16.658 19.2805 17.1171 19.1569C18.0264 19.1127 18.6444 18.1681 18.8563 17.6472C19.3914 17.3005 19.7857 16.7748 19.9687 16.164C20.313 16.3671 20.7986 16.7379 20.9486 17.0645C21.1164 17.4177 21.5402 17.4618 21.9463 17.506C22.2023 17.5324 22.476 17.5589 22.6702 17.6649C22.8821 17.7796 22.9174 17.965 22.9527 18.1858C22.9969 18.4418 23.041 18.7243 23.3941 18.9097C23.7208 19.0863 24.1269 19.0598 24.5154 19.0421C24.8773 19.0245 25.2216 19.0068 25.4335 19.1481C25.6146 19.2773 25.7702 19.439 25.8926 19.6248C26.0894 19.9129 26.3414 20.159 26.6342 20.3487C27.0403 20.6136 27.3052 20.4988 27.5347 20.3929C27.7201 20.3134 27.879 20.2428 28.1262 20.3487C28.165 20.3647 28.2 20.3887 28.2289 20.4191C28.2578 20.4496 28.28 20.4857 28.2939 20.5253C28.3999 20.8166 28.1439 21.3287 27.9761 21.673C27.9231 21.7878 27.8702 21.8849 27.8437 21.9555C27.7554 22.1851 27.9585 22.4234 28.1792 22.6795C28.4617 23.0061 28.6383 23.2356 28.4617 23.4122C28.0732 23.8007 28.3381 24.401 28.6294 25.0985C28.7177 25.2927 28.7972 25.4957 28.8766 25.7076C29.0444 26.1579 28.5235 28.2502 27.1904 30.166C26.59 31.0312 25.7249 32.0023 24.5948 32.6203C24.5673 32.6385 24.5376 32.6533 24.5065 32.6645C24.48 32.6821 24.4447 32.6909 24.4182 32.7086C23.7254 33.0574 22.9603 33.2388 22.1846 33.2383C21.5024 33.2387 20.8259 33.113 20.1894 32.8675L20.004 32.7881C19.9422 32.7616 19.8892 32.7351 19.8274 32.7086C18.0882 31.8876 16.9582 30.2984 16.349 29.2302C15.3867 27.5263 15.0512 25.9372 15.1395 25.7429C15.5015 25.5752 15.2896 25.0985 15.0424 24.5334ZM38.0406 24.657C37.8569 24.9136 37.7277 25.205 37.661 25.5134C37.3784 26.6434 37.3784 27.1731 37.3784 27.4557V27.4998C37.299 27.5351 37.1577 27.6146 36.9017 28.2237C36.681 28.7623 36.7428 28.9565 36.7869 29.1154C36.8223 29.239 36.8576 29.3273 36.6987 29.6186C36.4426 30.1042 36.1071 30.2366 35.754 30.3867C35.636 30.4323 35.521 30.4854 35.4097 30.5456C34.9418 30.8017 34.8005 31.04 34.8005 31.5874C34.8005 31.9494 34.0325 32.4261 33.7499 32.6115C33.6087 32.6998 33.5645 32.7263 33.5645 32.7704C33.1849 33.5826 32.0637 34.4125 31.8695 34.3507C31.7989 34.3284 31.7309 34.2988 31.6664 34.2624C31.225 34.0505 30.2892 33.6003 29.6535 34.3772C29.5917 34.4566 29.5299 34.5273 29.477 34.5979C28.9384 35.2689 28.8943 35.3218 27.7907 34.8716C26.8019 34.4743 26.6254 34.5538 26.3693 34.7392C26.3026 34.7892 26.2317 34.8335 26.1575 34.8716C25.8485 35.0128 25.0539 35.2689 24.5595 35.0746C24.5595 34.2448 24.5683 33.3443 24.586 32.8322C25.7867 32.2054 26.7048 31.1901 27.3316 30.2808C28.6294 28.4091 29.2474 26.2197 29.0355 25.6546C28.9561 25.4428 28.8678 25.2309 28.7795 25.0367C28.497 24.3657 28.2675 23.8448 28.5676 23.5446C28.8678 23.2445 28.55 22.8737 28.2939 22.5735C28.1174 22.3705 27.932 22.1586 27.9849 22.035C28.0114 21.9643 28.0556 21.8672 28.1085 21.7613C28.3028 21.3728 28.5588 20.8343 28.4352 20.4812C28.4127 20.4185 28.3775 20.3611 28.332 20.3125C28.2864 20.2639 28.2314 20.2252 28.1703 20.1986C27.8525 20.0486 27.6318 20.1545 27.4376 20.234C27.2169 20.3311 27.0315 20.4105 26.7048 20.1986C26.429 20.0212 26.1918 19.79 26.0074 19.5189C25.8703 19.318 25.7002 19.1418 25.5041 18.998C25.2393 18.8214 24.8685 18.8391 24.48 18.8655C24.1092 18.8832 23.7296 18.9097 23.4559 18.7596C23.1823 18.6095 23.1469 18.3888 23.1028 18.1593C23.0587 17.9297 23.0233 17.6737 22.732 17.5148C22.5025 17.3912 22.2199 17.3647 21.9463 17.3382C21.5666 17.3029 21.2135 17.2588 21.0899 16.9939C20.8427 16.4554 19.9687 15.9698 19.9334 15.9521C19.9213 15.9465 19.9082 15.9437 19.8949 15.9439C19.8816 15.9441 19.8686 15.9473 19.8567 15.9532C19.8448 15.9592 19.8344 15.9677 19.8263 15.9782C19.8182 15.9887 19.8125 16.001 19.8098 16.0139C19.7568 16.3318 19.4566 17.0557 18.7239 17.5148C18.7076 17.5252 18.6952 17.5407 18.6886 17.5589C18.5032 18.0357 17.9293 18.9538 17.0818 18.9891H17.0641C16.5521 19.1216 15.6074 19.563 15.7134 20.2869C15.775 20.7069 15.9158 21.1113 16.1283 21.4788C15.9429 21.4964 15.6957 21.6112 15.4485 21.9467C15.3589 22.0704 15.2616 22.1884 15.1572 22.2998C14.7599 22.7766 14.3538 23.2621 14.5921 23.9508C14.6716 24.1803 14.7687 24.3922 14.857 24.6041C15.1042 25.1603 15.2366 25.5046 15.0336 25.6105C14.9806 25.637 14.8393 25.7076 15.0336 26.5287C15.3955 28.0472 16.8169 31.4726 19.6155 32.8499V35.1011C19.474 34.9601 19.306 34.8485 19.1212 34.7727C18.9363 34.6969 18.7383 34.6585 18.5385 34.6597C18.4166 34.6613 18.2952 34.6761 18.1765 34.7038C17.9376 34.7731 17.7153 34.8902 17.5232 35.0482C17.2407 35.2512 17.0906 35.3483 16.8346 35.1982C16.7213 35.1346 16.6362 35.0305 16.5962 34.9069C16.5168 34.6685 16.3932 34.6067 15.7663 34.7038C15.4926 34.748 15.2631 34.7921 15.0865 34.8274C14.7687 34.8892 14.5392 34.9334 14.4685 34.8804C14.4548 34.8682 14.4438 34.8533 14.4362 34.8365C14.4286 34.8198 14.4246 34.8017 14.4244 34.7833C14.3979 34.5361 14.2037 34.183 13.8859 33.9711C13.7416 33.8795 13.5781 33.8223 13.4082 33.8039C13.2383 33.7856 13.0664 33.8065 12.9059 33.8651C12.3056 34.0594 11.8288 34.0682 11.6169 33.9004C11.5711 33.8646 11.5361 33.8168 11.5158 33.7622C11.4955 33.7076 11.4908 33.6485 11.5022 33.5915V33.5738C11.5287 33.1942 11.5551 32.8322 11.3609 32.6203C11.255 32.5055 11.1049 32.4526 10.893 32.4526H10.6723C10.2044 32.4614 9.49811 32.4702 9.2774 32.2495C9.25684 32.2305 9.24066 32.2072 9.22999 32.1813C9.21932 32.1554 9.21441 32.1274 9.2156 32.0994C9.2108 31.9796 9.23824 31.8607 9.29506 31.7551C9.37451 31.605 9.40983 31.4991 9.19794 31.1371C9.14384 31.0406 9.06763 30.9583 8.97555 30.8969C8.88347 30.8355 8.77815 30.7968 8.66823 30.784C8.46518 30.7399 8.32392 30.7045 8.32392 30.219C8.32392 29.7775 8.30627 29.6716 8.14735 29.6275C8.08555 29.6098 7.96196 29.5745 7.75007 29.0271C7.40576 28.109 7.43225 27.8441 7.45873 27.6234C7.46944 27.5681 7.47534 27.512 7.47639 27.4557C7.47639 27.3144 7.29982 27.2349 7.00848 27.1113C6.44346 26.873 5.59592 26.5022 5.59592 25.531C5.59592 25.0631 5.61358 24.7365 5.63124 24.4893C5.66655 23.9419 5.67538 23.7742 5.36638 23.5005C5.12801 23.2886 4.91613 22.4941 4.93379 21.8761C4.94262 21.5494 5.01324 21.3199 5.12801 21.2316C5.4017 21.0109 5.31341 20.7813 5.22513 20.543C5.14567 20.3222 5.03973 20.0486 5.1545 19.6601C5.21737 19.4376 5.26166 19.2102 5.28693 18.9803C5.36638 18.4506 5.42818 18.0357 5.9932 17.709C6.57588 17.3735 6.46111 16.8703 6.35517 16.3847C6.29337 16.0934 6.22275 15.7844 6.27572 15.4842C6.35517 15.0605 6.69065 14.9192 6.98199 14.7868C7.23802 14.672 7.47639 14.5749 7.47639 14.3012V14.2483C7.47639 13.8863 7.47639 13.1359 7.80304 12.818C7.85899 12.7644 7.92572 12.7233 7.99878 12.6974C8.07184 12.6715 8.14957 12.6615 8.22681 12.668C8.783 12.6944 8.95957 12.1736 9.10083 11.7498C9.2156 11.3967 9.30388 11.1848 9.47163 11.1848C9.97485 11.1848 10.4692 11.1318 10.5664 10.505C10.5928 10.3637 10.7606 10.1872 11.0254 10.0371C11.511 9.77221 12.3056 9.59564 12.8882 9.85167C13.4709 10.1077 13.8152 9.7987 14.1772 9.47205C14.4421 9.23368 14.7422 8.96882 15.1837 8.85405C15.4815 8.78073 15.7863 8.7393 16.093 8.73045C16.5786 8.70397 16.9317 8.68631 17.2495 8.08598C17.4614 7.67987 17.7881 7.42384 18.1412 7.3797C18.2675 7.3607 18.3965 7.37334 18.5167 7.41649C18.6369 7.45963 18.7444 7.53193 18.8298 7.62689C19.1565 7.98003 19.4831 7.70635 19.7745 7.45915C19.951 7.30907 20.1364 7.15898 20.313 7.1325C20.5271 7.10432 20.7442 7.10729 20.9575 7.14133C21.224 7.18236 21.4954 7.17938 21.7609 7.1325C22.061 7.07953 22.1405 7.0089 22.2376 6.92944C22.3347 6.84999 22.4495 6.74405 22.9704 6.61162C23.8267 6.39091 24.0298 6.47919 24.1799 6.54982C24.2585 6.59201 24.3467 6.61329 24.4359 6.61162C24.9744 6.61162 26.7313 6.68225 26.8726 7.58275C26.8769 7.6046 26.8892 7.62402 26.9073 7.63712C26.9253 7.65022 26.9476 7.65602 26.9697 7.65338C28.0644 7.58275 29.2739 7.69752 29.3622 8.06832C29.407 8.2773 29.4307 8.49025 29.4328 8.70397C29.4505 9.11891 29.4593 9.50736 29.8831 9.54267C30.0861 9.56033 30.3598 9.47205 30.6865 9.37493C31.225 9.20719 31.8342 9.02179 32.1078 9.31313C32.2617 9.4716 32.4238 9.62189 32.5934 9.76339C33.0702 10.1872 33.6087 10.6551 33.5292 11.0788C33.4586 11.4496 33.6528 11.5644 33.8294 11.6792C34.006 11.7939 34.2355 11.9264 34.3238 12.359C34.4033 12.7209 34.1914 13.0476 34.0236 13.3036C33.8824 13.5155 33.7588 13.7097 33.8294 13.8775C33.8912 14.0099 34.0678 14.0982 34.3944 14.1511C35.1625 14.2747 35.8864 14.4425 36.0542 14.8044C36.1248 14.9634 36.0895 15.1664 35.9394 15.4224C35.8105 15.6282 35.669 15.8257 35.5156 16.0139C35.3038 16.27 35.1537 16.4642 35.189 16.6849C35.2066 16.8527 35.3391 17.0204 35.6128 17.2235C35.8423 17.3912 36.0542 17.5236 36.2484 17.6384C36.7605 17.9474 36.99 18.1063 36.8664 18.4859C36.8174 18.6397 36.7584 18.7901 36.6898 18.9362C36.5751 19.1922 36.5133 19.3335 36.6633 19.6689C36.7575 19.8472 36.8732 20.0132 37.0077 20.1633C37.1931 20.3752 37.352 20.5606 37.3343 20.7902C37.299 21.2051 37.4403 23.3239 37.9082 24.092C38.1818 24.4628 38.1642 24.4893 38.0406 24.657Z" fill="black"/>
<path d="M24.0035 28.3295C23.9902 28.32 23.9739 28.3156 23.9577 28.3172C23.9414 28.3189 23.9263 28.3264 23.9152 28.3383C23.5532 28.6561 22.9176 28.7974 22.2731 28.7974C21.6286 28.7974 21.0194 28.6561 20.7016 28.4619C20.6901 28.4533 20.6762 28.4487 20.6619 28.4487C20.6476 28.4487 20.6336 28.4533 20.6222 28.4619C20.6099 28.471 20.6002 28.4831 20.594 28.497C20.5878 28.5109 20.5854 28.5262 20.5868 28.5414C20.6486 28.8504 20.8693 29.1859 21.1872 29.4419C21.5143 29.7232 21.9224 29.8932 22.3525 29.9274C22.8028 29.9539 23.1736 29.7067 23.4561 29.3889C23.7072 29.1062 23.9047 28.7801 24.0388 28.4266C24.0397 28.4089 24.037 28.3911 24.031 28.3745C24.0249 28.3578 24.0156 28.3425 24.0035 28.3295ZM22.3525 29.7685C21.9556 29.7333 21.5794 29.576 21.2755 29.3183C21.0564 29.1475 20.8859 28.9222 20.7811 28.665C21.1519 28.8327 21.7081 28.9387 22.2731 28.9387C22.8204 28.9387 23.3855 28.8415 23.7916 28.6032C23.6748 28.8475 23.5231 29.0735 23.3413 29.2741C23.0676 29.5743 22.741 29.7862 22.3525 29.7685Z" fill="black"/>
</g>
</g>
<rect x="-1.14414" y="-3.13047" width="46.128" height="46.128" rx="23.064" stroke="#D4D4D4" stroke-width="0.661333"/>
</g>
</g>
<rect x="1.25317" y="0.920163" width="42.16" height="42.16" rx="21.08" stroke="#6A7294" stroke-width="0.826667"/>
<defs>
<clipPath id="clip0_87_416">
<rect x="1.6665" y="1.3335" width="41.3333" height="41.3333" rx="20.6667" fill="white"/>
</clipPath>
<clipPath id="clip1_87_416">
<rect x="1.6665" y="1.3335" width="41.3333" height="41.3333" rx="20.6667" fill="white"/>
</clipPath>
<clipPath id="clip2_87_416">
<rect x="-0.813477" y="-2.7998" width="45.4667" height="45.4667" rx="22.7333" fill="white"/>
</clipPath>
<clipPath id="clip3_87_416">
<rect width="45.4667" height="45.5638" fill="white" transform="translate(-0.813477 -2.7998)"/>
</clipPath>
</defs>
</svg>
