<svg width="42" height="43" viewBox="0 0 42 43" fill="none" xmlns="http://www.w3.org/2000/svg">
<g clip-path="url(#clip0_323_430)">
<path d="M41.0311 21.6825C41.0311 28.7427 37.3728 34.9175 31.8427 38.4592C31.9204 38.3893 31.9903 38.3194 32.0524 38.2573C32.0656 38.2442 32.0736 38.2268 32.075 38.2082C32.0765 38.1897 32.0712 38.1713 32.0602 38.1563C31.2524 37.1 29.3417 34.9951 27.7806 34.5447C27.7883 34.5369 27.7883 34.5291 27.7961 34.5214C27.8028 34.5111 27.807 34.4995 27.8084 34.4873C27.8097 34.4752 27.8082 34.4629 27.8039 34.4515C27.7989 34.4401 27.7914 34.43 27.782 34.4219C27.7726 34.4139 27.7615 34.408 27.7495 34.4049C27.2136 34.2884 26.134 33.8689 25.7845 33.1388C25.7881 33.125 25.7879 33.1104 25.7838 33.0967C25.7796 33.083 25.7718 33.0707 25.7612 33.0612C25.4344 32.7281 25.084 32.4192 24.7126 32.1369C24.529 31.9975 24.3279 31.8826 24.1146 31.7951C24.0337 31.7571 23.946 31.7355 23.8567 31.7315C23.7674 31.7275 23.6782 31.7412 23.5942 31.7718H23.532V30.5291C24.9922 29.7835 25.9553 28.4476 26.5223 27.2204C27.532 26.9641 27.7184 25.9932 27.6796 25.4107C28.1689 25.1311 28.6583 24.6418 28.6583 23.8884C28.662 23.6578 28.6095 23.4298 28.5053 23.2241C28.4011 23.0184 28.2483 22.8411 28.0602 22.7078C28.9767 21.7058 28.4718 20.2301 28.068 19.5699C27.9437 16.0437 25.365 14.032 23.9204 13.4107C24.1845 13.1311 25.0078 12.2223 24.8913 11.7563C24.7981 11.3835 24.4718 11.2825 24.2311 11.2825C24.2621 11.0107 24.0602 10.4437 23.6485 9.66699C23.0194 8.47864 21.8311 8.58738 21.2175 8.83592C21.101 8.55631 20.5806 8.1835 19.1748 8.1835C18.5845 8.1835 18.1107 8.36214 17.7767 8.71942C17.3961 9.1233 17.2718 9.68253 17.2796 10.1019C16.7903 10.1408 15.9359 10.5136 15.6951 11.7485C15.65 11.949 15.6468 12.1566 15.6855 12.3584C15.7243 12.5602 15.8042 12.7519 15.9204 12.9214C16.2155 13.3485 16.7204 13.6126 17.1398 13.7369C14.1107 15.3524 13.5359 18.0709 13.6602 19.3524C13.3728 19.6165 12.8835 20.2845 12.8835 21.1C12.8835 21.9155 13.3728 22.7 13.6602 23.0418C13.5501 23.3101 13.4972 23.5984 13.5049 23.8884C13.5049 24.6495 13.8155 25.1155 14.1883 25.3718C14.1029 26.599 15.1359 27.3058 15.734 27.5233C16.3087 28.6651 17.2252 29.8456 18.5612 30.5214V31.7641C18.0718 31.7019 17.1553 31.9971 16.9301 33.1V33.1388C16.2732 33.7221 15.4964 34.1543 14.6544 34.4049C14.6424 34.408 14.6313 34.4139 14.6219 34.4219C14.6124 34.43 14.605 34.4401 14.6 34.4515C14.5957 34.4629 14.5942 34.4752 14.5955 34.4873C14.5969 34.4995 14.6011 34.5111 14.6078 34.5214C14.6155 34.5291 14.6155 34.5369 14.6233 34.5447C13.4816 34.8942 11.1437 36.0592 10.0175 38.1641C10.0096 38.1811 10.0077 38.2003 10.0119 38.2185C10.0161 38.2368 10.0263 38.2532 10.0408 38.2651C11.6175 39.5078 15.5165 41.201 19.8738 41.5893C9.34175 41.0146 1 32.3621 1 21.6825C1.00777 10.6301 9.97087 1.66699 21.0233 1.66699C32.0757 1.66699 41.0311 10.6301 41.0311 21.6825Z" fill="#363A4D"/>
<path d="M20.8218 26.8554C21.1272 26.8734 21.4336 26.8682 21.7383 26.8398C21.4334 26.8643 21.1273 26.8695 20.8218 26.8554Z" fill="#F2F2F2"/>
<path d="M23.377 30.5991V31.935C23.0423 32.3496 22.659 32.7225 22.2353 33.0457C22.1978 33.0697 22.1615 33.0956 22.1266 33.1233C22.0877 33.1466 22.0489 33.1777 22.01 33.201C21.7227 33.3797 21.412 33.5039 21.1168 33.5117H21.1246C21.4198 33.5039 21.7304 33.3797 22.0178 33.201C22.0566 33.1777 22.0955 33.1466 22.1343 33.1233C22.1719 33.0993 22.2081 33.0734 22.2431 33.0457C22.6686 32.7247 23.0522 32.3515 23.3848 31.935V30.5913C23.3848 30.5934 23.384 30.5953 23.3825 30.5968C23.3811 30.5983 23.3791 30.5991 23.377 30.5991ZM18.7246 30.5991C19.2307 30.8432 19.7742 31.0007 20.3324 31.0651C19.7757 30.9934 19.2334 30.8362 18.7246 30.5991Z" fill="black"/>
<path d="M31.8973 38.1874C31.571 38.5214 31.074 38.902 30.4293 39.2826C29.1477 40.0437 27.2914 40.8049 25.039 41.2166H25.0312C23.9289 41.4138 22.8113 41.5126 21.6914 41.5117C16.7206 41.5117 12.0138 39.57 10.1963 38.1719C11.3225 36.1214 13.6371 34.9952 14.7244 34.6768C15.7575 36.0826 18.2584 38.467 21.1788 38.5603H21.3419C24.34 38.5603 26.7322 36.1059 27.6798 34.6768H27.6876C29.2021 35.0884 31.074 37.1234 31.8973 38.1874Z" fill="#31D8BD"/>
<path d="M27.5865 34.5216C27.0273 34.374 26.0797 33.9702 25.6914 33.2944C25.5475 33.4944 25.3835 33.6792 25.2021 33.8459C24.9768 34.0634 24.705 34.2886 24.4098 34.5294C24.3777 34.5571 24.3439 34.5831 24.3089 34.6071C24.2738 34.631 24.2401 34.657 24.2079 34.6847L24.1924 34.7003C23.439 35.2828 22.5924 35.8653 22.0409 36.2304C22.028 36.238 22.0132 36.242 21.9982 36.242C21.9832 36.242 21.9684 36.238 21.9555 36.2304C21.9433 36.2214 21.9335 36.2097 21.9267 36.1962C21.92 36.1827 21.9165 36.1678 21.9166 36.1527C21.9865 35.6556 21.8623 35.143 21.6836 34.7003C21.6836 34.6925 21.6836 34.6925 21.6759 34.6847C21.6681 34.6614 21.6526 34.6304 21.6448 34.6071C21.637 34.5838 21.6215 34.5527 21.6137 34.5294L21.5982 34.4983L21.5749 34.4439L21.5594 34.4129C21.4506 34.1799 21.2797 33.8148 21.272 33.7993V38.4051H21.3419C24.2157 38.4051 26.5225 36.0905 27.4933 34.677C27.5089 34.6537 27.5322 34.6226 27.5477 34.5993L27.5943 34.5294C27.5943 34.5216 27.5943 34.5216 27.5865 34.5216ZM21.8623 37.9391C21.7843 37.9469 21.7057 37.931 21.637 37.8934C21.5682 37.8557 21.5125 37.7982 21.477 37.7282C21.4416 37.6583 21.4281 37.5793 21.4385 37.5016C21.4488 37.4239 21.4823 37.3512 21.5348 37.2929C21.5872 37.2346 21.656 37.1936 21.7322 37.1752C21.8084 37.1568 21.8884 37.1619 21.9617 37.1898C22.0349 37.2177 22.098 37.2671 22.1426 37.3315C22.1873 37.3959 22.2114 37.4724 22.2118 37.5507C22.2145 37.5992 22.2076 37.6478 22.1915 37.6936C22.1754 37.7394 22.1503 37.7816 22.1178 37.8177C22.0854 37.8538 22.0461 37.8831 22.0022 37.9039C21.9583 37.9248 21.9108 37.9367 21.8623 37.9391Z" fill="#F2F2F2"/>
<path d="M21.1246 33.8225V38.405C18.3518 38.2885 15.9673 36.0594 14.9188 34.6846C14.8954 34.6613 14.8799 34.6303 14.8566 34.607C14.8359 34.583 14.8177 34.5569 14.8022 34.5293C15.622 34.2724 16.3787 33.8464 17.0236 33.2788C17.3882 33.7318 17.791 34.1528 18.2275 34.5371C18.2577 34.561 18.2862 34.5869 18.3129 34.6147C18.3424 34.6425 18.3735 34.6684 18.4061 34.6924C19.0801 35.2722 19.8055 35.7895 20.5731 36.238C20.5862 36.2464 20.6017 36.2502 20.6172 36.2488C20.6326 36.2474 20.6472 36.2409 20.6586 36.2303C20.6706 36.2216 20.6799 36.2097 20.6854 36.196C20.6909 36.1822 20.6924 36.1672 20.6896 36.1526C20.6135 35.7873 20.6004 35.4117 20.6508 35.0419C20.6666 34.924 20.6899 34.8073 20.7207 34.6924C20.7285 34.6691 20.7362 34.638 20.744 34.6147C20.7518 34.5914 20.7595 34.5604 20.7673 34.5371C20.8403 34.2785 20.9615 34.036 21.1246 33.8225Z" fill="#F2F2F2"/>
<path d="M21.0468 33.6668C20.8423 33.9183 20.6917 34.2091 20.6041 34.5212C20.5963 34.5445 20.5885 34.5755 20.5808 34.5988C20.573 34.6221 20.5652 34.6532 20.5575 34.6765C20.5293 34.7837 20.5085 34.8927 20.4953 35.0027C20.4504 35.3328 20.453 35.6676 20.5031 35.9969C19.8517 35.6045 19.2312 35.1631 18.6468 34.6765C18.6157 34.6532 18.5847 34.6221 18.5536 34.5988C18.5225 34.5755 18.4915 34.5445 18.4604 34.5212C17.9912 34.1188 17.5572 33.6771 17.1633 33.2008C17.14 33.1775 17.1245 33.1464 17.1012 33.1231C17.0934 33.1154 17.0856 33.0998 17.0779 33.0921C17.0701 33.0843 17.0856 33.061 17.0856 33.0455C17.3186 32.0823 18.1419 31.8571 18.5458 31.9192V31.9658C18.5462 31.9826 18.5516 31.9988 18.5614 32.0124C18.8724 32.3937 19.224 32.7401 19.6099 33.0455L19.7109 33.1231C19.7497 33.1464 19.7808 33.1775 19.8196 33.2008C20.2157 33.4571 20.6351 33.6513 21.0468 33.6668Z" fill="#F2F2F2"/>
<path d="M25.6138 33.1235C25.5965 33.1483 25.581 33.1743 25.5672 33.2012C25.4265 33.3919 25.2678 33.5688 25.0934 33.7293C24.7957 34.0113 24.4819 34.2758 24.1536 34.5215C24.1303 34.5371 24.1147 34.5526 24.0914 34.5682C24.077 34.5765 24.064 34.587 24.0526 34.5992L23.9516 34.6769C23.2992 35.174 22.6002 35.6633 22.0876 35.9973C22.1047 35.5448 22.0225 35.0942 21.8468 34.6769C21.8382 34.6627 21.8329 34.6468 21.8313 34.6303C21.8235 34.6148 21.8235 34.607 21.8157 34.5992L21.6837 34.3196C21.6759 34.2963 21.4507 33.7837 21.3652 33.6361C21.6837 33.574 21.9944 33.4031 22.2817 33.2012C22.3206 33.1779 22.3516 33.1468 22.3905 33.1235L22.4914 33.0458C22.8694 32.742 23.2108 32.3953 23.5089 32.0128C23.5175 31.9986 23.5228 31.9827 23.5245 31.9662V31.9274H23.6099C23.6233 31.9286 23.6368 31.9259 23.6487 31.9196C23.7419 31.873 23.8817 31.8808 24.0604 31.9429C24.2617 32.0287 24.452 32.1382 24.6274 32.2691C24.9479 32.5094 25.2516 32.7715 25.5361 33.0536C25.5594 33.0691 25.5827 33.1002 25.6138 33.1235Z" fill="#F2F2F2"/>
<path d="M23.3848 30.5991V31.9428C23.0501 32.3574 22.6667 32.7303 22.2431 33.0535C22.2055 33.0775 22.1692 33.1035 22.1343 33.1312C22.0955 33.1545 22.0566 33.1855 22.0178 33.2088C21.7304 33.3875 21.4198 33.5117 21.1246 33.5195H20.977C20.6812 33.4806 20.3975 33.3772 20.146 33.2166C20.1071 33.1933 20.0605 33.1622 20.0217 33.1389C19.9829 33.1156 19.944 33.0846 19.9052 33.0613C19.467 32.7415 19.0704 32.3684 18.7246 31.9506V30.6069C19.2334 30.844 19.7757 31.0012 20.3324 31.0729L20.5887 31.0962C20.6353 31.0962 20.6819 31.104 20.7285 31.104C20.8372 31.1117 20.946 31.1117 21.0547 31.1117C21.1634 31.1117 21.2644 31.1117 21.3732 31.104C21.4198 31.104 21.4664 31.0962 21.513 31.0962L21.7693 31.0729C22.3263 31.0074 22.8692 30.8526 23.377 30.6147C23.377 30.5991 23.3848 30.5991 23.3848 30.5991Z" fill="#FFC1A8"/>
<path d="M15.6336 27.3061C15.0899 27.0575 14.321 26.4517 14.3443 25.4575C14.567 25.579 14.8135 25.6505 15.0666 25.6672C15.1929 26.2332 15.3831 26.783 15.6336 27.3061Z" fill="#9A705E"/>
<path d="M26.6079 27.0261C26.8037 26.5841 26.9546 26.1235 27.0584 25.6513C27.2205 25.6067 27.3789 25.5496 27.5322 25.4805C27.5477 25.9931 27.3691 26.7698 26.6079 27.0261Z" fill="#9A705E"/>
<path d="M21.7383 26.8477C21.4336 26.8761 21.1272 26.8812 20.8218 26.8632C21.1247 26.871 21.4198 26.8632 21.7383 26.8477Z" fill="#9A705E"/>
<path d="M27.9284 19.6321C27.9207 19.6243 27.9207 19.6088 27.9129 19.5933C27.7964 16.0438 25.1478 14.0632 23.7576 13.5117C23.7498 13.5117 23.7498 13.504 23.742 13.504C23.739 13.5069 23.7353 13.5091 23.7312 13.5105C23.7272 13.5118 23.7229 13.5122 23.7187 13.5117C23.043 13.5428 22.3595 13.5894 21.6993 13.6438C20.5964 13.7214 19.4702 13.8069 18.3362 13.8069C18.041 13.8069 17.7459 13.7991 17.443 13.7913C17.4388 13.7918 17.4345 13.7914 17.4305 13.7901C17.4264 13.7887 17.4228 13.7865 17.4197 13.7836C17.4155 13.7878 17.41 13.7905 17.4042 13.7913C14.2585 15.368 13.6838 18.1409 13.8236 19.3836C13.823 19.4087 13.8149 19.433 13.8003 19.4535C13.5362 19.6787 13.0469 20.3156 13.0469 21.1078C13.0469 21.8379 13.4741 22.5525 13.7459 22.8943C13.8187 22.7673 13.9134 22.6543 14.0255 22.5603C14.2552 22.3685 14.5505 22.2738 14.8488 22.2962C15.2294 21.9234 15.7886 20.9292 15.9051 19.803C16.0294 18.6224 17.5828 17.3409 18.3828 16.8282C18.3914 16.8225 18.4011 16.8185 18.4113 16.8166C18.4215 16.8147 18.4319 16.8148 18.4421 16.817C18.4522 16.8191 18.4618 16.8233 18.4703 16.8292C18.4788 16.8352 18.486 16.8428 18.4915 16.8515C20.8061 20.269 23.1673 20.8515 24.2313 20.6729C23.8896 20.3389 23.8119 19.9661 23.8197 19.8108C23.8199 19.7998 23.8228 19.7891 23.8283 19.7796C23.8337 19.7701 23.8414 19.7621 23.8508 19.7564C23.8586 19.7483 23.8686 19.7425 23.8796 19.7397C23.8906 19.737 23.9021 19.7374 23.9129 19.7409C25.8779 20.1991 26.81 21.5894 27.0508 22.3117C27.362 22.3521 27.6611 22.4579 27.9284 22.6224C28.8216 21.6671 28.3168 20.2457 27.9284 19.6321ZM17.5129 16.8127C16.5809 17.2243 14.7401 18.6845 14.4449 21.2787C14.443 21.2979 14.434 21.3158 14.4196 21.3287C14.4052 21.3416 14.3866 21.3487 14.3673 21.3486H14.3595C14.3207 21.3409 14.2818 21.302 14.2896 21.2632C14.5925 18.5913 16.4877 17.0923 17.4508 16.6729C17.4602 16.6666 17.4708 16.6624 17.482 16.6606C17.4932 16.6588 17.5047 16.6596 17.5156 16.6627C17.5265 16.6658 17.5366 16.6713 17.5451 16.6788C17.5537 16.6862 17.5605 16.6954 17.5651 16.7058C17.5697 16.7161 17.572 16.7274 17.5718 16.7387C17.5716 16.7501 17.5689 16.7612 17.5639 16.7714C17.5589 16.7816 17.5518 16.7906 17.543 16.7977C17.5342 16.8048 17.5239 16.81 17.5129 16.8127ZM18.4605 16.5952C18.4527 16.5952 18.4449 16.603 18.4372 16.603C18.4223 16.6027 18.4078 16.5982 18.3954 16.59C18.383 16.5817 18.3732 16.57 18.3673 16.5564C18.1032 15.8496 18.2508 14.6146 18.3673 14.0632C18.3693 14.053 18.3733 14.0433 18.3791 14.0346C18.3849 14.026 18.3923 14.0186 18.401 14.0128C18.4097 14.007 18.4194 14.003 18.4296 14.001C18.4398 13.999 18.4503 13.999 18.4605 14.001C18.4707 14.0031 18.4804 14.0071 18.489 14.0129C18.4977 14.0187 18.5051 14.0261 18.5108 14.0348C18.5166 14.0434 18.5206 14.0531 18.5226 14.0633C18.5247 14.0736 18.5246 14.0841 18.5226 14.0943C18.4139 14.6302 18.2663 15.8263 18.5226 16.502C18.5216 16.5217 18.5153 16.5408 18.5044 16.5572C18.4934 16.5736 18.4783 16.5867 18.4605 16.5952ZM23.6333 20.1758C23.6273 20.1895 23.6176 20.2011 23.6052 20.2094C23.5928 20.2176 23.5783 20.2222 23.5634 20.2224C23.5525 20.2227 23.5418 20.22 23.5323 20.2146C21.5828 19.4535 19.9595 16.9758 19.3692 15.7719C19.3613 15.7533 19.3609 15.7324 19.3682 15.7136C19.3754 15.6947 19.3897 15.6794 19.408 15.671C19.4171 15.6661 19.4271 15.6633 19.4373 15.6626C19.4476 15.662 19.4578 15.6636 19.4674 15.6673C19.477 15.6709 19.4857 15.6766 19.4928 15.684C19.5 15.6913 19.5055 15.7001 19.509 15.7098C20.0838 16.8981 21.6838 19.3292 23.5867 20.0748C23.5964 20.0783 23.6054 20.0837 23.6131 20.0907C23.6207 20.0976 23.6269 20.1061 23.6313 20.1155C23.6356 20.1249 23.638 20.1351 23.6384 20.1454C23.6387 20.1558 23.637 20.1661 23.6333 20.1758ZM22.4838 14.3195C22.4736 14.3175 22.4639 14.3134 22.4552 14.3076C22.4466 14.3019 22.4392 14.2944 22.4334 14.2858C22.4276 14.2771 22.4236 14.2674 22.4216 14.2572C22.4196 14.247 22.4196 14.2365 22.4216 14.2263C22.4237 14.2161 22.4277 14.2064 22.4335 14.1977C22.4393 14.1891 22.4467 14.1817 22.4554 14.1759C22.464 14.1701 22.4737 14.1661 22.4839 14.1641C22.4941 14.1621 22.5046 14.1621 22.5148 14.1642C23.843 14.4671 26.5304 15.5933 27.1906 17.6438C27.1943 17.6534 27.196 17.6638 27.1957 17.6741C27.1953 17.6845 27.1929 17.6947 27.1885 17.7041C27.1842 17.7135 27.178 17.7219 27.1704 17.7289C27.1627 17.7359 27.1537 17.7413 27.144 17.7447H27.1207C27.1049 17.7439 27.0897 17.7382 27.0772 17.7285C27.0647 17.7188 27.0555 17.7055 27.0508 17.6904C26.4061 15.7098 23.7809 14.6146 22.4838 14.3195ZM27.7343 21.6282C27.714 21.6287 27.6943 21.6219 27.6786 21.6091C27.6629 21.5963 27.6523 21.5783 27.6488 21.5583C27.4935 19.6321 25.8779 18.2185 25.0546 17.737C25.0372 17.7256 25.0245 17.7084 25.0188 17.6884C25.0131 17.6684 25.0148 17.6471 25.0236 17.6282C25.0284 17.6188 25.0352 17.6105 25.0434 17.6038C25.0516 17.5971 25.061 17.5921 25.0712 17.5892C25.0814 17.5863 25.0921 17.5855 25.1026 17.5869C25.1131 17.5882 25.1232 17.5917 25.1323 17.5972C25.9867 18.0865 27.6488 19.5467 27.8042 21.535C27.8042 21.5894 27.7731 21.6282 27.7343 21.6282ZM24.744 11.7952C24.6585 11.4535 24.3012 11.4224 24.1304 11.4457C24.112 11.4484 24.0932 11.4443 24.0776 11.4344C24.0619 11.4244 24.0503 11.4091 24.0449 11.3913C24.0409 11.3827 24.0387 11.3734 24.0385 11.3639C24.0383 11.3544 24.0401 11.3449 24.0438 11.3362C24.0474 11.3274 24.0529 11.3195 24.0598 11.3129C24.0667 11.3064 24.0748 11.3013 24.0838 11.2981C24.09 11.2727 24.0926 11.2466 24.0915 11.2205C24.0915 11.0729 24.0216 10.6768 23.5245 9.73697C22.911 8.59522 21.7459 8.7661 21.21 9.01464C21.1873 9.02239 21.1627 9.02239 21.1401 9.01464C21.129 9.00828 21.1196 8.99928 21.1129 8.98844C21.1061 8.9776 21.1021 8.96526 21.1012 8.95251C21.0857 8.78163 20.7207 8.34668 19.1906 8.34668C18.6391 8.34668 18.2119 8.50979 17.909 8.836C17.5362 9.23212 17.4352 9.79134 17.4585 10.1797C17.4591 10.2026 17.4508 10.2249 17.4352 10.2418C17.4205 10.2559 17.4012 10.2642 17.3809 10.2651C16.9614 10.2651 16.0993 10.5836 15.8741 11.7875C15.8337 11.9675 15.83 12.1539 15.8634 12.3354C15.8968 12.5169 15.9664 12.6898 16.0682 12.8438C16.3867 13.3098 16.9847 13.5661 17.3964 13.6438H17.4119C17.4197 13.636 17.4275 13.636 17.443 13.6282C19.2449 13.1389 22.0721 12.8748 23.7498 13.3564C23.7557 13.3572 23.7611 13.3599 23.7653 13.3642C24.1847 12.9214 24.8294 12.1214 24.744 11.7952ZM18.8333 12.9447C18.8282 12.9611 18.8178 12.9753 18.8037 12.9851C18.7897 12.995 18.7727 12.9999 18.7556 12.9991H18.7323C17.9867 12.7506 17.5362 11.6554 17.4042 11.1195C17.4029 11.1015 17.408 11.0836 17.4185 11.0689C17.4291 11.0542 17.4444 11.0436 17.4619 11.039C17.4794 11.0344 17.4979 11.0361 17.5143 11.0437C17.5307 11.0513 17.5439 11.0643 17.5517 11.0807C17.676 11.5933 18.0954 12.6263 18.7789 12.8515C18.7894 12.8526 18.7994 12.8561 18.8083 12.8618C18.8171 12.8675 18.8245 12.8752 18.8298 12.8843C18.8351 12.8934 18.8382 12.9036 18.8388 12.9141C18.8394 12.9246 18.8375 12.9351 18.8333 12.9447ZM23.7964 11.7797C23.3226 12.5564 22.3207 12.9137 21.8624 12.9913H21.8469C21.8329 12.9914 21.8191 12.9879 21.8068 12.9811C21.7946 12.9743 21.7843 12.9644 21.777 12.9525C21.77 12.9372 21.7678 12.9201 21.7705 12.9035C21.7733 12.8869 21.7809 12.8715 21.7925 12.8593C22.6313 11.9661 22.7323 10.7933 22.6779 10.2962C22.6769 10.286 22.6778 10.2757 22.6808 10.2658C22.6837 10.256 22.6886 10.2468 22.6951 10.2389C22.7016 10.231 22.7096 10.2244 22.7186 10.2195C22.7277 10.2147 22.7376 10.2117 22.7478 10.2108C22.7582 10.209 22.7687 10.2094 22.7789 10.2121C22.789 10.2148 22.7984 10.2196 22.8065 10.2262C22.8146 10.2328 22.8212 10.2411 22.8258 10.2505C22.8305 10.2599 22.833 10.2702 22.8333 10.2807C22.8954 10.77 22.7944 11.8884 22.0644 12.7894C22.5459 12.6574 23.2915 12.3234 23.6643 11.702C23.6699 11.6932 23.6771 11.6857 23.6856 11.6797C23.6941 11.6738 23.7037 11.6696 23.7138 11.6674C23.7239 11.6653 23.7344 11.6652 23.7446 11.6671C23.7548 11.669 23.7645 11.673 23.7731 11.6787C23.782 11.6831 23.7898 11.6894 23.796 11.6972C23.8022 11.7049 23.8065 11.714 23.8087 11.7237C23.811 11.7333 23.811 11.7434 23.8089 11.7531C23.8068 11.7628 23.8025 11.7719 23.7964 11.7797Z" fill="#9A705E"/>
<path d="M27.9595 22.8165C27.9362 22.801 27.9206 22.7855 27.8973 22.7699C27.8758 22.7541 27.8523 22.741 27.8274 22.7311C27.5693 22.5767 27.2802 22.4812 26.9808 22.4515C26.965 22.4506 26.9499 22.445 26.9374 22.4353C26.9249 22.4255 26.9157 22.4122 26.9109 22.3971C26.709 21.7369 25.8391 20.3855 23.9672 19.9117C23.9905 20.0903 24.107 20.3932 24.4333 20.6573C24.4446 20.6663 24.453 20.6786 24.4572 20.6925C24.4613 20.7064 24.4611 20.7212 24.4566 20.735C24.4566 20.7428 24.4566 20.7428 24.4488 20.7505C24.5187 20.7661 24.5886 20.7816 24.6507 20.7971C24.9925 20.9059 25.2022 21.1544 25.3731 21.2787C25.3926 21.2921 25.4061 21.3127 25.4105 21.336C25.4148 21.3593 25.4098 21.3834 25.3964 21.403C25.3897 21.4126 25.3813 21.4209 25.3714 21.4273C25.3616 21.4338 25.3506 21.4382 25.3391 21.4403C25.3157 21.4447 25.2917 21.4396 25.2721 21.4263C25.0393 21.268 24.7858 21.1425 24.5187 21.0534C24.1958 20.934 23.8453 20.9097 23.509 20.9835C23.4978 20.987 23.4859 20.9882 23.4743 20.9869C23.4626 20.9857 23.4513 20.982 23.4411 20.9762C23.4309 20.9703 23.422 20.9625 23.4149 20.953C23.4079 20.9436 23.4029 20.9328 23.4002 20.9214C23.3962 20.9051 23.3961 20.8881 23.4002 20.8719C23.4043 20.8556 23.4123 20.8406 23.4236 20.8282C22.1731 20.6573 20.2546 19.733 18.3905 17.0068C17.5905 17.5272 16.1614 18.7311 16.0449 19.8263C15.9129 21.0845 15.2837 22.0942 14.9109 22.4437C14.8911 22.4594 14.8663 22.4676 14.841 22.467C14.8026 22.46 14.7635 22.4574 14.7245 22.4593C14.4948 22.4652 14.2735 22.5471 14.0954 22.6923C13.9825 22.7865 13.89 22.9028 13.8236 23.034C13.8091 23.0591 13.7961 23.085 13.7847 23.1117C13.7697 23.1383 13.7592 23.1671 13.7536 23.1971C13.6716 23.4262 13.6321 23.6684 13.6371 23.9117C13.6371 24.5563 13.8779 24.968 14.1808 25.2165C14.2022 25.237 14.2256 25.2553 14.2507 25.2709L14.3206 25.3175C14.5508 25.4631 14.8172 25.5411 15.0896 25.5428C15.1077 25.5424 15.1255 25.5484 15.1397 25.5598C15.1538 25.5711 15.1636 25.5871 15.1672 25.6049C15.3037 26.2272 15.5177 26.83 15.8041 27.3991C15.8197 27.4224 15.8274 27.4534 15.843 27.4767C15.8585 27.5 15.8663 27.5311 15.8818 27.5544C16.4333 28.6263 17.2954 29.7136 18.5303 30.3738C18.5546 30.3898 18.5807 30.4029 18.608 30.4127C18.6313 30.4282 18.6624 30.436 18.6857 30.4515C19.4133 30.7981 20.2089 30.9787 21.0149 30.98C21.8209 30.9813 22.6171 30.8035 23.3459 30.4593C23.3692 30.4437 23.4002 30.436 23.4236 30.4204C23.4469 30.4049 23.4779 30.3971 23.5012 30.3816C24.8527 29.667 25.7614 28.4243 26.3129 27.267C26.3284 27.2437 26.3362 27.2127 26.3517 27.1894C26.3631 27.1627 26.376 27.1368 26.3905 27.1117C26.6119 26.6315 26.7812 26.1289 26.8954 25.6127C26.8991 25.5976 26.9068 25.5839 26.9178 25.5729C26.9287 25.5619 26.9425 25.5542 26.9575 25.5505C27.1445 25.5079 27.3248 25.4399 27.4935 25.3486C27.5168 25.333 27.5401 25.3253 27.5634 25.3097C27.5867 25.2942 27.61 25.2864 27.6333 25.2709C28.0682 25.0068 28.4799 24.5719 28.4799 23.9117C28.4955 23.6997 28.4557 23.4873 28.3645 23.2953C28.2732 23.1033 28.1337 22.9383 27.9595 22.8165ZM20.8449 25.6282C20.8542 25.6106 20.8696 25.597 20.8881 25.5899C20.9067 25.5827 20.9272 25.5825 20.9459 25.5894C21.0432 25.6356 21.1489 25.662 21.2566 25.667C21.4274 25.667 21.9012 25.5816 21.9867 25.3952C22.0255 25.3097 21.9789 25.201 21.8546 25.069C21.3964 24.5796 21.21 23.7253 21.1789 23.3447C21.1795 23.3248 21.1867 23.3056 21.1994 23.2901C21.212 23.2747 21.2294 23.2639 21.2488 23.2593C21.269 23.2588 21.2888 23.2655 21.3045 23.2784C21.3201 23.2912 21.3307 23.3092 21.3342 23.3292C21.3653 23.6942 21.5362 24.502 21.9634 24.9602C22.1342 25.1389 22.1886 25.3097 22.1265 25.4573C21.9789 25.7991 21.2643 25.8224 21.2566 25.8224C21.1248 25.8167 20.9955 25.785 20.876 25.7292C20.8605 25.718 20.8492 25.7021 20.8435 25.6839C20.8379 25.6657 20.8384 25.6461 20.8449 25.6282ZM17.0935 21.4418C17.0851 21.451 17.0749 21.4583 17.0635 21.4633C17.0522 21.4684 17.0399 21.4709 17.0274 21.4709C17.015 21.4709 17.0027 21.4684 16.9913 21.4633C16.98 21.4583 16.9698 21.451 16.9614 21.4418C16.9463 21.4231 16.938 21.3998 16.938 21.3758C16.938 21.3517 16.9463 21.3284 16.9614 21.3097C17.241 21.0379 17.5284 20.8127 17.8857 20.735C18.243 20.6573 18.6546 20.7428 18.8566 20.7583C18.8685 20.7596 18.88 20.7633 18.8905 20.7691C18.901 20.7749 18.9102 20.7827 18.9176 20.7922C18.925 20.8016 18.9305 20.8124 18.9337 20.824C18.9368 20.8355 18.9377 20.8476 18.9361 20.8595C18.9346 20.8714 18.9307 20.8829 18.9246 20.8932C18.9186 20.9036 18.9106 20.9126 18.901 20.9198C18.8914 20.9271 18.8805 20.9323 18.8688 20.9352C18.8572 20.9382 18.8451 20.9387 18.8333 20.9369C18.5525 20.9165 18.2702 20.9348 17.9944 20.9913C17.676 21.069 17.3342 21.201 17.0935 21.4418ZM18.7323 23.9117C18.4993 23.8806 18.3517 23.5156 18.4138 23.1039C18.476 22.6923 18.709 22.3894 18.942 22.4204C19.175 22.4515 19.3226 22.8165 19.2604 23.2282C19.1983 23.6398 18.9653 23.9428 18.7323 23.9117ZM22.9187 27.1738C22.9032 27.1971 22.8954 27.2282 22.8799 27.2515C22.8643 27.2748 22.8566 27.3059 22.841 27.3292C22.6002 27.7486 22.1265 28.1525 21.2954 28.2224C21.2335 28.2288 21.1712 28.2314 21.109 28.2301C20.6231 28.2352 20.1536 28.0546 19.7964 27.7253C19.698 27.6366 19.6095 27.5377 19.5323 27.4301C19.5168 27.4068 19.4935 27.3758 19.4779 27.3525C19.4624 27.3292 19.4469 27.2981 19.4313 27.2748C19.3094 27.0781 19.2399 26.8535 19.2294 26.6224C19.2288 26.5994 19.2371 26.5771 19.2527 26.5602C19.2605 26.5521 19.2705 26.5463 19.2815 26.5436C19.2925 26.5408 19.304 26.5412 19.3148 26.5447C20.7284 26.7622 21.5129 26.7622 22.9653 26.5447C22.9768 26.5426 22.9886 26.5436 22.9996 26.5477C23.0105 26.5518 23.0202 26.5588 23.0274 26.568C23.043 26.5849 23.0513 26.6072 23.0507 26.6301C23.0454 26.8186 23.0004 27.0039 22.9187 27.1738ZM23.6566 23.9583C23.4236 23.9816 23.1905 23.6709 23.1439 23.2593C23.0973 22.8476 23.2449 22.4903 23.4857 22.4593C23.7265 22.4282 23.9517 22.7466 23.9983 23.1583C24.0449 23.5699 23.8973 23.9272 23.6566 23.9583Z" fill="#FFC1A8"/>
<path d="M20.8218 26.8554C21.1272 26.8734 21.4336 26.8682 21.7383 26.8398C21.4334 26.8643 21.1273 26.8695 20.8218 26.8554Z" fill="#FFC1A8"/>
<path d="M21.8628 37.9388C21.9408 37.9467 22.0193 37.9307 22.0881 37.8931C22.1568 37.8554 22.2126 37.7979 22.248 37.728C22.2835 37.6581 22.2969 37.579 22.2866 37.5013C22.2763 37.4236 22.2427 37.3509 22.1903 37.2926C22.1378 37.2344 22.069 37.1933 21.9928 37.1749C21.9166 37.1565 21.8366 37.1616 21.7634 37.1895C21.6901 37.2174 21.6271 37.2668 21.5824 37.3312C21.5378 37.3957 21.5137 37.4721 21.5133 37.5505C21.5106 37.599 21.5174 37.6475 21.5336 37.6933C21.5497 37.7391 21.5747 37.7813 21.6072 37.8174C21.6397 37.8535 21.679 37.8828 21.7229 37.9036C21.7667 37.9245 21.8143 37.9364 21.8628 37.9388Z" fill="black"/>
<path d="M27.8043 21.543C27.8037 21.5629 27.7965 21.5821 27.7838 21.5975C27.7712 21.613 27.7538 21.6238 27.7344 21.6284H27.7266C27.7076 21.6276 27.6895 21.6201 27.6753 21.6074C27.6611 21.5946 27.6518 21.5774 27.649 21.5585C27.4936 19.6323 25.8781 18.2187 25.0548 17.7372C25.0374 17.7258 25.0247 17.7086 25.0189 17.6886C25.0132 17.6686 25.0149 17.6473 25.0237 17.6284C25.0286 17.619 25.0353 17.6107 25.0435 17.604C25.0517 17.5973 25.0612 17.5923 25.0714 17.5894C25.0816 17.5865 25.0922 17.5857 25.1027 17.5871C25.1133 17.5884 25.1234 17.5919 25.1325 17.5974C25.9868 18.0945 27.6412 19.5546 27.8043 21.543Z" fill="black"/>
<path d="M18.4607 16.5952C18.4529 16.5952 18.4451 16.603 18.4374 16.603C18.4225 16.6027 18.408 16.5982 18.3956 16.59C18.3832 16.5817 18.3734 16.57 18.3675 16.5564C18.1034 15.8496 18.251 14.6146 18.3675 14.0632C18.3695 14.053 18.3735 14.0433 18.3793 14.0346C18.3851 14.026 18.3925 14.0186 18.4012 14.0128C18.4098 14.007 18.4196 14.003 18.4298 14.001C18.44 13.999 18.4505 13.999 18.4607 14.001C18.4709 14.0031 18.4806 14.0071 18.4892 14.0129C18.4978 14.0187 18.5053 14.0261 18.511 14.0348C18.5168 14.0434 18.5208 14.0531 18.5228 14.0633C18.5249 14.0736 18.5248 14.0841 18.5228 14.0943C18.4141 14.6302 18.2665 15.8263 18.5228 16.502C18.5218 16.5217 18.5155 16.5408 18.5046 16.5572C18.4936 16.5736 18.4785 16.5867 18.4607 16.5952Z" fill="black"/>
<path d="M23.6336 20.1759C23.6276 20.1896 23.6179 20.2012 23.6055 20.2095C23.5931 20.2177 23.5786 20.2223 23.5637 20.2225C23.5528 20.2228 23.5421 20.2201 23.5326 20.2147C21.5831 19.4536 19.9598 16.9759 19.3695 15.772C19.3616 15.7535 19.3612 15.7325 19.3685 15.7137C19.3757 15.6948 19.39 15.6795 19.4083 15.6711C19.4174 15.6662 19.4274 15.6634 19.4376 15.6627C19.4479 15.6621 19.4581 15.6637 19.4677 15.6674C19.4773 15.671 19.486 15.6768 19.4932 15.6841C19.5003 15.6914 19.5058 15.7002 19.5093 15.7099C20.0841 16.8982 21.6841 19.3293 23.587 20.0749C23.5968 20.0784 23.6057 20.0838 23.6134 20.0908C23.621 20.0977 23.6272 20.1062 23.6316 20.1156C23.6359 20.125 23.6383 20.1352 23.6387 20.1456C23.639 20.1559 23.6373 20.1662 23.6336 20.1759Z" fill="black"/>
<path d="M27.1516 17.7447H27.1283C27.1125 17.7438 27.0973 17.7381 27.0848 17.7284C27.0723 17.7187 27.0631 17.7054 27.0584 17.6903C26.4137 15.702 23.7885 14.6146 22.4914 14.3117C22.4812 14.3096 22.4715 14.3056 22.4629 14.2998C22.4542 14.294 22.4468 14.2866 22.441 14.2779C22.4353 14.2693 22.4313 14.2596 22.4292 14.2494C22.4272 14.2392 22.4272 14.2287 22.4293 14.2185C22.4313 14.2083 22.4353 14.1986 22.4411 14.1899C22.4469 14.1813 22.4544 14.1739 22.463 14.1681C22.4717 14.1623 22.4814 14.1583 22.4916 14.1563C22.5018 14.1543 22.5123 14.1543 22.5225 14.1563C23.8506 14.4592 26.538 15.5854 27.1982 17.6359C27.2024 17.6461 27.2044 17.657 27.2043 17.668C27.2043 17.6791 27.202 17.6899 27.1976 17.7C27.1933 17.7102 27.187 17.7193 27.1791 17.727C27.1712 17.7346 27.1618 17.7407 27.1516 17.7447Z" fill="black"/>
<path d="M23.7965 11.7795C23.3228 12.5562 22.3208 12.9135 21.8626 12.9911H21.847C21.833 12.9912 21.8192 12.9877 21.807 12.9809C21.7948 12.9741 21.7845 12.9642 21.7771 12.9523C21.7702 12.937 21.7679 12.9199 21.7707 12.9033C21.7735 12.8867 21.7811 12.8713 21.7927 12.8591C22.6315 11.9659 22.7325 10.7931 22.6781 10.296C22.677 10.2858 22.678 10.2755 22.6809 10.2656C22.6839 10.2558 22.6887 10.2466 22.6952 10.2387C22.7017 10.2307 22.7097 10.2242 22.7188 10.2193C22.7279 10.2145 22.7378 10.2115 22.748 10.2105C22.7583 10.2088 22.7689 10.2092 22.779 10.2119C22.7892 10.2145 22.7986 10.2193 22.8067 10.226C22.8148 10.2326 22.8214 10.2409 22.826 10.2503C22.8306 10.2597 22.8331 10.27 22.8334 10.2804C22.8956 10.7698 22.7946 11.8882 22.0645 12.7892C22.5461 12.6571 23.2917 12.3232 23.6645 11.7018C23.67 11.693 23.6772 11.6855 23.6857 11.6795C23.6942 11.6736 23.7038 11.6694 23.714 11.6672C23.7241 11.6651 23.7346 11.6649 23.7447 11.6669C23.7549 11.6688 23.7646 11.6728 23.7732 11.6785C23.7822 11.6829 23.79 11.6892 23.7961 11.697C23.8023 11.7047 23.8067 11.7138 23.8089 11.7234C23.8111 11.7331 23.8112 11.7432 23.809 11.7529C23.8069 11.7625 23.8026 11.7716 23.7965 11.7795Z" fill="black"/>
<path d="M18.8336 12.9449C18.8285 12.9613 18.8181 12.9755 18.804 12.9853C18.79 12.9951 18.7731 13.0001 18.7559 12.9993H18.7326C17.987 12.7507 17.5365 11.6556 17.4045 11.1197C17.4032 11.1016 17.4083 11.0837 17.4189 11.069C17.4294 11.0543 17.4447 11.0438 17.4622 11.0392C17.4797 11.0346 17.4982 11.0362 17.5146 11.0438C17.531 11.0514 17.5443 11.0645 17.5521 11.0808C17.6763 11.5934 18.0957 12.6265 18.7792 12.8517C18.7897 12.8528 18.7998 12.8563 18.8086 12.862C18.8174 12.8677 18.8248 12.8754 18.8301 12.8845C18.8354 12.8936 18.8385 12.9038 18.8391 12.9143C18.8397 12.9248 18.8378 12.9353 18.8336 12.9449Z" fill="black"/>
<path d="M17.5129 16.8127C16.5808 17.2244 14.7401 18.6845 14.4449 21.2787C14.443 21.2979 14.434 21.3158 14.4196 21.3287C14.4052 21.3416 14.3866 21.3487 14.3672 21.3486H14.3595C14.3206 21.3409 14.2818 21.302 14.2896 21.2632C14.5925 18.5913 16.4876 17.0923 17.4507 16.6729C17.4601 16.6666 17.4708 16.6624 17.482 16.6606C17.4932 16.6588 17.5047 16.6596 17.5156 16.6627C17.5265 16.6658 17.5365 16.6713 17.5451 16.6788C17.5537 16.6862 17.5605 16.6954 17.5651 16.7058C17.5697 16.7162 17.572 16.7274 17.5718 16.7387C17.5716 16.7501 17.5689 16.7612 17.5639 16.7714C17.5589 16.7816 17.5518 16.7906 17.543 16.7977C17.5341 16.8048 17.5239 16.81 17.5129 16.8127Z" fill="black"/>
<path d="M20.8218 26.8554C21.1272 26.8734 21.4336 26.8682 21.7383 26.8398C21.4334 26.8643 21.1273 26.8695 20.8218 26.8554Z" fill="#AE5646"/>
<path d="M23.0276 26.5598C23.0107 26.5443 22.9884 26.536 22.9654 26.5365C21.5052 26.754 20.7286 26.754 19.315 26.5365C19.293 26.5333 19.2707 26.5389 19.2528 26.5521C19.2373 26.569 19.2289 26.5913 19.2295 26.6142C19.24 26.8454 19.3096 27.07 19.4315 27.2666C19.447 27.2899 19.4625 27.321 19.4781 27.3443C19.4935 27.372 19.5117 27.398 19.5324 27.422C19.6096 27.5295 19.6982 27.6285 19.7965 27.7171C20.1518 28.0496 20.6226 28.2306 21.1091 28.222C21.1714 28.2233 21.2336 28.2207 21.2955 28.2142C22.1266 28.1443 22.6004 27.7404 22.8412 27.321C22.8572 27.2968 22.8702 27.2707 22.88 27.2433C22.8955 27.22 22.9033 27.189 22.9188 27.1657C22.9999 26.9923 23.0473 26.8052 23.0586 26.6142C23.0586 26.5987 23.0509 26.5831 23.0276 26.5598ZM22.7402 27.1812C22.7242 27.2054 22.7112 27.2315 22.7014 27.2589C22.6858 27.2822 22.6703 27.3132 22.6548 27.3365C22.4218 27.6861 21.9946 28.0123 21.2878 28.0666C21.038 28.093 20.7855 28.0658 20.5471 27.9867C20.3086 27.9077 20.0898 27.7787 19.9052 27.6084C19.8397 27.5495 19.7799 27.4844 19.7266 27.4142C19.7059 27.3902 19.6877 27.3642 19.6722 27.3365C19.6567 27.3132 19.6334 27.2822 19.6179 27.2589C19.5035 27.0937 19.4266 26.9054 19.3926 26.7074L19.5402 26.7307C19.9622 26.7953 20.3874 26.8368 20.814 26.855H20.8295C21.1351 26.8652 21.441 26.86 21.746 26.8395C22.0567 26.8162 22.3829 26.7851 22.748 26.7307L22.8955 26.7074C22.8676 26.8722 22.8153 27.0319 22.7402 27.1812Z" fill="black"/>
<path d="M22.8955 26.7153C22.8753 26.8784 22.8253 27.0363 22.748 27.1813C22.732 27.2055 22.7189 27.2316 22.7091 27.259C22.6936 27.2823 22.6781 27.3133 22.6625 27.3366C22.4295 27.6862 22.0023 28.0124 21.2955 28.0667C21.0458 28.0931 20.7932 28.0659 20.5548 27.9868C20.3164 27.9078 20.0976 27.7788 19.913 27.6085C19.8475 27.5496 19.7876 27.4845 19.7344 27.4143C19.7137 27.3903 19.6955 27.3643 19.68 27.3366C19.6645 27.3133 19.6412 27.2823 19.6256 27.259C19.5113 27.0938 19.4344 26.9055 19.4004 26.7075L19.548 26.7308C19.548 26.8706 19.6334 27.0104 19.9052 27.158C19.997 27.1987 20.0936 27.2274 20.1926 27.2434C20.3673 27.2745 20.5437 27.2953 20.7208 27.3056H20.7285C21.1999 27.3371 21.6732 27.3241 22.1421 27.2667C22.2515 27.2521 22.3586 27.2234 22.4606 27.1813C22.4723 27.1755 22.4828 27.1676 22.4917 27.158C22.6315 27.0337 22.7402 26.8706 22.7557 26.7308C22.8026 26.7287 22.8493 26.7235 22.8955 26.7153Z" fill="#AE5646"/>
<path d="M22.7478 26.7388C22.7085 26.9061 22.6158 27.056 22.4837 27.166C22.476 27.1737 22.4604 27.1815 22.4527 27.1893C22.3519 27.235 22.2443 27.2639 22.1342 27.2747C21.6653 27.3321 21.192 27.3451 20.7206 27.3135H20.7129C20.5357 27.3037 20.3593 27.283 20.1847 27.2514C20.0856 27.2353 19.9891 27.2066 19.8973 27.166C19.6255 27.0184 19.54 26.8786 19.54 26.7388C19.9621 26.8034 20.3873 26.8449 20.8138 26.863H20.8294C21.1348 26.881 21.4412 26.8758 21.7459 26.8475C22.0488 26.8242 22.375 26.7854 22.7478 26.7388Z" fill="#F2F2F2"/>
<path d="M23.6564 23.9582C23.4234 23.9815 23.1904 23.6708 23.1438 23.2591C23.0972 22.8475 23.2448 22.4902 23.4856 22.4591C23.7263 22.4281 23.9516 22.7465 23.9982 23.1582C24.0448 23.5698 23.8972 23.9271 23.6564 23.9582Z" fill="black"/>
<path d="M19.2603 23.2206C19.1981 23.6323 18.9651 23.9429 18.7321 23.9041C18.4991 23.8653 18.3515 23.508 18.4137 23.0963C18.4758 22.6847 18.7088 22.3818 18.9418 22.4128C19.1748 22.4439 19.3224 22.809 19.2603 23.2206Z" fill="black"/>
<path fill-rule="evenodd" clip-rule="evenodd" d="M18.942 20.8668C18.9405 20.8786 18.9368 20.89 18.9309 20.9003C18.925 20.9106 18.9172 20.9196 18.9078 20.9268C18.8984 20.9341 18.8876 20.9394 18.8762 20.9424C18.8647 20.9454 18.8527 20.9461 18.841 20.9445C18.5602 20.9241 18.278 20.9423 18.0022 20.9989C17.6682 21.0688 17.3342 21.2008 17.0934 21.4416C17.085 21.4508 17.0749 21.4581 17.0635 21.4631C17.0521 21.4682 17.0398 21.4708 17.0274 21.4708C17.015 21.4708 17.0027 21.4682 16.9913 21.4631C16.9799 21.4581 16.9698 21.4508 16.9614 21.4416C16.9462 21.4229 16.938 21.3996 16.938 21.3756C16.938 21.3515 16.9462 21.3282 16.9614 21.3096C17.241 21.0377 17.5284 20.8125 17.8857 20.7348C18.2429 20.6571 18.6546 20.7426 18.8565 20.7581C18.8694 20.7594 18.8818 20.7633 18.8931 20.7696C18.9044 20.7758 18.9143 20.7842 18.9223 20.7944C18.9302 20.8045 18.9361 20.8162 18.9395 20.8286C18.9428 20.8411 18.9437 20.8541 18.942 20.8668Z" fill="black"/>
<path d="M22.1344 25.4574C21.9868 25.7991 21.2723 25.8224 21.2645 25.8224C21.1328 25.8167 21.0034 25.785 20.8839 25.7292C20.8656 25.7207 20.8513 25.7054 20.844 25.6866C20.8368 25.6677 20.8372 25.6468 20.8451 25.6282C20.8544 25.6107 20.8697 25.597 20.8883 25.5899C20.9069 25.5828 20.9274 25.5826 20.9461 25.5894C21.0434 25.6357 21.1491 25.6621 21.2567 25.6671C21.4276 25.6671 21.9014 25.5816 21.9868 25.3952C22.0257 25.3098 21.9791 25.201 21.8548 25.069C21.3966 24.5797 21.2101 23.7253 21.1791 23.3447C21.1797 23.3248 21.1869 23.3056 21.1996 23.2902C21.2122 23.2747 21.2296 23.2639 21.249 23.2593C21.2692 23.2588 21.289 23.2656 21.3047 23.2784C21.3203 23.2912 21.3309 23.3093 21.3344 23.3292C21.3655 23.6943 21.5364 24.502 21.9635 24.9603C22.1422 25.1467 22.1966 25.3098 22.1344 25.4574Z" fill="black"/>
<path d="M23.1516 13.3795C22.6623 13.4106 22.1652 13.4416 21.6914 13.4805C20.4953 13.5659 19.2603 13.6591 18.0254 13.6436C19.5943 13.2941 21.6681 13.1154 23.1516 13.3795Z" fill="#00697A"/>
<path d="M32.0603 38.1486C31.2525 37.0923 29.3418 34.9874 27.7806 34.5369C27.7884 34.5292 27.7884 34.5214 27.7962 34.5136C27.8029 34.5034 27.8071 34.4918 27.8084 34.4796C27.8098 34.4675 27.8082 34.4552 27.8039 34.4437C27.799 34.4324 27.7915 34.4223 27.7821 34.4142C27.7727 34.4061 27.7616 34.4003 27.7496 34.3971C27.2137 34.2806 26.134 33.8612 25.7845 33.1311C25.7882 33.1173 25.7879 33.1027 25.7838 33.089C25.7797 33.0753 25.7719 33.063 25.7612 33.0534C25.4345 32.7204 25.0841 32.4115 24.7127 32.1292C24.529 31.9897 24.328 31.8749 24.1146 31.7874C24.0337 31.7494 23.9461 31.7277 23.8568 31.7237C23.7674 31.7198 23.6782 31.7335 23.5942 31.7641H23.5321V30.5214C24.9923 29.7758 25.9554 28.4399 26.5224 27.2127C27.5321 26.9564 27.7185 25.9855 27.6797 25.403C28.169 25.1234 28.6583 24.634 28.6583 23.8806C28.6621 23.6501 28.6095 23.4221 28.5053 23.2164C28.4011 23.0106 28.2484 22.8334 28.0603 22.7001C28.9768 21.6981 28.4719 20.2224 28.068 19.5622C27.9437 16.036 25.3651 14.0243 23.9204 13.403C24.1845 13.1234 25.0078 12.2146 24.8913 11.7486C24.7981 11.3758 24.4719 11.2748 24.2311 11.2748C24.2622 11.003 24.0603 10.436 23.6486 9.65928C23.0195 8.47093 21.8311 8.57966 21.2175 8.82821C21.101 8.5486 20.5806 8.17578 19.1748 8.17578C18.5845 8.17578 18.1107 8.35442 17.7768 8.7117C17.3962 9.11559 17.2719 9.67481 17.2797 10.0942C16.7904 10.1331 15.936 10.5059 15.6952 11.7408C15.6501 11.9413 15.6468 12.1489 15.6856 12.3507C15.7243 12.5525 15.8043 12.7441 15.9204 12.9136C16.2156 13.3408 16.7204 13.6049 17.1399 13.7292C14.1107 15.3447 13.536 18.0632 13.6603 19.3447C13.3729 19.6088 12.8836 20.2768 12.8836 21.0923C12.8836 21.9078 13.3729 22.6923 13.6603 23.034C13.5501 23.3023 13.4972 23.5907 13.5049 23.8806C13.5049 24.6418 13.8156 25.1078 14.1884 25.3641C14.103 26.5913 15.136 27.2981 15.734 27.5156C16.3088 28.6573 17.2253 29.8379 18.5612 30.5136V31.7564C18.0719 31.6942 17.1554 31.9894 16.9302 33.0923V33.1311C16.2732 33.7144 15.4964 34.1465 14.6544 34.3971C14.6424 34.4003 14.6313 34.4061 14.6219 34.4142C14.6125 34.4223 14.605 34.4324 14.6001 34.4437C14.5958 34.4552 14.5942 34.4675 14.5956 34.4796C14.5969 34.4918 14.6011 34.5034 14.6078 34.5136C14.6156 34.5214 14.6156 34.5292 14.6234 34.5369C13.4816 34.8865 11.1437 36.0515 10.0175 38.1564C10.0097 38.1734 10.0077 38.1926 10.0119 38.2108C10.0162 38.2291 10.0263 38.2455 10.0408 38.2573C11.6175 39.5 15.5166 41.1933 19.8738 41.5816C20.4719 41.636 21.07 41.667 21.6836 41.667C26.6001 41.667 30.3904 39.7719 31.8428 38.4515C31.9204 38.3816 31.9903 38.3117 32.0525 38.2496C32.0666 38.237 32.0753 38.2195 32.0767 38.2006C32.0782 38.1818 32.0723 38.1632 32.0603 38.1486ZM27.5865 34.5214C27.5942 34.5214 27.602 34.5214 27.602 34.5292L27.5554 34.5991C27.5399 34.6267 27.5217 34.6528 27.501 34.6768C26.5379 36.0903 24.2234 38.4049 21.3496 38.4049H21.2797V33.7913C21.2874 33.8068 21.4583 34.1719 21.567 34.4049L21.5826 34.436L21.6059 34.4903L21.6214 34.5214C21.6292 34.5447 21.6447 34.5758 21.6525 34.5991C21.6661 34.6235 21.6766 34.6496 21.6836 34.6768C21.6836 34.6845 21.6913 34.6845 21.6913 34.6923C21.87 35.135 21.9942 35.6476 21.9243 36.1447C21.9208 36.1601 21.9227 36.1763 21.9298 36.1905C21.9369 36.2047 21.9487 36.2159 21.9632 36.2224C21.9761 36.23 21.9909 36.2341 22.0059 36.2341C22.0209 36.2341 22.0357 36.23 22.0486 36.2224C22.6001 35.8651 23.4467 35.2748 24.2001 34.6923L24.2156 34.6768L24.3166 34.5991C24.3488 34.5713 24.3825 34.5454 24.4175 34.5214C24.7127 34.2884 24.9845 34.0554 25.2098 33.8379C25.3912 33.6712 25.5552 33.4865 25.6991 33.2865C26.0797 33.97 27.0195 34.3738 27.5865 34.5214ZM21.1243 33.5117H20.9768C20.6779 33.4752 20.3912 33.3716 20.1379 33.2088C20.0991 33.1855 20.0525 33.1544 20.0137 33.1311C19.9748 33.1078 19.936 33.0767 19.8971 33.0534C19.459 32.7337 19.0624 32.3606 18.7166 31.9428V30.5991H18.7243C19.1979 30.8253 19.7035 30.9773 20.2234 31.0496C20.2622 31.0573 20.301 31.0573 20.3321 31.0651L20.5884 31.0884C20.635 31.0884 20.6816 31.0962 20.7282 31.0962C20.837 31.1039 20.9457 31.1039 21.0544 31.1039C21.1632 31.1039 21.2641 31.1039 21.3729 31.0962C21.4195 31.0962 21.4661 31.0884 21.5127 31.0884L21.769 31.0651C21.8078 31.0573 21.8467 31.0573 21.8777 31.0496C22.3973 30.9762 22.9028 30.8243 23.3768 30.5991V30.6068C23.3778 30.6068 23.3788 30.6066 23.3797 30.6063C23.3807 30.6059 23.3815 30.6053 23.3823 30.6046C23.383 30.6038 23.3835 30.603 23.3839 30.6021C23.3843 30.6011 23.3845 30.6001 23.3845 30.5991V31.9428C23.0498 32.3574 22.6665 32.7303 22.2428 33.0534C22.2052 33.0775 22.169 33.1034 22.134 33.1311C22.0952 33.1544 22.0564 33.1855 22.0175 33.2088C21.7224 33.3797 21.4195 33.5039 21.1243 33.5117ZM23.6175 31.9195C23.631 31.9207 23.6444 31.918 23.6564 31.9117C23.7496 31.8651 23.8894 31.8729 24.068 31.935C24.2693 32.0208 24.4597 32.1303 24.635 32.2612C24.9556 32.5015 25.2592 32.7636 25.5437 33.0457C25.5715 33.0696 25.5975 33.0956 25.6214 33.1234H25.6292C25.612 33.1482 25.5964 33.1741 25.5826 33.201C25.4419 33.3918 25.2832 33.5686 25.1088 33.7292C24.8111 34.0112 24.4973 34.2757 24.169 34.5214C24.1457 34.5369 24.1302 34.5525 24.1069 34.568C24.0925 34.5764 24.0794 34.5869 24.068 34.5991L23.9671 34.6768C23.3146 35.1738 22.6156 35.6632 22.103 35.9971C22.1201 35.5447 22.0379 35.094 21.8622 34.6768C21.8536 34.6626 21.8483 34.6467 21.8467 34.6301C21.8389 34.6146 21.8389 34.6068 21.8311 34.5991L21.6991 34.3195C21.6913 34.2962 21.4661 33.7835 21.3806 33.636C21.6991 33.5738 22.0098 33.403 22.2971 33.201C22.336 33.1777 22.3671 33.1467 22.4059 33.1234L22.5069 33.0457C22.8848 32.7418 23.2262 32.3952 23.5243 32.0127C23.5329 31.9985 23.5383 31.9826 23.5399 31.9661V31.9272H23.6175V31.9195ZM26.6078 27.0263C26.8036 26.5843 26.9546 26.1237 27.0583 25.6515C27.2204 25.6069 27.3788 25.5498 27.5321 25.4806C27.5476 25.9933 27.369 26.77 26.6078 27.0263ZM16.0603 12.8437C15.9581 12.69 15.8883 12.5171 15.8549 12.3355C15.8215 12.1539 15.8253 11.9675 15.8661 11.7874C16.0913 10.5835 16.9535 10.2651 17.3729 10.2651C17.3831 10.2654 17.3932 10.2634 17.4026 10.2594C17.412 10.2554 17.4204 10.2494 17.4272 10.2418C17.4428 10.2249 17.4511 10.2026 17.4505 10.1797C17.4272 9.79131 17.5282 9.23209 17.901 8.83598C18.2039 8.50976 18.6389 8.34665 19.1826 8.34665C20.7127 8.34665 21.0777 8.78937 21.0933 8.95248C21.0941 8.96523 21.0981 8.97758 21.1049 8.98842C21.1117 8.99925 21.121 9.00825 21.1321 9.01462C21.1422 9.02218 21.1544 9.02627 21.1671 9.02627C21.1797 9.02627 21.1919 9.02218 21.202 9.01462C21.7379 8.76607 22.9107 8.5952 23.5166 9.73695C24.0137 10.6768 24.0836 11.0729 24.0836 11.2204C24.0847 11.2466 24.082 11.2727 24.0758 11.2981C24.0607 11.3079 24.0489 11.3221 24.0419 11.3387C24.035 11.3553 24.0333 11.3737 24.037 11.3913C24.0433 11.4084 24.0551 11.423 24.0705 11.4328C24.086 11.4427 24.1042 11.4472 24.1224 11.4457C24.301 11.4146 24.6505 11.4457 24.736 11.7952C24.8214 12.1292 24.1768 12.9292 23.7418 13.3641C23.7359 13.3633 23.7305 13.3606 23.7263 13.3564C22.0486 12.8748 19.2214 13.1389 17.4195 13.6282C17.4078 13.6302 17.397 13.6356 17.3884 13.6437H17.3729C16.969 13.5583 16.3787 13.302 16.0603 12.8437ZM23.1515 13.3797C22.6622 13.4107 22.1651 13.4418 21.6913 13.4806C20.4952 13.5661 19.2603 13.6593 18.0253 13.6437C19.5942 13.2942 21.668 13.1156 23.1515 13.3797ZM13.0467 21.1001C13.0467 20.3078 13.536 19.6709 13.8001 19.4457C13.8113 19.4384 13.8197 19.4275 13.824 19.4148C13.8282 19.4021 13.828 19.3883 13.8234 19.3758C13.6836 18.1331 14.2583 15.3602 17.4039 13.7835C17.4117 13.7835 17.4117 13.7758 17.4195 13.7758C17.4272 13.7758 17.435 13.7835 17.4428 13.7835C17.7379 13.7991 18.0331 13.7991 18.336 13.7991C19.47 13.7991 20.5962 13.7136 21.6991 13.636C22.3593 13.5894 23.0428 13.535 23.7185 13.5039C23.7227 13.5044 23.727 13.504 23.731 13.5027C23.7351 13.5013 23.7387 13.4991 23.7418 13.4962C23.7496 13.5039 23.7496 13.5039 23.7573 13.5039C25.1399 14.0554 27.7962 16.036 27.9127 19.5855C27.9127 19.601 27.9204 19.6088 27.9282 19.6243C28.3166 20.2457 28.8214 21.667 27.936 22.6068C27.6687 22.4424 27.3695 22.3365 27.0583 22.2962C26.8175 21.5738 25.8777 20.1835 23.9204 19.7253C23.9097 19.7218 23.8981 19.7214 23.8872 19.7242C23.8762 19.7269 23.8662 19.7327 23.8583 19.7408C23.8496 19.7472 23.8424 19.7554 23.8371 19.7647C23.8317 19.7741 23.8284 19.7845 23.8272 19.7952C23.8195 19.9583 23.8971 20.3234 24.2389 20.6573C23.1748 20.836 20.8137 20.2535 18.4991 16.836C18.4936 16.8272 18.4863 16.8196 18.4779 16.8137C18.4694 16.8078 18.4598 16.8036 18.4496 16.8014C18.4395 16.7992 18.429 16.7991 18.4189 16.801C18.4087 16.803 18.399 16.8069 18.3904 16.8127C17.5904 17.3253 16.037 18.6068 15.9127 19.7874C15.7962 20.9059 15.237 21.9001 14.8564 22.2806C14.7084 22.2672 14.5593 22.2836 14.4179 22.329C14.2764 22.3743 14.1456 22.4477 14.0331 22.5447C13.9209 22.6387 13.8263 22.7518 13.7535 22.8787C13.4738 22.5447 13.0467 21.8379 13.0467 21.1001ZM14.3438 25.4651C14.5665 25.5866 14.8129 25.6581 15.0661 25.6748C15.1954 26.241 15.3882 26.7907 15.6408 27.3136C15.0894 27.0651 14.3204 26.4515 14.3438 25.4651ZM15.9127 27.5311C15.8971 27.5078 15.8894 27.4768 15.8738 27.4534C15.8594 27.4284 15.8464 27.4024 15.835 27.3758C15.5531 26.8048 15.3393 26.2026 15.1981 25.5816C15.1945 25.5638 15.1847 25.5478 15.1705 25.5365C15.1563 25.5251 15.1386 25.5191 15.1204 25.5195C14.8487 25.5141 14.5833 25.4363 14.3515 25.2942L14.2816 25.2476C14.2583 25.2321 14.235 25.2088 14.2117 25.1933C13.9088 24.9447 13.668 24.5408 13.668 23.8884C13.663 23.6451 13.7025 23.4029 13.7845 23.1738C13.7923 23.1428 13.8078 23.1195 13.8156 23.0884C13.8254 23.061 13.8384 23.035 13.8544 23.0107C13.9208 22.8795 14.0133 22.7632 14.1263 22.669C14.3044 22.5238 14.5257 22.4419 14.7554 22.436C14.7944 22.4347 14.8334 22.4373 14.8719 22.4437C14.8846 22.4471 14.8979 22.4467 14.9104 22.4426C14.9228 22.4385 14.9337 22.4308 14.9418 22.4204C15.3146 22.0787 15.9438 21.0612 16.0758 19.803C16.1923 18.7078 17.6214 17.5039 18.4214 16.9835C20.2855 19.7098 22.2039 20.634 23.4544 20.8049C23.4412 20.816 23.4318 20.831 23.4276 20.8477C23.4234 20.8645 23.4246 20.8821 23.4311 20.8981C23.4342 20.9093 23.4394 20.9198 23.4465 20.929C23.4537 20.9382 23.4625 20.9459 23.4726 20.9517C23.4827 20.9575 23.4939 20.9612 23.5054 20.9627C23.5169 20.9641 23.5286 20.9633 23.5399 20.9602C23.8661 20.8748 24.2311 20.9292 24.5496 21.0301C24.8166 21.1192 25.0702 21.2447 25.303 21.403C25.3127 21.4096 25.3236 21.4143 25.3351 21.4167C25.3465 21.4191 25.3584 21.4192 25.3699 21.4171C25.3815 21.4149 25.3925 21.4105 25.4023 21.4041C25.4121 21.3976 25.4206 21.3894 25.4272 21.3797C25.4339 21.37 25.4385 21.3591 25.4409 21.3476C25.4434 21.3361 25.4435 21.3242 25.4413 21.3127C25.4392 21.3012 25.4348 21.2902 25.4283 21.2803C25.4219 21.2705 25.4136 21.262 25.4039 21.2554C25.2408 21.1389 25.0234 20.8903 24.6816 20.7738C24.6164 20.7502 24.5486 20.7345 24.4797 20.7272C24.4797 20.7195 24.4874 20.7195 24.4874 20.7117C24.4902 20.6978 24.4896 20.6835 24.4855 20.67C24.4814 20.6564 24.4741 20.6441 24.4641 20.634C24.1379 20.37 24.0214 20.067 23.9981 19.8884C25.87 20.3622 26.7399 21.7136 26.9418 22.3738C26.9465 22.3889 26.9558 22.4022 26.9683 22.412C26.9807 22.4217 26.9959 22.4273 27.0117 22.4282C27.31 22.4627 27.5981 22.5579 27.8583 22.7078C27.8816 22.7234 27.9049 22.7311 27.9282 22.7467C27.9503 22.7603 27.9711 22.7759 27.9904 22.7933C28.1607 22.913 28.2993 23.0725 28.3941 23.2579C28.4888 23.4433 28.5369 23.6491 28.534 23.8573C28.534 24.5175 28.1224 24.9525 27.6874 25.2166C27.6641 25.2321 27.6408 25.2399 27.6175 25.2554C27.5942 25.2709 27.5709 25.2787 27.5476 25.2942C27.3769 25.381 27.1972 25.4487 27.0117 25.4962C26.9967 25.4998 26.9829 25.5076 26.972 25.5185C26.961 25.5295 26.9533 25.5433 26.9496 25.5583C26.8342 26.0743 26.665 26.5767 26.4447 27.0573C26.4292 27.0806 26.4214 27.1117 26.4059 27.135C26.3904 27.1583 26.3826 27.1894 26.3671 27.2127C25.8156 28.37 24.9069 29.6127 23.5554 30.3272C23.5312 30.3432 23.5051 30.3563 23.4777 30.3661C23.4544 30.3816 23.4234 30.3894 23.4001 30.4049C22.6736 30.7549 21.8763 30.933 21.07 30.9253C20.2626 30.9343 19.4644 30.7534 18.7399 30.3971C18.7166 30.3816 18.6855 30.3738 18.6622 30.3583C18.6389 30.3428 18.6078 30.335 18.5845 30.3195C17.334 29.6903 16.4719 28.5952 15.9127 27.5311ZM17.101 33.0457C17.334 32.0826 18.1573 31.8573 18.5612 31.9195V31.9661C18.5616 31.9828 18.567 31.9991 18.5768 32.0127C18.8878 32.394 19.2394 32.7403 19.6253 33.0457L19.7263 33.1234C19.7651 33.1467 19.7962 33.1777 19.835 33.201C20.2078 33.4573 20.6272 33.6515 21.0389 33.667C20.8344 33.9186 20.6838 34.2093 20.5962 34.5214C20.5884 34.5447 20.5806 34.5758 20.5729 34.5991C20.5651 34.6224 20.5573 34.6534 20.5496 34.6768C20.5214 34.7839 20.5006 34.8929 20.4874 35.003C20.4425 35.333 20.4451 35.6678 20.4952 35.9971C19.8438 35.6048 19.2233 35.1633 18.6389 34.6768C18.6078 34.6534 18.5768 34.6224 18.5457 34.5991C18.5146 34.5758 18.4836 34.5447 18.4525 34.5214C17.9833 34.1191 17.5493 33.6773 17.1554 33.201C17.1321 33.1777 17.1166 33.1467 17.0933 33.1234C17.0855 33.1156 17.0777 33.1 17.07 33.0923C17.0788 33.0879 17.0863 33.0813 17.0918 33.0732C17.0972 33.065 17.1004 33.0555 17.101 33.0457ZM17.0234 33.2632C17.388 33.7162 17.7908 34.1371 18.2272 34.5214C18.2574 34.5453 18.286 34.5713 18.3127 34.5991C18.3421 34.6269 18.3733 34.6528 18.4059 34.6768C19.0799 35.2565 19.8052 35.7739 20.5729 36.2224C20.586 36.2308 20.6015 36.2346 20.6169 36.2331C20.6324 36.2317 20.647 36.2252 20.6583 36.2146C20.6704 36.206 20.6797 36.1941 20.6852 36.1803C20.6907 36.1666 20.6922 36.1515 20.6894 36.1369C20.6132 35.7716 20.6001 35.396 20.6505 35.0263C20.6664 34.9084 20.6897 34.7916 20.7204 34.6768C20.7282 34.6534 20.736 34.6224 20.7437 34.5991C20.7515 34.5758 20.7593 34.5447 20.7671 34.5214C20.8464 34.2686 20.97 34.0319 21.1321 33.8224V38.4049C18.3593 38.2884 15.9748 36.0593 14.9263 34.6845C14.903 34.6612 14.8874 34.6301 14.8641 34.6068C14.8435 34.5828 14.8252 34.5568 14.8098 34.5292C15.6279 34.2663 16.382 33.8351 17.0234 33.2632ZM30.4292 39.2826C29.1476 40.0437 27.2913 40.8049 25.0389 41.2166H25.0311C23.9288 41.4138 22.8111 41.5126 21.6913 41.5117C16.7204 41.5117 12.0137 39.57 10.1962 38.1719C11.3224 36.1214 13.637 34.9952 14.7243 34.6768C15.7573 36.0826 18.2583 38.467 21.1787 38.5602H21.3418C24.3399 38.5602 26.7321 36.1059 27.6797 34.6768H27.6874C29.1865 35.0884 31.0661 37.1234 31.8816 38.1874C31.5632 38.5214 31.0738 38.902 30.4292 39.2826Z" fill="black"/>
</g>
<rect x="0.6" y="1.26699" width="40.8311" height="40.8" rx="20.4" stroke="#6A7294" stroke-width="0.8"/>
<defs>
<clipPath id="clip0_323_430">
<rect x="1" y="1.66699" width="40.0311" height="40" rx="20" fill="white"/>
</clipPath>
</defs>
</svg>
