<svg width="41" height="41" viewBox="0 0 41 41" fill="none" xmlns="http://www.w3.org/2000/svg">
<g clip-path="url(#clip0_87_981)">
<path d="M40.2026 20.5969C40.2101 25.0619 38.7022 29.3972 35.9257 32.8939C33.969 32.6309 27.0626 31.1151 25.9412 30.2257C25.4934 29.8707 25.1068 29.4449 24.7965 28.965C24.5258 28.5706 24.3325 28.2999 23.8453 28.2612C23.737 27.9596 23.505 27.5652 23.1105 27.4878V26.9387C23.1861 26.8076 23.2507 26.6705 23.3039 26.5288C23.6519 26.088 24.0077 25.6394 24.5104 25.2295C25.8638 24.1313 26.0417 23.0486 25.9334 22.5923C27.1941 21.9039 27.341 21.146 27.1631 20.1561C27.0626 19.5992 26.6991 19.3131 26.4207 19.2357C26.2812 19.1883 26.1288 19.1966 25.9953 19.2589C26.4129 17.0083 26.2351 13.8684 24.5104 11.7957C23.3039 10.3494 21.5173 9.61469 19.1894 9.61469C16.8383 9.61469 15.0518 10.3494 13.8839 11.8034C12.2289 13.8529 12.1593 17.0083 12.6001 19.081C12.6001 19.0965 12.6156 19.112 12.6233 19.1274L12.662 19.1584C12.5412 19.1363 12.417 19.1416 12.2985 19.1739C12.1206 19.228 11.8112 19.3827 11.7184 19.8776C11.4941 21.0919 11.9272 22.0122 13.0023 22.6C12.9017 23.0486 13.0719 24.1313 14.4253 25.2373C14.9357 25.6549 15.2992 26.1189 15.655 26.5675C15.7251 26.7359 15.8078 26.8988 15.9025 27.0547V27.4956C15.8233 27.4857 15.7429 27.493 15.6669 27.517C15.5908 27.541 15.5208 27.5812 15.4617 27.6348C15.3456 27.7353 15.2142 27.9209 15.16 28.2612H15.1136L15.1059 28.269C14.9048 28.385 14.5258 28.7717 14.5491 29.4368C14.5645 29.9627 9.35183 31.5172 6.22732 32.4453C5.63954 32.6232 5.08269 32.7856 4.61866 32.9248C1.83376 29.4203 0.322901 25.0732 0.334046 20.5969C0.334046 9.59149 9.25903 0.666504 20.2644 0.666504C31.2699 0.666504 40.2026 9.59149 40.2026 20.5969Z" fill="#363A4D"/>
<path d="M25.949 19.3436L25.9644 19.3359C25.9722 19.3281 25.9799 19.3281 25.9799 19.3204C25.9799 19.3127 25.9644 19.3359 25.949 19.3436ZM15.1756 28.2531C15.1679 28.2918 15.1679 28.2918 15.1602 28.3305H15.2374H15.2373C15.2451 28.2918 15.2451 28.2918 15.2528 28.2531L15.1756 28.2531ZM23.0333 26.7527C23.0353 26.7527 23.0373 26.7519 23.0387 26.7505C23.0402 26.749 23.041 26.7471 23.041 26.745L23.0333 26.7527ZM15.9412 26.7837C15.9412 26.7914 15.949 26.7914 15.949 26.7991V26.7914C15.949 26.7894 15.9481 26.7874 15.9467 26.7859C15.9452 26.7845 15.9433 26.7837 15.9412 26.7837Z" fill="#F2F2F2"/>
<path d="M35.9411 32.8939C33.9767 32.6309 27.078 31.1151 25.9488 30.2257C25.5011 29.8707 25.1144 29.4448 24.8042 28.965C24.5335 28.5706 24.3402 28.2999 23.8529 28.2612H23.7756C23.7833 28.2767 23.7833 28.2844 23.791 28.2999C23.7988 28.3154 23.7988 28.3231 23.8065 28.3386C23.8221 28.3894 23.835 28.441 23.8452 28.4932C24.1623 29.9859 23.0718 34.5799 22.2752 37.9364C22.2056 38.2226 22.1437 38.501 22.0818 38.7562L20.6201 34.5412C20.8521 34.3324 21.2388 33.6595 21.1924 32.484C21.177 31.9735 21.0223 31.5868 20.7361 31.3239C20.5065 31.121 20.2069 31.0156 19.9009 31.03C19.6224 30.9836 19.2203 31.03 18.9419 31.2697C18.7253 31.4554 18.617 31.726 18.617 32.0818C18.617 33.0331 19.0347 34.0926 19.2667 34.5257L18.9187 38.8258C18.5938 37.9828 18.2226 37.0238 17.8436 36.0416C17.2404 34.4871 16.5985 32.8397 16.1035 31.4863C15.6085 30.1328 15.2605 29.081 15.245 28.7253C15.2378 28.591 15.243 28.4564 15.2605 28.3231H15.1832C15.1754 28.4082 15.1677 28.5087 15.1677 28.617V28.7253C15.1909 29.4445 16.5057 32.8088 17.7663 36.0648C18.1762 37.1166 18.5706 38.122 18.9032 39.0037L18.7872 40.3803L18.7794 40.4731C17.646 40.3701 16.5247 40.1604 15.4306 39.8467C10.3958 38.4236 6.84596 35.1677 5.04395 33.3888C5.13675 33.5049 5.23729 33.6131 5.33784 33.7214C5.46158 33.8606 5.58532 33.9998 5.7168 34.139C7.74738 36.3095 10.2398 37.9958 13.0099 39.0733C14.8432 39.8653 16.7906 40.3613 18.7794 40.5427V40.5582L18.8181 40.566C19.3572 40.6299 19.8994 40.6635 20.4422 40.6665C21.2002 40.6665 21.8653 40.5892 22.6464 40.4886L22.6928 40.4809V40.4731C24.8893 40.1947 27.0393 39.4909 29.1275 38.3772C31.4643 37.2262 33.553 35.6287 35.276 33.675C35.5621 33.3811 35.8019 33.1336 35.9798 32.9403L36.0339 32.8861L35.9411 32.8939ZM20.8753 40.5892C20.566 40.5969 20.2566 40.5969 19.9241 40.5892H19.8777C19.5606 40.5737 19.2203 40.5505 18.8491 40.5041V40.4886L18.8568 40.3958L18.9573 39.1816L18.9651 39.0888L18.9728 39.0037L19.3363 34.5257V34.518L19.3286 34.5103C19.1043 34.0849 18.6866 33.0331 18.6866 32.0895C18.6866 31.757 18.7872 31.5018 18.9883 31.3316C19.2512 31.1073 19.6224 31.0687 19.8854 31.1151H19.8931C20.1787 31.1008 20.4587 31.1979 20.6743 31.3857C20.945 31.6255 21.0919 31.9967 21.1074 32.4917C21.1538 33.6673 20.7516 34.3169 20.5428 34.5025L20.5196 34.518L22.0354 38.8954L22.0586 38.965L22.0818 39.0346L22.5304 40.3262L22.5691 40.4345V40.4422C21.9658 40.5118 21.4399 40.5659 20.8753 40.5892ZM26.9697 39.2976C25.5819 39.8531 24.1292 40.2299 22.6464 40.419L22.6078 40.3107L22.1128 38.8877C22.1824 38.5861 22.2597 38.2767 22.3371 37.9441C23.1337 34.5799 24.2319 29.9782 23.9071 28.47C23.8996 28.4256 23.8892 28.3817 23.8761 28.3386C24.3015 28.3772 24.4716 28.6247 24.7346 29.0037C25.0516 29.4876 25.4431 29.9182 25.8947 30.2798C27.0161 31.1692 33.7988 32.6696 35.8483 32.9557C33.0409 35.9488 30.071 38.0679 26.9697 39.2976Z" fill="black"/>
<path d="M15.168 28.292C15.1692 28.3055 15.1665 28.319 15.1602 28.331H15.2382C15.237 28.3175 15.2397 28.304 15.246 28.292H15.168Z" fill="black"/>
<path d="M18.8879 39.0116L18.7719 40.3883L18.7642 40.4811C17.6307 40.3781 16.5095 40.1683 15.4154 39.8546C10.3806 38.4316 6.83072 35.1756 5.02871 33.3968C4.88176 33.2576 4.75029 33.1261 4.63428 33.0024C4.65748 32.9946 4.67295 32.9946 4.69615 32.9869C5.14472 32.8477 5.69383 32.6853 6.27388 32.5151C10.6977 31.1926 14.6652 29.9629 14.6497 29.4293C14.6265 28.8106 14.9668 28.4471 15.1602 28.3311H15.1757C15.1679 28.4161 15.1602 28.5167 15.1602 28.6249V28.7332C15.1834 29.4525 16.4982 32.8167 17.7588 36.0727C18.161 37.1246 18.5554 38.1377 18.8879 39.0116Z" fill="#103A4D"/>
<path d="M35.8561 32.9555C33.0409 35.9486 30.0711 38.0677 26.9775 39.2974C25.5901 39.8538 24.1372 40.2307 22.6542 40.4188L22.6156 40.3105L22.1206 38.8875C22.1902 38.5859 22.2676 38.2765 22.3449 37.9439C23.1415 34.5797 24.2397 29.978 23.9149 28.4699C23.9074 28.4254 23.8971 28.3815 23.8839 28.3384C24.3093 28.377 24.4795 28.6245 24.7424 29.0035C25.0594 29.4874 25.451 29.9181 25.9025 30.2796C27.0162 31.169 33.8066 32.6771 35.8561 32.9555Z" fill="#103A4D"/>
<path d="M15.1756 28.2534C15.1679 28.2921 15.1679 28.2921 15.1602 28.3308H15.2374H15.2373C15.2451 28.2921 15.2451 28.2921 15.2528 28.2534L15.1756 28.2534ZM20.4501 40.5968C20.2722 40.5968 20.0944 40.5968 19.9242 40.5891C20.2568 40.6045 20.5661 40.6045 20.8678 40.5891C20.7285 40.5968 20.5893 40.5968 20.4501 40.5968Z" fill="black"/>
<path d="M15.175 28.2533C15.1673 28.292 15.1673 28.292 15.1596 28.3307H15.144C14.9507 28.439 14.6104 28.8024 14.6336 29.4289C14.6491 29.9703 10.6816 31.2 6.25773 32.5147C5.67769 32.6849 5.13631 32.8473 4.68001 32.9865C4.66046 32.9953 4.63951 33.0005 4.61814 33.002L5.01257 33.3964C5.10538 33.5124 5.20592 33.6207 5.30646 33.729C5.4302 33.8682 5.55394 34.0074 5.68542 34.1466C5.20592 33.698 4.81149 33.3036 4.51759 33.0097L4.47119 32.9633L4.53306 32.9401C4.56506 32.9333 4.59619 32.9229 4.62587 32.9092C5.08217 32.77 5.63902 32.5998 6.23453 32.4297C9.35132 31.5016 14.5717 29.9393 14.5563 29.4212C14.5331 28.7483 14.912 28.3616 15.1131 28.2533L15.1208 28.2456L15.175 28.2533Z" fill="black"/>
<path d="M23.033 26.7527C23.035 26.7527 23.037 26.7519 23.0384 26.7505C23.0399 26.749 23.0407 26.7471 23.0407 26.745L23.033 26.7527ZM25.9487 19.3436L25.9641 19.3359C25.9719 19.3281 25.9796 19.3281 25.9796 19.3204C25.9796 19.3127 25.9641 19.3359 25.9487 19.3436ZM15.9409 26.7837C15.9409 26.7914 15.9487 26.7914 15.9487 26.7991V26.7914C15.9487 26.7894 15.9478 26.7874 15.9464 26.7859C15.9449 26.7845 15.943 26.7837 15.9409 26.7837Z" fill="#AA5D2B"/>
<path d="M24.9978 18.3383V18.3229C24.9978 16.923 24.6189 15.9485 24.3095 15.3762C23.4201 13.7676 21.7882 12.9478 19.4526 12.9478C17.0937 12.9478 15.4077 13.7676 14.4487 15.3917C13.7063 16.6446 13.6521 17.9671 13.6521 18.3383C13.6536 18.5517 13.6303 18.7645 13.5825 18.9725L13.7217 19.0962C13.7539 18.9336 13.836 18.7851 13.9566 18.6714C14.0772 18.5577 14.2304 18.4845 14.3946 18.4621C15.137 18.3693 16.2971 18.3925 17.1401 18.4002C17.3876 18.4002 17.5964 18.4079 17.7589 18.4079C18.1688 18.4079 18.4162 18.4775 18.5555 18.6167C18.6637 18.7328 18.6869 18.8874 18.6869 19.0498H20.195C20.195 18.8874 20.2183 18.7328 20.3265 18.6167C20.4657 18.4698 20.7132 18.4079 21.1231 18.4079C21.2855 18.4079 21.5021 18.4079 21.7418 18.4002C22.5926 18.3847 23.7527 18.3693 24.4874 18.4621C24.6013 18.4746 24.7108 18.5132 24.8074 18.5749C24.904 18.6366 24.985 18.7197 25.0442 18.8178C25.0169 18.6594 25.0014 18.4991 24.9978 18.3383ZM18.0527 17.8279C18.0406 17.8543 18.0209 17.8765 17.9961 17.8916C17.9713 17.9068 17.9426 17.9142 17.9135 17.913C17.8897 17.9115 17.8662 17.9063 17.8439 17.8975C17.202 17.5727 15.8176 17.1396 15.1448 17.8665C15.1313 17.8817 15.1149 17.8939 15.0966 17.9025C15.0783 17.9111 15.0584 17.9159 15.0382 17.9166C15.0179 17.9174 14.9978 17.914 14.9789 17.9067C14.96 17.8994 14.9427 17.8884 14.9282 17.8743C14.8988 17.8464 14.8816 17.8081 14.8801 17.7676C14.8787 17.7271 14.8932 17.6876 14.9205 17.6577C15.7171 16.7993 17.2716 17.2633 17.9831 17.6268C18.0015 17.6348 18.0179 17.6465 18.0315 17.6612C18.0451 17.6758 18.0555 17.6932 18.062 17.7121C18.0686 17.731 18.0711 17.751 18.0695 17.7709C18.0679 17.7909 18.0622 17.8103 18.0527 17.8279ZM24.1162 17.6964C24.0893 17.7269 24.0516 17.7456 24.0111 17.7485C23.9705 17.7514 23.9305 17.7382 23.8996 17.7119C23.3505 17.2478 22.0821 17.4721 21.3629 17.7428C21.3456 17.7491 21.3271 17.7518 21.3087 17.7505C21.277 17.7504 21.246 17.7408 21.2198 17.7228C21.1936 17.7049 21.1734 17.6795 21.1618 17.65C21.1486 17.611 21.1508 17.5684 21.1681 17.5309C21.1854 17.4935 21.2163 17.4642 21.2546 17.4489C21.3319 17.418 23.2345 16.7297 24.1007 17.4798C24.1312 17.5067 24.1499 17.5444 24.1528 17.585C24.1557 17.6255 24.1425 17.6655 24.1162 17.6964Z" fill="#AA5D2B"/>
<path d="M25.887 22.5381C27.1321 21.8652 27.2791 21.1382 27.1012 20.1715C27.0084 19.6533 26.6681 19.3826 26.4129 19.3053C26.2195 19.2512 26.0416 19.2898 25.9334 19.4058C25.9256 19.4213 25.9024 19.4213 25.887 19.4136C25.8715 19.4058 25.8638 19.3981 25.8638 19.3826L25.4229 19.6379C25.4111 19.6441 25.3976 19.6468 25.3843 19.6456H25.3765L25.2064 19.8699V20.0555C25.2064 20.5273 24.9666 20.8676 24.5799 20.9449C24.1236 21.0377 23.474 21.0841 22.716 21.0841C20.4887 21.0841 20.2489 19.6843 20.2257 19.344H18.6867C18.6635 19.6843 18.4237 21.0841 16.1963 21.0841C15.4384 21.0841 14.7887 21.0377 14.3324 20.9449C13.9457 20.8676 13.706 20.5273 13.706 20.0555V19.9008L13.4198 19.576C13.4121 19.5837 13.4121 19.5915 13.4044 19.5992C13.3994 19.6105 13.392 19.6206 13.3826 19.6286C13.3732 19.6366 13.3622 19.6424 13.3502 19.6456C13.3382 19.6488 13.3257 19.6491 13.3135 19.6464C13.3014 19.6437 13.2901 19.6381 13.2806 19.6301L12.8321 19.2589C12.6749 19.1945 12.501 19.1837 12.3371 19.228C12.1747 19.2744 11.8962 19.4213 11.8112 19.8699C11.5946 21.0609 12.02 21.9503 13.0795 22.5226C13.0873 22.5272 13.0932 22.5344 13.096 22.5429C13.0988 22.5515 13.0985 22.5607 13.095 22.569C12.9867 22.9789 13.1337 24.0539 14.4871 25.1522C14.8966 25.4953 15.2651 25.8846 15.5853 26.3123C15.5636 26.2548 15.5481 26.1952 15.5389 26.1344V23.4971C15.5699 23.064 16.6294 22.5613 19.5374 22.5613H19.6998C19.839 22.4917 19.9628 22.4066 20.0014 22.2983C20.0246 22.2133 20.0014 22.1127 19.9164 21.989C19.5683 21.5017 19.4369 20.6355 19.4136 20.2566C19.4143 20.2367 19.4215 20.2176 19.4341 20.2023C19.4466 20.1869 19.4639 20.1761 19.4833 20.1715C19.5034 20.171 19.5231 20.1778 19.5387 20.1905C19.5543 20.2033 19.5648 20.2212 19.5683 20.2411C19.5915 20.6123 19.7153 21.4321 20.0478 21.8962C20.1638 22.0586 20.1948 22.2055 20.1561 22.337C20.1258 22.4264 20.0692 22.5046 19.9937 22.5613C22.5614 22.6077 23.4894 23.0872 23.4894 23.4971V25.9565C23.4674 26.0638 23.439 26.1697 23.4044 26.2736C23.7193 25.8582 24.0799 25.4794 24.4794 25.1444C25.8328 24.0462 25.9875 22.9712 25.8715 22.5613C25.8638 22.569 25.8715 22.5458 25.887 22.5381ZM13.1724 21.3625C13.1608 21.3695 13.1471 21.3723 13.1337 21.3703C13.117 21.3699 13.1008 21.3645 13.0873 21.3548L12.6155 20.9449C12.6064 20.9388 12.5987 20.9308 12.5929 20.9215C12.5871 20.9122 12.5834 20.9018 12.582 20.8909C12.5805 20.8801 12.5814 20.869 12.5845 20.8585C12.5877 20.848 12.593 20.8383 12.6002 20.83C12.6073 20.8218 12.6162 20.8151 12.6261 20.8105C12.6361 20.8059 12.6469 20.8035 12.6579 20.8034C12.6688 20.8032 12.6797 20.8055 12.6897 20.8099C12.6997 20.8143 12.7087 20.8208 12.716 20.8289L13.0254 21.0918C12.9213 20.7739 12.7784 20.47 12.6 20.187C12.5943 20.1784 12.5904 20.1687 12.5885 20.1586C12.5865 20.1485 12.5867 20.138 12.5888 20.1279C12.591 20.1179 12.5951 20.1083 12.6011 20.0998C12.607 20.0914 12.6145 20.0842 12.6232 20.0787C12.641 20.0687 12.6618 20.0655 12.6818 20.0698C12.7017 20.074 12.7194 20.0855 12.7315 20.1019C12.8862 20.3571 13.1878 20.9217 13.2188 21.2852C13.2174 21.3008 13.2125 21.3158 13.2045 21.3292C13.1964 21.3426 13.1855 21.354 13.1724 21.3625ZM25.7787 21.494C25.7726 21.4999 25.7653 21.5044 25.7573 21.507C25.7492 21.5097 25.7407 21.5105 25.7323 21.5095C25.7189 21.5107 25.7055 21.508 25.6936 21.5017C25.6792 21.4953 25.6675 21.4841 25.6604 21.47C25.6534 21.4559 25.6514 21.4398 25.6549 21.4244C25.6859 21.0609 25.9875 20.4886 26.1422 20.2411C26.1535 20.2237 26.1712 20.2114 26.1915 20.2071C26.2118 20.2027 26.233 20.2066 26.2505 20.2179C26.2679 20.2292 26.2801 20.2469 26.2845 20.2672C26.2888 20.2875 26.2849 20.3087 26.2737 20.3262C26.0984 20.6109 25.9557 20.9144 25.8483 21.2311L26.1577 20.9681C26.1733 20.9576 26.1923 20.9532 26.211 20.9556C26.2297 20.9581 26.2469 20.9674 26.2592 20.9817C26.2716 20.9959 26.2783 21.0142 26.2781 21.0331C26.2779 21.0519 26.2708 21.0701 26.2582 21.0841L25.7787 21.494Z" fill="#AA5D2B"/>
<path d="M15.9409 26.7837C15.9409 26.7914 15.9487 26.7914 15.9487 26.7991V26.7914C15.9487 26.7894 15.9478 26.7874 15.9464 26.7859C15.9449 26.7845 15.943 26.7837 15.9409 26.7837ZM25.9487 19.3436L25.9641 19.3359C25.9719 19.3281 25.9796 19.3281 25.9796 19.3204C25.9796 19.3127 25.9641 19.3359 25.9487 19.3436ZM23.033 26.7527C23.034 26.7527 23.035 26.7525 23.0359 26.7521C23.0368 26.7518 23.0377 26.7512 23.0384 26.7505C23.0391 26.7498 23.0397 26.7489 23.0401 26.748C23.0405 26.747 23.0407 26.746 23.0407 26.745L23.033 26.7527Z" fill="#AA5D2B"/>
<path d="M22.6693 23.5047C22.1511 23.0097 19.7072 23.0871 19.6066 23.0871C19.2818 23.0716 16.4434 22.9478 16.2114 23.7058V23.729C16.2114 24.5797 16.3893 25.9795 16.9848 26.6601C16.9926 26.6756 17.008 26.6833 17.0158 26.6988L17.0544 26.7375C17.1461 26.8343 17.2563 26.9117 17.3786 26.9648C17.5009 27.018 17.6326 27.0459 17.7659 27.0468C18.2687 27.0468 18.5393 26.8999 18.7095 26.7065C18.7172 26.6911 18.7327 26.6833 18.7404 26.6679C18.7482 26.6524 18.7636 26.6447 18.7714 26.6292C18.8482 26.519 18.9106 26.3995 18.957 26.2734C19.0807 25.9873 19.1813 25.763 19.5989 25.763C20.0707 25.763 20.2021 26.0414 20.3646 26.3662C20.4032 26.4436 20.4419 26.5209 20.4806 26.5905C20.4883 26.606 20.496 26.6137 20.5038 26.6292C20.5115 26.6447 20.5192 26.6524 20.527 26.6679C20.6014 26.7902 20.7075 26.8901 20.8342 26.9568C20.9609 27.0235 21.1033 27.0547 21.2462 27.0468C21.5169 27.0468 21.7489 26.8844 21.9423 26.6369C21.95 26.6215 21.9655 26.6137 21.9732 26.5983C21.9811 26.5836 21.9916 26.5705 22.0042 26.5596C22.561 25.7475 22.7776 24.1698 22.7776 23.7367C22.7778 23.6924 22.7683 23.6486 22.7495 23.6085C22.7308 23.5684 22.7034 23.5329 22.6693 23.5047ZM21.8185 26.5596C21.8108 26.5751 21.7953 26.5828 21.7876 26.5983C21.7799 26.6137 21.7644 26.6215 21.7489 26.6369C21.602 26.7916 21.4396 26.8922 21.2617 26.8922C21.1607 26.8988 21.0596 26.8812 20.9667 26.8409C20.8739 26.8005 20.7921 26.7385 20.7281 26.6601C20.7203 26.6447 20.7049 26.6369 20.6971 26.6215C20.6894 26.606 20.6816 26.5983 20.6739 26.5828C20.6117 26.4908 20.5598 26.3923 20.5192 26.2889C20.3646 25.9641 20.1867 25.5929 19.6144 25.5929C19.0962 25.5929 18.957 25.9022 18.8332 26.1961C18.7769 26.3532 18.6901 26.4978 18.578 26.6215L18.5393 26.6601C18.5227 26.6748 18.5045 26.6878 18.4852 26.6988C18.3383 26.8071 18.114 26.8767 17.7737 26.8767C17.5989 26.8789 17.428 26.8246 17.2864 26.722C17.271 26.7065 17.2555 26.6988 17.24 26.6833C17.2246 26.6679 17.2091 26.6601 17.1936 26.6447C16.5595 26.0801 16.3738 24.6029 16.3738 23.7367C16.5285 23.3113 18.1526 23.1644 19.6144 23.234C20.8131 23.1953 22.2439 23.2959 22.5687 23.6052C22.6038 23.6343 22.626 23.6759 22.6306 23.7212C22.6229 24.2317 22.3677 25.8558 21.8185 26.5596Z" fill="#AA5D2B"/>
<path d="M25.9487 19.3438L25.9643 19.336C25.9721 19.3282 25.98 19.3282 25.98 19.3204C25.98 19.3126 25.9643 19.336 25.9487 19.3438Z" fill="black"/>
<path d="M25.2525 19.0114L25.1907 19.0655L25.1597 19.0887C25.1388 18.9919 25.0994 18.9 25.0437 18.818C25.0104 18.6603 24.9923 18.4997 24.9896 18.3385V18.3231C24.9896 16.9232 24.6106 15.9488 24.3013 15.3764C23.4119 13.7678 21.78 12.948 19.4443 12.948C17.0855 12.948 15.3995 13.7678 14.4405 15.3919C13.698 16.6448 13.6439 17.9673 13.6439 18.3385C13.6454 18.5519 13.622 18.7648 13.5743 18.9727L13.5047 18.9109L13.4351 18.849C13.4669 18.6781 13.4824 18.5046 13.4815 18.3308C13.4815 17.9441 13.5433 16.5829 14.3013 15.2991C15.2912 13.6286 17.0159 12.7778 19.4366 12.7778C21.8341 12.7778 23.5124 13.6208 24.425 15.2836C24.7498 15.8714 25.1365 16.8768 25.1365 18.3076V18.3231C25.1538 18.5556 25.1926 18.7861 25.2525 19.0114Z" fill="black"/>
<path d="M13.2885 19.4519L13.0875 19.2895L13.0488 19.2585L13.0101 19.2276L12.7549 19.0188C12.7394 18.9492 12.724 18.8719 12.7085 18.8022L12.9947 19.1348L13.0333 19.1812L13.072 19.2276L13.2885 19.4519Z" fill="#2D140F"/>
<path d="M25.8867 18.9883C25.8877 19.022 25.8851 19.0557 25.8789 19.0888C25.8712 19.1352 25.8635 19.1816 25.8557 19.2203L25.5928 19.375L25.8867 18.9883Z" fill="#2D140F"/>
<path d="M25.9876 18.3073C25.9876 18.3383 25.9799 18.3615 25.9799 18.3924L25.949 18.4233L25.9103 18.4543L25.2606 19.0111C25.1959 18.7926 25.1621 18.5661 25.1601 18.3383V18.3228C25.1601 16.892 24.7734 15.8866 24.4486 15.2988C23.536 13.636 21.8577 12.793 19.4602 12.793C17.0395 12.793 15.3148 13.6438 14.3248 15.3143C13.5669 16.5981 13.505 17.9593 13.505 18.346C13.5056 18.5198 13.4901 18.6933 13.4586 18.8642L13.0565 18.5084L13.0178 18.4697L12.9791 18.4311L12.6156 18.1062C12.3836 16.1341 12.6311 13.6128 14.0232 11.8959C15.1678 10.4806 16.908 9.76904 19.2127 9.76904C21.4942 9.76904 23.2421 10.4883 24.4176 11.8959C25.8716 13.6592 26.1965 16.2114 25.9876 18.3073Z" fill="#2D140F"/>
<path d="M24.1157 17.6963C24.0889 17.7268 24.0511 17.7455 24.0106 17.7484C23.9701 17.7513 23.9301 17.7382 23.8992 17.7118C23.3501 17.2478 22.0817 17.472 21.3624 17.7427C21.3451 17.7491 21.3267 17.7517 21.3083 17.7505C21.2765 17.7503 21.2456 17.7407 21.2194 17.7228C21.1932 17.7048 21.173 17.6795 21.1613 17.6499C21.1481 17.6109 21.1504 17.5683 21.1676 17.5309C21.1849 17.4934 21.2159 17.4641 21.2542 17.4488C21.3315 17.4179 23.234 16.7296 24.1002 17.4798C24.1307 17.5066 24.1495 17.5444 24.1524 17.5849C24.1553 17.6254 24.1421 17.6654 24.1157 17.6963Z" fill="#2D140F"/>
<path d="M18.0526 17.8278C18.0405 17.8542 18.0208 17.8764 17.996 17.8916C17.9712 17.9067 17.9424 17.9141 17.9134 17.9129C17.8895 17.9114 17.866 17.9062 17.8438 17.8974C17.2019 17.5726 15.8175 17.1395 15.1447 17.8665C15.1312 17.8816 15.1148 17.8938 15.0965 17.9024C15.0781 17.911 15.0583 17.9158 15.038 17.9165C15.0178 17.9173 14.9976 17.9139 14.9787 17.9066C14.9598 17.8993 14.9426 17.8883 14.9281 17.8742C14.8987 17.8463 14.8814 17.808 14.88 17.7675C14.8785 17.727 14.893 17.6876 14.9204 17.6576C15.717 16.7992 17.2715 17.2632 17.983 17.6267C18.0013 17.6347 18.0178 17.6464 18.0314 17.6611C18.045 17.6758 18.0554 17.6931 18.0619 17.712C18.0685 17.7309 18.071 17.7509 18.0694 17.7709C18.0678 17.7908 18.0621 17.8102 18.0526 17.8278Z" fill="#2D140F"/>
<path d="M18.4547 18.7328C18.3542 18.6245 18.1299 18.5703 17.7741 18.5703C17.6117 18.5703 17.3952 18.5703 17.1477 18.5626C16.8151 18.5549 16.4362 18.5471 16.0572 18.5471C15.5124 18.54 14.9676 18.5633 14.4253 18.6168C14.0077 18.6709 13.853 19.0499 13.853 19.3901V20.063C13.853 20.4652 14.0386 20.7436 14.3557 20.8055C14.6728 20.8673 15.2374 20.9447 16.1887 20.9447C18.2846 20.9447 18.5089 19.7072 18.5243 19.3205C18.5231 19.2894 18.5257 19.2582 18.5321 19.2277C18.5475 19.0112 18.5553 18.8488 18.4547 18.7328ZM17.3178 20.3724C17.1477 20.3724 17.0085 20.1403 17.0007 19.8542C16.993 19.568 17.1245 19.3205 17.2869 19.3205C17.4493 19.3205 17.5963 19.5526 17.604 19.8464C17.6117 20.1403 17.488 20.3724 17.3178 20.3724Z" fill="#8E564B"/>
<path d="M24.4797 18.6246C23.9374 18.5711 23.3926 18.5479 22.8478 18.555C22.4611 18.555 22.0822 18.5627 21.7573 18.5704C21.5098 18.5704 21.301 18.5782 21.1309 18.5782C20.7751 18.5782 20.5508 18.6323 20.4503 18.7406C20.3497 18.8488 20.3575 19.019 20.3729 19.2355C20.3717 19.2667 20.3743 19.2979 20.3807 19.3284C20.3962 19.7073 20.6204 20.9525 22.7163 20.9525C23.6676 20.9525 24.2399 20.8751 24.5493 20.8133C24.8586 20.7514 25.052 20.473 25.052 20.0708V19.398C25.0443 19.0577 24.8973 18.671 24.4797 18.6246ZM22.0976 19.8852C22.0589 20.1482 21.9043 20.3492 21.7573 20.326C21.6104 20.3028 21.5176 20.0708 21.5562 19.8079C21.5949 19.5449 21.7496 19.3516 21.8965 19.367C22.0435 19.3825 22.1363 19.6222 22.0976 19.8852Z" fill="#8E564B"/>
<path d="M15.2143 28.2534C15.2065 28.2925 15.2065 28.2924 15.1987 28.3315H15.2377H15.2376C15.2454 28.2924 15.2454 28.2925 15.2532 28.2534L15.2143 28.2534Z" fill="#D9D9D9"/>
<path d="M22.2677 37.9283C22.1981 38.2144 22.1362 38.4929 22.0744 38.7481L20.6126 34.5331C20.8447 34.3243 21.2314 33.6514 21.185 32.4758C21.1695 31.9654 21.0148 31.5787 20.7287 31.3157C20.499 31.1129 20.1994 31.0075 19.8934 31.0219C19.615 30.9755 19.2128 31.0219 18.9344 31.2616C18.7178 31.4472 18.6095 31.7179 18.6095 32.0737C18.6095 33.025 19.0272 34.0845 19.2592 34.5176L18.9112 38.8177C18.5863 37.9747 18.2151 37.0157 17.8362 36.0335C17.2329 34.4789 16.591 32.8316 16.096 31.4782C15.601 30.1247 15.253 29.0729 15.2375 28.7171C15.2303 28.5829 15.2355 28.4483 15.253 28.315C15.2518 28.3016 15.2545 28.2882 15.2607 28.2763C15.2595 28.2629 15.2622 28.2495 15.2685 28.2376C15.3226 27.9283 15.4386 27.7581 15.5392 27.6653C15.5917 27.6193 15.6532 27.5846 15.7197 27.5633C15.7862 27.5421 15.8564 27.5347 15.9259 27.5416V28.547L15.9413 28.5547C16.7921 29.3359 18.6482 30.8053 19.5918 30.8053C20.5353 30.8053 22.3141 29.3359 23.1184 28.5547L23.1339 28.547V27.5493C23.4742 27.6267 23.6908 27.9592 23.7913 28.2376C23.799 28.2531 23.799 28.2608 23.8068 28.2763C23.8145 28.2918 23.8145 28.2995 23.8222 28.315C23.8378 28.3658 23.8508 28.4174 23.8609 28.4697C24.1548 29.9778 23.0643 34.5717 22.2677 37.9283Z" fill="#D9D9D9"/>
<path d="M15.1756 28.2534C15.1679 28.2921 15.1679 28.2921 15.1602 28.3308H15.2374H15.2373C15.2451 28.2921 15.2451 28.2921 15.2528 28.2534L15.1756 28.2534Z" fill="black"/>
<path d="M25.9873 18.3849L25.9486 18.4236L25.9099 18.4545L25.2603 19.0113L25.1984 19.0655L25.1675 19.0887C25.1465 18.9918 25.1071 18.9 25.0514 18.818C24.991 18.7209 24.9096 18.6386 24.8133 18.5771C24.7169 18.5155 24.6081 18.4763 24.4946 18.4622C23.7521 18.3694 22.592 18.3926 21.749 18.4004C21.5016 18.4004 21.2927 18.4081 21.1303 18.4081C20.7204 18.4081 20.4729 18.4777 20.3337 18.6169C20.2255 18.7329 20.2023 18.8876 20.2023 19.05H18.6941C18.6941 18.8876 18.6709 18.7329 18.5627 18.6169C18.4234 18.47 18.176 18.4081 17.7661 18.4081C17.6037 18.4081 17.3871 18.4081 17.1473 18.4004C16.2966 18.3849 15.1365 18.3694 14.4018 18.4622C14.0615 18.5009 13.8217 18.7406 13.7289 19.0964L13.5897 18.9727L13.5201 18.9108L13.4505 18.8489L13.0484 18.4932L13.0097 18.4545L12.971 18.4158L12.6075 18.091L12.5688 18.0601L12.6462 18.7097L12.7081 18.7793L12.9942 19.1119L13.0329 19.1583L13.0716 19.2047L13.2804 19.4367L13.3422 19.5063L13.3964 19.5682L13.6825 19.893V20.0477C13.6825 20.5195 13.9223 20.8598 14.309 20.9371C14.7653 21.0299 15.4149 21.0763 16.1729 21.0763C18.4002 21.0763 18.64 19.6765 18.6632 19.3362H20.2023C20.2255 19.6765 20.4652 21.0763 22.6926 21.0763C23.4505 21.0763 24.1002 21.0299 24.5565 20.9371C24.9432 20.8598 25.1829 20.5195 25.1829 20.0477V19.8621L25.3531 19.6378L25.4459 19.514L25.5696 19.3516L25.8635 18.9649L25.879 18.9495L25.9022 18.9185L25.9099 18.8799L25.9563 18.6169L26.0105 18.3307L25.9873 18.3849ZM18.5317 19.2356C18.533 19.2668 18.5304 19.2979 18.524 19.3284C18.5008 19.7074 18.2765 20.9526 16.1883 20.9526C15.2371 20.9526 14.6647 20.8752 14.3554 20.8133C14.046 20.7515 13.8527 20.4731 13.8527 20.0709V19.398C13.8527 19.0577 13.9996 18.671 14.425 18.6246C14.9672 18.5712 15.512 18.5479 16.0569 18.555C16.4436 18.555 16.8225 18.5628 17.1473 18.5705C17.3948 18.5705 17.6037 18.5782 17.7738 18.5782C18.1296 18.5782 18.3538 18.6324 18.4544 18.7406C18.5549 18.8489 18.5472 19.0113 18.5317 19.2356ZM25.0437 20.0709C25.0437 20.4731 24.8581 20.7515 24.541 20.8133C24.2239 20.8752 23.6593 20.9526 22.7081 20.9526C20.6122 20.9526 20.3879 19.7151 20.3724 19.3284C20.3737 19.2973 20.3711 19.2661 20.3647 19.2356C20.3492 19.0191 20.3415 18.8489 20.442 18.7406C20.5426 18.6324 20.7668 18.5782 21.1226 18.5782C21.285 18.5782 21.5016 18.5782 21.749 18.5705C22.0816 18.5628 22.4606 18.555 22.8395 18.555C23.3844 18.5479 23.9292 18.5712 24.4714 18.6246C24.889 18.6788 25.0437 19.0577 25.0437 19.398V20.0709Z" fill="black"/>
<path d="M23.0329 27.0698V28.5315C22.2286 29.3049 20.4962 30.7512 19.5759 30.7512C18.6555 30.7512 16.838 29.3049 15.9873 28.5315V27.1626C16.0578 27.2751 16.138 27.3812 16.2271 27.4797C16.2348 27.4952 16.2503 27.5029 16.258 27.5184C16.2657 27.5339 16.2812 27.5416 16.2889 27.5571C16.5257 27.8259 16.7991 28.0602 17.101 28.2531C17.1242 28.2686 17.1397 28.2763 17.1629 28.2918C17.1845 28.3029 17.2052 28.3158 17.2247 28.3305C17.8125 28.6708 18.5704 28.9028 19.5295 28.9028C20.4575 28.9028 21.1923 28.6708 21.7646 28.3305C21.7878 28.315 21.8032 28.3073 21.8264 28.2918C21.8496 28.2763 21.8651 28.2686 21.8883 28.2531C22.1913 28.0525 22.4647 27.8104 22.7004 27.5339C22.7081 27.5184 22.7236 27.5107 22.7313 27.4952C22.739 27.4797 22.7545 27.472 22.7622 27.4565C22.862 27.3345 22.9524 27.2053 23.0329 27.0698Z" fill="#AA5D2B"/>
<path d="M23.0327 26.7528C23.0348 26.7528 23.0367 26.752 23.0382 26.7506C23.0396 26.7491 23.0404 26.7472 23.0404 26.7451L23.0327 26.7528Z" fill="#AA5D2B"/>
<path d="M15.9409 26.7838C15.9409 26.7915 15.9487 26.7915 15.9487 26.7993V26.7915C15.9487 26.7895 15.9478 26.7875 15.9464 26.7861C15.9449 26.7846 15.943 26.7838 15.9409 26.7838ZM23.033 26.7528C23.035 26.7528 23.037 26.752 23.0384 26.7506C23.0399 26.7491 23.0407 26.7472 23.0407 26.7451L23.033 26.7528Z" fill="black"/>
<path d="M22.5694 40.4345C21.9661 40.5118 21.4325 40.5737 20.8679 40.5969H20.8602C20.721 40.5969 20.5818 40.6046 20.4425 40.6046C20.2647 40.6046 20.0868 40.6046 19.9166 40.5969H19.8702C19.5531 40.5814 19.2128 40.5582 18.8416 40.5118V40.4963L18.8493 40.4035L18.9499 39.1893L18.9576 39.0965L18.9654 39.0114L19.3289 34.5335V34.5257L19.3211 34.518C19.0968 34.0926 18.6792 33.0408 18.6792 32.0973C18.6792 31.7647 18.7797 31.5095 18.9808 31.3393C19.2438 31.1151 19.615 31.0764 19.878 31.1228H19.8857C20.1713 31.1086 20.4513 31.2056 20.6668 31.3935C20.9375 31.6332 21.0845 32.0045 21.0999 32.4994C21.1463 33.675 20.7442 34.3246 20.5353 34.5103L20.5121 34.5257L22.028 38.9031L22.0512 38.9728L22.0744 39.0424L22.523 40.3339L22.5694 40.4345Z" fill="#F85750"/>
<path d="M15.9409 26.7838C15.9409 26.7915 15.9487 26.7915 15.9487 26.7993V26.7915C15.9487 26.7895 15.9478 26.7875 15.9464 26.7861C15.9449 26.7846 15.943 26.7838 15.9409 26.7838ZM23.033 26.7528C23.035 26.7528 23.037 26.752 23.0384 26.7506C23.0399 26.7491 23.0407 26.7472 23.0407 26.7451L23.033 26.7528Z" fill="#2D140F"/>
<path d="M19.731 22.7314H19.4061C16.4286 22.7469 15.7093 23.3115 15.6938 23.5203V26.1267C15.744 26.3361 15.8193 26.5386 15.9181 26.7299C15.9267 26.7489 15.9371 26.767 15.9491 26.784L15.9568 26.7918V26.7995C15.9723 26.8227 15.98 26.8459 15.9955 26.8691L16.0651 26.9851C16.1198 27.0801 16.1818 27.1706 16.2507 27.2558C16.3048 27.3331 16.3667 27.4028 16.4286 27.4801C16.4412 27.491 16.4516 27.5041 16.4595 27.5188L16.4982 27.5574C16.7627 27.8394 17.0709 28.077 17.4108 28.2612C17.4358 28.2757 17.4616 28.2886 17.4881 28.2999C17.5113 28.3154 17.5423 28.3231 17.5655 28.3386C18.0914 28.5938 18.741 28.7562 19.5376 28.7562C20.1984 28.769 20.8528 28.6259 21.4479 28.3386C21.4729 28.3241 21.4987 28.3112 21.5252 28.2999C21.5484 28.2844 21.5717 28.2767 21.5949 28.2612C21.9349 28.0676 22.2427 27.8223 22.5075 27.5342C22.52 27.5233 22.5305 27.5102 22.5384 27.4956C22.5461 27.4801 22.5616 27.4724 22.5693 27.4569C22.6482 27.3668 22.7206 27.2711 22.7859 27.1707C22.84 27.0934 22.8942 27.0083 22.9406 26.931C22.9715 26.8691 23.0024 26.815 23.0334 26.7531V26.7454L23.0411 26.7376C23.0498 26.7163 23.0602 26.6956 23.072 26.6758C23.0875 26.6526 23.0952 26.6216 23.1107 26.5984C23.2094 26.395 23.2797 26.179 23.3195 25.9565V23.5203C23.3273 23.3192 22.6621 22.7546 19.731 22.7314ZM22.0125 26.552C22.0048 26.5675 21.9893 26.5752 21.9815 26.5907C21.9738 26.6062 21.9583 26.6139 21.9506 26.6294C21.7573 26.8768 21.533 27.0393 21.2546 27.0393C21.1116 27.0471 20.9692 27.016 20.8425 26.9492C20.7159 26.8825 20.6097 26.7826 20.5353 26.6603C20.5276 26.6448 20.5198 26.6371 20.5121 26.6216C20.5044 26.6062 20.4966 26.5984 20.4889 26.583C20.4425 26.5056 20.4116 26.4283 20.3729 26.3587C20.2182 26.0338 20.079 25.7554 19.6072 25.7554C19.1896 25.7554 19.0891 25.9797 18.9653 26.2659C18.9127 26.389 18.8506 26.508 18.7797 26.6216C18.772 26.6371 18.7565 26.6448 18.7488 26.6603C18.741 26.6758 18.7256 26.6835 18.7178 26.699C18.5477 26.8923 18.277 27.0393 17.7743 27.0393C17.6408 27.0391 17.5088 27.0115 17.3865 26.9583C17.2641 26.9051 17.1539 26.8274 17.0628 26.7299L17.0241 26.6912C17.0115 26.6803 17.001 26.6672 16.9932 26.6526C16.3976 25.9797 16.2198 24.5721 16.2198 23.7214V23.6982C16.4518 22.9403 19.2901 23.064 19.615 23.0795C19.7155 23.0795 22.1672 23.0021 22.6776 23.4971C22.7096 23.5255 22.7356 23.5599 22.7541 23.5984C22.7727 23.6369 22.7835 23.6787 22.7859 23.7214C22.7781 24.1622 22.5693 25.74 22.0125 26.552Z" fill="#2D140F"/>
<path d="M22.5689 23.613C22.2441 23.296 20.8056 23.1954 19.6146 23.2418C18.1451 23.1645 16.5287 23.3192 16.374 23.7445C16.374 24.6185 16.5596 26.0879 17.1938 26.6525C17.2093 26.668 17.2248 26.6757 17.2402 26.6912C17.2557 26.7066 17.2712 26.7144 17.2866 26.7298C17.4282 26.8324 17.599 26.8867 17.7739 26.8845C18.1142 26.8845 18.3384 26.8149 18.4854 26.7066C18.5009 26.6912 18.5241 26.6834 18.5395 26.668C18.555 26.6525 18.5705 26.6448 18.5782 26.6293C18.6849 26.5017 18.771 26.3581 18.8334 26.2039C18.9649 25.9023 19.0964 25.6007 19.6146 25.6007C20.1791 25.6007 20.357 25.9719 20.5194 26.2967C20.5736 26.405 20.62 26.4978 20.6741 26.5906C20.6818 26.6061 20.6896 26.6138 20.6973 26.6293C20.705 26.6448 20.7205 26.6525 20.7282 26.668C20.7914 26.7428 20.8706 26.8025 20.9599 26.8428C21.0491 26.883 21.1463 26.9027 21.2442 26.9005C21.3421 26.8983 21.4383 26.8742 21.5257 26.8299C21.613 26.7856 21.6894 26.7224 21.7491 26.6448L21.7878 26.6061C21.7955 26.5906 21.811 26.5829 21.8187 26.5674C22.3756 25.8636 22.6308 24.2472 22.6308 23.7445C22.6264 23.6947 22.6045 23.6481 22.5689 23.613ZM21.548 24.4096C20.7669 24.8891 19.9239 24.9897 19.1892 24.9201C18.5917 24.8626 18.0112 24.6892 17.48 24.4096C17.4706 24.4048 17.4623 24.3981 17.4556 24.3899C17.449 24.3818 17.444 24.3723 17.4411 24.3622C17.4382 24.352 17.4374 24.3414 17.4388 24.331C17.4402 24.3205 17.4436 24.3104 17.449 24.3014C17.457 24.2901 17.4674 24.2808 17.4794 24.2741C17.4915 24.2674 17.5049 24.2635 17.5186 24.2627C17.532 24.2607 17.5457 24.2634 17.5573 24.2704C18.0675 24.5365 18.6242 24.7019 19.1969 24.7577C19.9084 24.8273 20.705 24.7345 21.4552 24.2782C21.4738 24.2662 21.4963 24.262 21.5179 24.2663C21.5396 24.2706 21.5587 24.2832 21.5712 24.3014C21.5798 24.3155 21.5851 24.3313 21.5867 24.3478C21.5874 24.3608 21.5841 24.3738 21.5772 24.3848C21.5702 24.3959 21.5601 24.4046 21.548 24.4096Z" fill="#AA5D2B"/>
<path d="M22.097 19.8853C22.0584 20.1482 21.9037 20.3493 21.7568 20.3261C21.6098 20.3029 21.517 20.0709 21.5557 19.8079C21.5943 19.545 21.749 19.3516 21.896 19.3671C22.0429 19.3825 22.1357 19.6223 22.097 19.8853Z" fill="black"/>
<path d="M17.6119 19.839C17.6196 20.1329 17.4881 20.3726 17.3257 20.3726C17.1633 20.3726 17.0164 20.1406 17.0086 19.8544C17.0009 19.5683 17.1324 19.3208 17.2948 19.3208C17.4572 19.3208 17.6041 19.5451 17.6119 19.839Z" fill="black"/>
<path fill-rule="evenodd" clip-rule="evenodd" d="M21.5865 24.3402C21.5866 24.3541 21.5831 24.3679 21.5763 24.3801C21.5696 24.3923 21.5598 24.4025 21.5479 24.4098C20.7667 24.8893 19.9237 24.9898 19.189 24.9202C18.5915 24.8627 18.011 24.6893 17.4798 24.4098C17.4704 24.405 17.4622 24.3982 17.4555 24.3901C17.4488 24.3819 17.4439 24.3725 17.441 24.3623C17.4381 24.3522 17.4373 24.3416 17.4386 24.3311C17.44 24.3207 17.4435 24.3106 17.4489 24.3015C17.4568 24.2903 17.4672 24.281 17.4793 24.2743C17.4913 24.2676 17.5047 24.2637 17.5185 24.2629C17.5319 24.2608 17.5456 24.2636 17.5572 24.2706C18.0674 24.5367 18.624 24.7021 19.1968 24.7578C19.9083 24.8274 20.7049 24.7346 21.4551 24.2783C21.4736 24.2664 21.4961 24.2621 21.5178 24.2665C21.5394 24.2708 21.5585 24.2834 21.5711 24.3015C21.5865 24.3093 21.5865 24.3247 21.5865 24.3402Z" fill="black"/>
<path d="M13.2108 21.2851C13.2109 21.3002 13.2075 21.315 13.2008 21.3285C13.194 21.3419 13.1842 21.3536 13.1721 21.3625C13.1605 21.3695 13.1469 21.3722 13.1335 21.3702C13.1168 21.3699 13.1006 21.3645 13.0871 21.3547L12.6153 20.9448C12.6062 20.9387 12.5985 20.9308 12.5927 20.9215C12.5869 20.9122 12.5832 20.9017 12.5817 20.8909C12.5803 20.88 12.5812 20.869 12.5843 20.8585C12.5874 20.848 12.5928 20.8383 12.5999 20.83C12.6071 20.8217 12.616 20.815 12.6259 20.8104C12.6359 20.8058 12.6467 20.8034 12.6576 20.8033C12.6686 20.8032 12.6794 20.8054 12.6895 20.8098C12.6995 20.8142 12.7085 20.8207 12.7158 20.8288L13.0252 21.0918C12.921 20.7739 12.7782 20.47 12.5998 20.1869C12.5941 20.1783 12.5902 20.1687 12.5882 20.1585C12.5863 20.1484 12.5864 20.138 12.5886 20.1279C12.5908 20.1178 12.5949 20.1082 12.6008 20.0998C12.6067 20.0913 12.6143 20.0841 12.623 20.0786C12.6408 20.0686 12.6616 20.0655 12.6816 20.0697C12.7015 20.074 12.7192 20.0854 12.7313 20.1018C12.886 20.3493 13.1876 20.9216 13.2108 21.2851Z" fill="black"/>
<path d="M26.2505 21.0838L25.7788 21.4937C25.7727 21.4996 25.7654 21.5041 25.7573 21.5068C25.7493 21.5094 25.7408 21.5103 25.7324 21.5092C25.719 21.5104 25.7056 21.5077 25.6937 21.5015C25.6793 21.4951 25.6676 21.4838 25.6605 21.4697C25.6535 21.4556 25.6515 21.4395 25.655 21.4241C25.686 21.0606 25.9876 20.4883 26.1423 20.2408C26.1536 20.2234 26.1713 20.2112 26.1916 20.2068C26.2119 20.2025 26.2331 20.2064 26.2505 20.2176C26.268 20.2289 26.2802 20.2467 26.2846 20.267C26.2889 20.2873 26.285 20.3085 26.2737 20.3259C26.0985 20.6106 25.9558 20.9142 25.8484 21.2308L26.1577 20.9678C26.1732 20.9546 26.1932 20.9481 26.2135 20.9495C26.2337 20.951 26.2526 20.9603 26.266 20.9756C26.2769 20.9925 26.2813 21.0127 26.2785 21.0326C26.2756 21.0525 26.2657 21.0707 26.2505 21.0838Z" fill="#2D140F"/>
<path d="M27.1706 20.1561C27.0701 19.5993 26.7066 19.3131 26.4282 19.2358C26.2887 19.1883 26.1363 19.1966 26.0028 19.259C26.4204 17.0084 26.2426 13.8684 24.5179 11.7957C23.3114 10.3495 21.5248 9.61475 19.1969 9.61475C16.8458 9.61475 15.0593 10.3495 13.8914 11.8035C12.2364 13.853 12.1668 17.0084 12.6076 19.0811C12.6076 19.0966 12.6231 19.112 12.6308 19.1275L12.6695 19.1584C12.5487 19.1363 12.4245 19.1416 12.306 19.1739C12.1281 19.228 11.8187 19.3827 11.7259 19.8777C11.5016 21.0919 11.9347 22.0123 13.0098 22.6001C12.9092 23.0486 13.0794 24.1314 14.4328 25.2373C14.9432 25.655 15.3067 26.119 15.6625 26.5676C15.7326 26.736 15.8153 26.8989 15.91 27.0548V27.4956C15.8308 27.4857 15.7504 27.493 15.6744 27.517C15.5983 27.5411 15.5283 27.5813 15.4692 27.6349C15.3531 27.7354 15.2217 27.921 15.1675 28.2613H15.2449C15.299 27.9519 15.415 27.7818 15.5156 27.689C15.5681 27.643 15.6296 27.6083 15.6961 27.587C15.7626 27.5657 15.8328 27.5583 15.9023 27.5652V28.5707L15.9177 28.5784C16.7685 29.3595 18.6246 30.829 19.5682 30.829C20.5117 30.829 22.2905 29.3595 23.0948 28.5784L23.1103 28.5707V27.573C23.4506 27.6503 23.6671 27.9829 23.7677 28.2613H23.845C23.7368 27.9597 23.5047 27.5652 23.1103 27.4879V26.9388C23.1858 26.8077 23.2505 26.6706 23.3036 26.5289C23.6517 26.0881 24.0074 25.6395 24.5101 25.2296C25.8636 24.1314 26.0415 23.0486 25.9332 22.5923C27.2093 21.904 27.3562 21.1461 27.1706 20.1561ZM23.033 28.532C22.2286 29.3054 20.4962 30.7516 19.5759 30.7516C18.6555 30.7516 16.8381 29.3054 15.9873 28.532V27.1631C16.0579 27.2756 16.1381 27.3817 16.2271 27.4802C16.2348 27.4956 16.2503 27.5034 16.258 27.5188C16.2658 27.5343 16.2812 27.542 16.289 27.5575C16.5258 27.8264 16.7991 28.0607 17.101 28.2536C17.1242 28.269 17.1397 28.2768 17.1629 28.2922C17.1846 28.3034 17.2053 28.3163 17.2248 28.3309C17.8125 28.6712 18.5705 28.9032 19.5295 28.9032C20.4576 28.9032 21.1923 28.6712 21.7646 28.3309C21.7878 28.3154 21.8033 28.3077 21.8265 28.2922C21.8497 28.2768 21.8651 28.269 21.8883 28.2536C22.1913 28.053 22.4647 27.8109 22.7004 27.5343C22.7081 27.5188 22.7236 27.5111 22.7313 27.4956C22.7391 27.4802 22.7545 27.4724 22.7623 27.457C22.8628 27.3255 22.9556 27.194 23.033 27.0703V28.532ZM23.3269 25.9566C23.2787 26.177 23.2087 26.392 23.118 26.5985C23.1026 26.6217 23.0948 26.6526 23.0794 26.6758C23.0706 26.6972 23.0603 26.7179 23.0484 26.7377C23.0484 26.7455 23.0407 26.7454 23.0407 26.7532C23.0098 26.8151 22.9788 26.8692 22.9479 26.9311C22.9015 27.0084 22.8473 27.0935 22.7932 27.1708C22.7236 27.2636 22.654 27.3642 22.5767 27.457C22.5689 27.4724 22.5535 27.4802 22.5457 27.4956C22.538 27.5111 22.5225 27.5188 22.5148 27.5343C22.2555 27.8282 21.9466 28.0742 21.6022 28.2613C21.579 28.2768 21.5558 28.2845 21.5326 28.3C21.5076 28.3144 21.4818 28.3273 21.4552 28.3386C20.8598 28.6252 20.2056 28.7682 19.5449 28.7563C18.7484 28.7563 18.0987 28.5939 17.5728 28.3386C17.5496 28.3232 17.5187 28.3154 17.4955 28.3C17.4705 28.2855 17.4446 28.2726 17.4181 28.2613C17.0765 28.0797 16.768 27.8417 16.5055 27.5575L16.4668 27.5188C16.4591 27.5034 16.4436 27.4956 16.4359 27.4802C16.3724 27.4089 16.313 27.334 16.258 27.2559C16.1884 27.1631 16.1265 27.0703 16.0724 26.9852L16.0028 26.8692C15.9873 26.846 15.9796 26.8228 15.9641 26.7996C15.9641 26.7919 15.9564 26.7919 15.9564 26.7841C15.9478 26.7652 15.9374 26.747 15.9255 26.73C15.8266 26.5387 15.7513 26.3361 15.7012 26.1267V23.5204C15.7166 23.3193 16.4359 22.747 19.4135 22.7315H19.7383C22.6695 22.7547 23.3346 23.3193 23.3346 23.5127V25.9566H23.3269ZM25.8868 22.5382C25.879 22.5427 25.8732 22.5499 25.8703 22.5585C25.8675 22.567 25.8678 22.5763 25.8713 22.5846C25.9796 22.9945 25.8327 24.0695 24.4792 25.1677C24.0778 25.5007 23.717 25.8797 23.4042 26.2969C23.4378 26.1927 23.4662 26.0868 23.4893 25.9798V23.5204C23.4893 23.1105 22.5612 22.631 19.9935 22.5846C20.0673 22.5263 20.1236 22.4486 20.1559 22.3603C20.1741 22.2835 20.1738 22.2035 20.1549 22.1268C20.1361 22.0502 20.0993 21.9791 20.0477 21.9195C19.7228 21.4554 19.5914 20.6356 19.5682 20.2644C19.5661 20.2439 19.556 20.225 19.54 20.212C19.5241 20.1989 19.5036 20.1927 19.4831 20.1948C19.4626 20.1968 19.4437 20.207 19.4307 20.2229C19.4176 20.2389 19.4114 20.2594 19.4135 20.2799C19.4367 20.6666 19.5682 21.525 19.9162 22.0123C20.0013 22.1283 20.0322 22.2366 20.0013 22.3216C19.9626 22.4376 19.8388 22.5227 19.6996 22.5846H19.5372C16.6293 22.5846 15.562 23.0873 15.5388 23.5204V26.1577C15.5542 26.2118 15.5697 26.2737 15.5852 26.3356C15.2648 25.908 14.8963 25.5188 14.4869 25.1755C13.1335 24.0772 12.9866 23.0022 13.0948 22.5923C13.0983 22.584 13.0987 22.5747 13.0958 22.5662C13.093 22.5577 13.0871 22.5505 13.0794 22.5459C12.0198 21.9736 11.5944 21.0842 11.811 19.8932C11.8961 19.4369 12.1745 19.2977 12.3369 19.2513C12.5008 19.2066 12.6748 19.2175 12.8319 19.2822L13.2804 19.6534C13.29 19.6614 13.3012 19.667 13.3134 19.6697C13.3255 19.6723 13.3381 19.6721 13.3501 19.6689C13.373 19.6603 13.3922 19.6439 13.4042 19.6225C13.4042 19.6147 13.4119 19.607 13.4197 19.5993L13.3655 19.5374L13.3037 19.4678L13.1026 19.3054L13.0639 19.2745L13.0252 19.2435L12.77 19.0347C12.7545 18.9651 12.7391 18.8878 12.7236 18.8181L12.6617 18.7485L12.5844 18.0989L12.6231 18.1298C12.391 16.1577 12.6385 13.6364 14.0306 11.9195C15.1753 10.5042 16.9154 9.79263 19.2201 9.79263C21.5016 9.79263 23.2495 10.5119 24.4251 11.9195C25.8945 13.6828 26.2116 16.2427 26.0105 18.3309C26.0105 18.3618 26.0028 18.385 26.0028 18.416L26.0105 18.4082L26.0569 18.3696L26.0028 18.6557L25.9564 18.9187L25.9487 18.9574L25.9255 18.9883L25.91 19.0038C25.911 19.0375 25.9084 19.0712 25.9023 19.1043C25.8945 19.1507 25.8868 19.1971 25.8791 19.2358L25.6161 19.3905L25.4692 19.5297L25.3763 19.6534H25.3841C25.3974 19.6546 25.4109 19.6519 25.4228 19.6457L25.8636 19.3905C25.8636 19.4059 25.8713 19.4137 25.8868 19.4214C25.8946 19.4239 25.9029 19.4245 25.9109 19.4232C25.919 19.4218 25.9266 19.4186 25.9332 19.4137C26.0415 19.2977 26.2194 19.259 26.4127 19.3131C26.6679 19.3905 27.0082 19.6612 27.101 20.1793C27.2712 21.1383 27.132 21.8653 25.8868 22.5382ZM25.9873 19.3209L25.9719 19.3363L25.9564 19.3441C25.9641 19.3363 25.9719 19.3209 25.9873 19.3209Z" fill="black"/>
</g>
<rect x="0.667318" y="0.999837" width="39.2019" height="39.3333" rx="19.6009" stroke="#6A7294" stroke-width="0.666667"/>
<defs>
<clipPath id="clip0_87_981">
<rect x="0.333984" y="0.666504" width="39.8685" height="40" rx="19.9343" fill="white"/>
</clipPath>
</defs>
</svg>
