<svg width="24" height="25" viewBox="0 0 24 25" fill="none" xmlns="http://www.w3.org/2000/svg">
<path d="M0 5.64583C0 4.34738 0.51581 3.1021 1.43396 2.18396C2.3521 1.26581 3.59738 0.75 4.89583 0.75H18.6042C19.9026 0.75 21.1479 1.26581 22.066 2.18396C22.9842 3.1021 23.5 4.34738 23.5 5.64583V19.3542C23.5 20.6526 22.9842 21.8979 22.066 22.816C21.1479 23.7342 19.9026 24.25 18.6042 24.25H4.89583C3.59738 24.25 2.3521 23.7342 1.43396 22.816C0.51581 21.8979 0 20.6526 0 19.3542V5.64583ZM12.7292 17.3958C12.7292 17.6555 12.8323 17.9046 13.016 18.0882C13.1996 18.2718 13.4486 18.375 13.7083 18.375H18.1146C18.3743 18.375 18.6233 18.2718 18.807 18.0882C18.9906 17.9046 19.0938 17.6555 19.0938 17.3958C19.0938 17.1361 18.9906 16.8871 18.807 16.7035C18.6233 16.5198 18.3743 16.4167 18.1146 16.4167H13.7083C13.4486 16.4167 13.1996 16.5198 13.016 16.7035C12.8323 16.8871 12.7292 17.1361 12.7292 17.3958ZM13.7083 8.58333C13.4486 8.58333 13.1996 8.6865 13.016 8.87012C12.8323 9.05375 12.7292 9.30281 12.7292 9.5625C12.7292 9.82219 12.8323 10.0712 13.016 10.2549C13.1996 10.4385 13.4486 10.5417 13.7083 10.5417H18.1146C18.3743 10.5417 18.6233 10.4385 18.807 10.2549C18.9906 10.0712 19.0938 9.82219 19.0938 9.5625C19.0938 9.30281 18.9906 9.05375 18.807 8.87012C18.6233 8.6865 18.3743 8.58333 18.1146 8.58333H13.7083ZM10.4849 14.7443C10.394 14.6531 10.2859 14.5807 10.1669 14.5314C10.048 14.482 9.92046 14.4566 9.79167 14.4566C9.66287 14.4566 9.53534 14.482 9.41638 14.5314C9.29743 14.5807 9.18937 14.6531 9.09842 14.7443L6.85417 16.9905L6.08258 16.2169C5.89898 16.0331 5.64986 15.9297 5.39003 15.9295C5.13019 15.9293 4.88092 16.0323 4.69706 16.2159C4.5132 16.3995 4.40981 16.6487 4.40962 16.9085C4.40944 17.1683 4.51248 17.4176 4.69608 17.6015L6.16092 19.0683C6.25187 19.1594 6.35992 19.2318 6.47888 19.2811C6.59784 19.3305 6.72537 19.3559 6.85417 19.3559C6.98296 19.3559 7.11049 19.3305 7.22945 19.2811C7.34841 19.2318 7.45646 19.1594 7.54742 19.0683L10.4849 16.1308C10.5761 16.0398 10.6484 15.9317 10.6978 15.8128C10.7472 15.6938 10.7726 15.5663 10.7726 15.4375C10.7726 15.3087 10.7472 15.1812 10.6978 15.0622C10.6484 14.9433 10.5761 14.8352 10.4849 14.7443ZM10.4849 8.29742C10.576 8.20638 10.6482 8.0983 10.6974 7.97935C10.7467 7.8604 10.7721 7.73292 10.7721 7.60417C10.7721 7.47542 10.7467 7.34793 10.6974 7.22898C10.6482 7.11003 10.576 7.00196 10.4849 6.91092C10.3939 6.81988 10.2858 6.74766 10.1669 6.69839C10.0479 6.64912 9.92041 6.62376 9.79167 6.62376C9.66292 6.62376 9.53543 6.64912 9.41648 6.69839C9.29753 6.74766 9.18946 6.81988 9.09842 6.91092L6.85417 9.15713L6.08258 8.38358C5.89872 8.19972 5.64935 8.09643 5.38933 8.09643C5.12931 8.09643 4.87995 8.19972 4.69608 8.38358C4.51222 8.56745 4.40893 8.81681 4.40893 9.07683C4.40893 9.33685 4.51222 9.58622 4.69608 9.77008L6.16092 11.2349C6.25187 11.3261 6.35992 11.3984 6.47888 11.4478C6.59784 11.4972 6.72537 11.5226 6.85417 11.5226C6.98296 11.5226 7.11049 11.4972 7.22945 11.4478C7.34841 11.3984 7.45646 11.3261 7.54742 11.2349L10.4849 8.29742Z" fill="#F3F3F3"/>
</svg>
