<svg width="24" height="24" viewBox="0 0 24 24" fill="none" xmlns="http://www.w3.org/2000/svg">
<path d="M12 24C10.4241 24 8.86371 23.6896 7.4078 23.0866C5.95189 22.4835 4.62902 21.5996 3.51472 20.4853C2.40042 19.371 1.5165 18.0481 0.913446 16.5922C0.310389 15.1363 0 13.5759 0 12C0 10.4241 0.310389 8.86371 0.913446 7.4078C1.5165 5.95189 2.40042 4.62902 3.51472 3.51472C4.62902 2.40042 5.95189 1.5165 7.4078 0.913445C8.86371 0.310389 10.4241 -2.34822e-08 12 0C15.1826 4.74244e-08 18.2348 1.26428 20.4853 3.51472C22.7357 5.76515 24 8.8174 24 12C24 15.1826 22.7357 18.2348 20.4853 20.4853C18.2348 22.7357 15.1826 24 12 24ZM8.5 11.5C8.89782 11.5 9.27936 11.342 9.56066 11.0607C9.84196 10.7794 10 10.3978 10 10C10 9.60218 9.84196 9.22064 9.56066 8.93934C9.27936 8.65804 8.89782 8.5 8.5 8.5C8.10218 8.5 7.72064 8.65804 7.43934 8.93934C7.15804 9.22064 7 9.60218 7 10C7 10.3978 7.15804 10.7794 7.43934 11.0607C7.72064 11.342 8.10218 11.5 8.5 11.5ZM8.272 15.334C8.1848 15.2348 8.0788 15.1538 7.96013 15.0958C7.84146 15.0377 7.71247 15.0038 7.5806 14.9959C7.44873 14.988 7.31661 15.0063 7.19186 15.0497C7.06711 15.0932 6.95221 15.1609 6.85379 15.2491C6.75536 15.3372 6.67538 15.4439 6.61845 15.5631C6.56152 15.6823 6.52877 15.8116 6.52209 15.9436C6.51542 16.0755 6.53495 16.2074 6.57956 16.3318C6.62417 16.4561 6.69297 16.5704 6.782 16.668C7.43876 17.4019 8.243 17.989 9.14215 18.3908C10.0413 18.7927 11.0151 19.0002 12 19C12.9849 19.0002 13.9587 18.7927 14.8578 18.3908C15.757 17.989 16.5612 17.4019 17.218 16.668C17.307 16.5704 17.3758 16.4561 17.4204 16.3318C17.4651 16.2074 17.4846 16.0755 17.4779 15.9436C17.4712 15.8116 17.4385 15.6823 17.3816 15.5631C17.3246 15.4439 17.2446 15.3372 17.1462 15.2491C17.0478 15.1609 16.9329 15.0932 16.8081 15.0497C16.6834 15.0063 16.5513 14.988 16.4194 14.9959C16.2875 15.0038 16.1585 15.0377 16.0399 15.0958C15.9212 15.1538 15.8152 15.2348 15.728 15.334C15.2588 15.8584 14.6842 16.2778 14.0418 16.5649C13.3994 16.852 12.7036 17.0003 12 17C10.52 17 9.19 16.358 8.272 15.334ZM15.5 11.5C15.8978 11.5 16.2794 11.342 16.5607 11.0607C16.842 10.7794 17 10.3978 17 10C17 9.60218 16.842 9.22064 16.5607 8.93934C16.2794 8.65804 15.8978 8.5 15.5 8.5C15.1022 8.5 14.7206 8.65804 14.4393 8.93934C14.158 9.22064 14 9.60218 14 10C14 10.3978 14.158 10.7794 14.4393 11.0607C14.7206 11.342 15.1022 11.5 15.5 11.5Z" fill="#DF65F3"/>
</svg>
