<svg width="22" height="27" viewBox="0 0 22 27" fill="none" xmlns="http://www.w3.org/2000/svg">
<path d="M11 14.765C13.9284 14.765 16.5917 15.6429 18.5509 16.8801C19.5287 17.4974 20.3647 18.226 20.9684 19.0179C21.5624 19.7959 22 20.727 22 21.7225C22 22.7914 21.4977 23.6339 20.7741 24.2348C20.0897 24.804 19.1864 25.181 18.227 25.4441C16.2983 25.9716 13.7243 26.15 11 26.15C8.27567 26.15 5.70167 25.9729 3.773 25.4441C2.81356 25.181 1.91033 24.804 1.22589 24.2348C0.501111 23.6327 0 22.7914 0 21.7225C0 20.727 0.437556 19.7959 1.03156 19.0167C1.63533 18.226 2.47011 17.4987 3.44911 16.8788C5.40833 15.6442 8.07278 14.765 11 14.765ZM11 0.850006C12.6208 0.850006 14.1752 1.51639 15.3212 2.70256C16.4673 3.88872 17.1111 5.49751 17.1111 7.17501C17.1111 8.8525 16.4673 10.4613 15.3212 11.6475C14.1752 12.8336 12.6208 13.5 11 13.5C9.37923 13.5 7.82485 12.8336 6.67879 11.6475C5.53274 10.4613 4.88889 8.8525 4.88889 7.17501C4.88889 5.49751 5.53274 3.88872 6.67879 2.70256C7.82485 1.51639 9.37923 0.850006 11 0.850006Z" fill="#F3F3F3"/>
</svg>
