<svg width="24" height="16" viewBox="0 0 24 16" fill="none" xmlns="http://www.w3.org/2000/svg">
<path d="M23.4571 2.456C23.2917 2.35343 23.1027 2.29495 22.9083 2.28614C22.7138 2.27734 22.5203 2.31851 22.3463 2.40571L19.4286 3.86514V3.42857C19.4286 1.53829 17.8903 0 16 0H3.42857C1.53829 0 0 1.53829 0 3.42857V12.5714C0 14.4617 1.53829 16 3.42857 16H16C17.8903 16 19.4286 14.4617 19.4286 12.5714V12.1349L22.3463 13.5931C22.5201 13.6811 22.7136 13.7227 22.9082 13.7141C23.1027 13.7055 23.2918 13.6469 23.4571 13.544C23.7943 13.3349 24 12.968 24 12.5714V3.42857C24 3.032 23.7943 2.66514 23.4571 2.456ZM5.71429 9.71429C5.48552 9.72027 5.25786 9.68039 5.04475 9.59699C4.83164 9.5136 4.63738 9.38838 4.47343 9.22872C4.30949 9.06905 4.17916 8.87818 4.09016 8.66735C4.00115 8.45652 3.95525 8.23001 3.95517 8.00116C3.9551 7.77231 4.00084 7.54576 4.08971 7.33488C4.17858 7.12399 4.30877 6.93303 4.47262 6.77326C4.63646 6.61348 4.83063 6.48813 5.04369 6.4046C5.25674 6.32106 5.48437 6.28103 5.71314 6.28686C6.15999 6.29825 6.58472 6.48372 6.89679 6.80374C7.20886 7.12376 7.3836 7.55302 7.38374 8.00001C7.38389 8.44701 7.20945 8.87638 6.89759 9.19661C6.58573 9.51684 6.16113 9.7026 5.71429 9.71429Z" fill="#5D80FF"/>
</svg>
