<svg width="22" height="20" viewBox="0 0 22 20" fill="none" xmlns="http://www.w3.org/2000/svg">
<path d="M2 19.5C1.45 19.5 0.979333 19.3043 0.588 18.913C0.196667 18.5217 0.000666667 18.0507 0 17.5V5.5C0 5.21667 0.096 4.97933 0.288 4.788C0.48 4.59667 0.717333 4.50067 1 4.5C1.28267 4.49933 1.52033 4.59533 1.713 4.788C1.90567 4.98067 2.00133 5.218 2 5.5V17.5H18C18.2833 17.5 18.521 17.596 18.713 17.788C18.905 17.98 19.0007 18.2173 19 18.5C18.9993 18.7827 18.9033 19.0203 18.712 19.213C18.5207 19.4057 18.2833 19.5013 18 19.5H2ZM6 15.5C5.45 15.5 4.97933 15.3043 4.588 14.913C4.19667 14.5217 4.00067 14.0507 4 13.5V2.5C4 1.95 4.196 1.47933 4.588 1.088C4.98 0.696667 5.45067 0.500667 6 0.5H10.175C10.4417 0.5 10.696 0.55 10.938 0.65C11.18 0.75 11.3923 0.891667 11.575 1.075L13 2.5H20C20.55 2.5 21.021 2.696 21.413 3.088C21.805 3.48 22.0007 3.95067 22 4.5V13.5C22 14.05 21.8043 14.521 21.413 14.913C21.0217 15.305 20.5507 15.5007 20 15.5H6ZM12.25 10L11.1 8.5C11 8.36667 10.8667 8.3 10.7 8.3C10.5333 8.3 10.4 8.36667 10.3 8.5L8.625 10.7C8.49167 10.8667 8.47067 11.0417 8.562 11.225C8.65333 11.4083 8.80767 11.5 9.025 11.5H16.975C17.1917 11.5 17.3457 11.4083 17.437 11.225C17.5283 11.0417 17.5077 10.8667 17.375 10.7L14.95 7.525C14.85 7.39167 14.7167 7.325 14.55 7.325C14.3833 7.325 14.25 7.39167 14.15 7.525L12.25 10Z" fill="#1BD693"/>
</svg>
