<svg width="24" height="24" viewBox="0 0 24 24" fill="none" xmlns="http://www.w3.org/2000/svg">
<path d="M3.42857 0C1.5375 0 0 1.5375 0 3.42857V20.5714C0 22.4625 1.5375 24 3.42857 24H20.5714C22.4625 24 24 22.4625 24 20.5714V3.42857C24 1.5375 22.4625 0 20.5714 0H3.42857ZM6.85714 10.2857C7.80536 10.2857 8.57143 11.0518 8.57143 12V17.1429C8.57143 18.0911 7.80536 18.8571 6.85714 18.8571C5.90893 18.8571 5.14286 18.0911 5.14286 17.1429V12C5.14286 11.0518 5.90893 10.2857 6.85714 10.2857ZM10.2857 6.85714C10.2857 5.90893 11.0518 5.14286 12 5.14286C12.9482 5.14286 13.7143 5.90893 13.7143 6.85714V17.1429C13.7143 18.0911 12.9482 18.8571 12 18.8571C11.0518 18.8571 10.2857 18.0911 10.2857 17.1429V6.85714ZM17.1429 13.7143C18.0911 13.7143 18.8571 14.4804 18.8571 15.4286V17.1429C18.8571 18.0911 18.0911 18.8571 17.1429 18.8571C16.1946 18.8571 15.4286 18.0911 15.4286 17.1429V15.4286C15.4286 14.4804 16.1946 13.7143 17.1429 13.7143Z" fill="#B9B325"/>
</svg>
