<svg width="21" height="21" viewBox="0 0 21 21" fill="none" xmlns="http://www.w3.org/2000/svg">
<path d="M6.5625 10.5H14.4375C14.8094 10.5 15.1213 10.3992 15.3733 10.1976C15.6253 9.99596 15.7509 9.74677 15.75 9.44997C15.7491 9.15317 15.6231 8.90397 15.372 8.70237C15.1209 8.50077 14.8094 8.39997 14.4375 8.39997H6.5625C6.19062 8.39997 5.87912 8.50077 5.628 8.70237C5.37687 8.90397 5.25087 9.15317 5.25 9.44997C5.24912 9.74677 5.37512 9.99632 5.628 10.1986C5.88087 10.4009 6.19237 10.5014 6.5625 10.5ZM6.5625 6.29998H14.4375C14.8094 6.29998 15.1213 6.19918 15.3733 5.99758C15.6253 5.79598 15.7509 5.54678 15.75 5.24998C15.7491 4.95318 15.6231 4.70398 15.372 4.50238C15.1209 4.30078 14.8094 4.19999 14.4375 4.19999H6.5625C6.19062 4.19999 5.87912 4.30078 5.628 4.50238C5.37687 4.70398 5.25087 4.95318 5.25 5.24998C5.24912 5.54678 5.37512 5.79633 5.628 5.99863C5.88087 6.20093 6.19237 6.30138 6.5625 6.29998ZM20.9344 19.3987L15.6187 13.86C15.2469 13.4575 14.7875 13.147 14.2406 12.9286C13.6937 12.7102 13.1031 12.6007 12.4687 12.6H0V2.09999C0 1.52249 0.25725 1.0283 0.77175 0.617398C1.28625 0.206499 1.904 0.000699997 2.625 0H18.375C19.0969 0 19.7151 0.205799 20.2296 0.617398C20.7441 1.029 21.0009 1.52319 21 2.09999V18.8999C21 18.9874 20.9947 19.0707 20.9842 19.1498C20.9737 19.2289 20.9571 19.3119 20.9344 19.3987ZM2.625 20.9999C1.90312 20.9999 1.28537 20.7945 0.77175 20.3836C0.258125 19.9727 0.000875 19.4781 0 18.8999V14.6999H12.4687C12.6875 14.6999 12.8901 14.7395 13.0764 14.8186C13.2628 14.8977 13.4212 15.0069 13.5516 15.1462L19.0641 20.9212C18.9547 20.9562 18.8401 20.9782 18.7202 20.9873C18.6003 20.9964 18.4852 21.0006 18.375 20.9999H2.625Z" fill="#F3F3F3"/>
</svg>
