<svg width="23" height="25" viewBox="0 0 23 25" fill="none" xmlns="http://www.w3.org/2000/svg">
<path fill-rule="evenodd" clip-rule="evenodd" d="M13.2532 0.9286C12.8184 0.75 12.2662 0.75 11.1629 0.75C10.0595 0.75 9.50847 0.75 9.07255 0.9286C8.4938 1.1662 8.03312 1.62392 7.7918 2.20112C7.68134 2.46315 7.63905 2.76982 7.62142 3.21515C7.61358 3.53781 7.52358 3.85314 7.35992 4.13132C7.19626 4.4095 6.96435 4.64134 6.68612 4.80492C6.40265 4.9625 6.08398 5.04597 5.75966 5.04761C5.43534 5.04926 5.11585 4.96902 4.8308 4.81432C4.43365 4.60518 4.14577 4.49002 3.86142 4.45242C3.23932 4.37074 2.61013 4.53796 2.11067 4.91772C1.73702 5.20207 1.4609 5.67677 0.909821 6.625C0.357571 7.57322 0.0826207 8.04675 0.0203457 8.51087C-0.0619043 9.12892 0.107296 9.75402 0.490346 10.2487C0.664246 10.4743 0.909821 10.6635 1.28935 10.9008C1.84982 11.2498 2.20937 11.8443 2.20937 12.5C2.20937 13.1556 1.84982 13.7502 1.29052 14.098C0.909821 14.3365 0.664246 14.5257 0.489171 14.7513C0.300093 14.9956 0.16131 15.275 0.0808398 15.5733C0.000369997 15.8716 -0.0201908 16.1828 0.0203457 16.4891C0.0826207 16.9521 0.357571 17.4268 0.909821 18.375C1.46207 19.3232 1.73702 19.7967 2.11067 20.0823C2.60887 20.4618 3.23867 20.6287 3.86142 20.5476C4.14577 20.51 4.43365 20.3948 4.8308 20.1857C5.116 20.0308 5.4357 19.9504 5.76025 19.9521C6.0848 19.9537 6.40368 20.0373 6.6873 20.1951C7.25835 20.5241 7.59675 21.1292 7.62142 21.7848C7.63905 22.2313 7.68134 22.5368 7.7918 22.7989C8.0315 23.3746 8.49209 23.8329 9.07255 24.0714C9.5073 24.25 10.0595 24.25 11.1629 24.25C12.2662 24.25 12.8184 24.25 13.2532 24.0714C13.8319 23.8338 14.2926 23.3761 14.5339 22.7989C14.6444 22.5368 14.6867 22.2313 14.7043 21.7848C14.7278 21.1292 15.0674 20.5229 15.6396 20.1951C15.9231 20.0375 16.2418 19.954 16.5661 19.9524C16.8904 19.9507 17.2099 20.031 17.4949 20.1857C17.8921 20.3948 18.18 20.51 18.4643 20.5476C19.0871 20.6298 19.7169 20.4618 20.2151 20.0823C20.5887 19.7979 20.8648 19.3232 21.4159 18.375C21.9682 17.4268 22.2431 16.9532 22.3054 16.4891C22.3458 16.1828 22.325 15.8715 22.2443 15.5732C22.1637 15.2749 22.0247 14.9955 21.8354 14.7513C21.6615 14.5257 21.4159 14.3365 21.0364 14.0992C20.4759 13.7502 20.1164 13.1556 20.1164 12.5C20.1164 11.8443 20.4759 11.2498 21.0352 10.902C21.4159 10.6635 21.6615 10.4743 21.8366 10.2487C22.0256 10.0044 22.1644 9.72499 22.2449 9.42671C22.3254 9.12842 22.3459 8.81715 22.3054 8.51087C22.2431 8.04792 21.9682 7.57322 21.4159 6.625C20.8637 5.67677 20.5887 5.20325 20.2151 4.91772C19.7156 4.53796 19.0864 4.37074 18.4643 4.45242C18.18 4.49002 17.8921 4.60518 17.4949 4.81432C17.2097 4.96922 16.89 5.04958 16.5655 5.04794C16.2409 5.04629 15.9221 4.9627 15.6384 4.80492C15.3604 4.6412 15.1288 4.4093 14.9653 4.13112C14.8019 3.85295 14.712 3.5377 14.7043 3.21515C14.6867 2.76865 14.6444 2.46315 14.5339 2.20112C14.4145 1.91529 14.2399 1.65579 14.0202 1.43744C13.8004 1.2191 13.5398 1.04619 13.2532 0.9286ZM11.1629 16.025C13.1251 16.025 14.7149 14.447 14.7149 12.5C14.7149 10.553 13.1239 8.975 11.1629 8.975C9.20062 8.975 7.61085 10.553 7.61085 12.5C7.61085 14.447 9.2018 16.025 11.1629 16.025Z" fill="#F3F3F3"/>
</svg>
